<?xml version="1.0" encoding="UTF-8"?>
<svg width="364px" height="401px" viewBox="0 0 364 401" version="1.1" xmlns="http://www.w3.org/2000/svg" xmlns:xlink="http://www.w3.org/1999/xlink">
    <title>819AA168-951F-4475-AAB0-1BC901A32A53@1x</title>
    <g id="mobile" stroke="none" stroke-width="1" fill="none" fill-rule="evenodd">
        <g id="Homepage" transform="translate(4.000000, 56.000000)">
            <g id="Group-13" transform="translate(-4.000000, -56.000000)">
                <path d="M4,56 L364,56 L364,356 C364,380.852814 343.852814,401 319,401 L49,401 C24.1471863,401 4,380.852814 4,356 L4,56 L4,56 Z" id="Rectangle" fill-opacity="0.08" fill="#829CD0"></path>
                <path d="M278.011521,331.912957 C277.611521,330.812957 278.211521,330.212957 278.711521,329.612957 C279.311521,328.512957 274.811521,328.212957 279.311521,320.312957 C275.611521,313.012957 273.811521,304.412957 275.411521,292.312957 C275.511521,292.412957 275.611521,292.412957 275.711521,292.512957 C275.611521,292.612957 275.611521,292.612957 275.511521,292.712957 C275.711521,293.112957 275.911521,293.412957 276.111521,293.812957 C275.911521,294.812957 277.111521,294.212957 277.611521,298.312957 C277.711521,298.412957 277.811521,298.412957 277.911521,298.512957 C278.611521,298.912957 277.011521,299.912957 280.211521,301.612957 C280.311521,300.912957 280.311521,301.012957 279.511521,298.512957 C280.411521,297.612957 279.611521,297.612957 280.811521,295.412957 C280.911521,294.912957 279.811521,295.412957 280.111521,293.512957 C281.011521,294.912957 281.611521,297.912957 286.211521,299.312957 C292.011521,296.112957 284.911521,294.712957 285.411521,287.012957 C285.711521,287.012957 286.011521,286.912957 286.311521,286.712957 C284.011521,286.312957 284.911521,282.612957 283.111521,276.112957 C282.611521,276.312957 283.011521,276.812957 282.611521,277.012957 C281.211521,276.712957 281.211521,276.812957 281.211521,274.912957 C283.211521,274.512957 282.211521,275.512957 283.311521,270.412957 C283.011521,269.312957 282.511521,268.412957 281.311521,268.112957 C280.911521,266.312957 282.011521,268.312957 280.011521,255.312957 C281.111521,253.712957 281.211521,254.612957 281.611521,250.412957 C281.711521,250.412957 281.811521,250.412957 281.911521,250.312957 C282.011521,251.412957 282.311521,252.412957 283.811521,252.612957 C284.111521,253.812957 285.211521,253.812957 284.111521,255.612957 C284.411521,255.712957 284.111521,256.412957 285.711521,256.812957 C286.211521,257.212957 284.611521,258.112957 286.311521,259.512957 C286.111521,259.912957 285.611521,259.712957 285.411521,259.812957 C284.911521,261.012957 287.111521,261.512957 286.111521,262.812957 C287.111521,263.112957 287.211521,263.612957 287.011521,264.112957 C287.011521,264.012957 286.911521,264.012957 286.911521,263.912957 C286.811521,264.112957 286.811521,264.312957 286.911521,264.412957 C286.811521,264.712957 286.711521,265.012957 286.811521,265.312957 C286.811521,265.312957 286.811521,265.312957 286.811521,265.312957 C286.811521,265.312957 286.811521,265.312957 286.811521,265.312957 C286.811521,265.412957 286.911521,265.512957 287.011521,265.612957 C286.811521,265.712957 286.711521,265.812957 286.511521,265.912957 C286.511521,265.912957 286.511521,265.812957 286.511521,265.812957 C286.111521,266.212957 286.411521,265.912957 285.411521,266.512957 C285.211521,268.212957 285.611521,269.512957 287.311521,270.212957 C287.411521,271.112957 286.911521,271.012957 288.111521,272.312957 C287.411521,273.312957 288.111521,272.212957 288.511521,276.712957 C289.111521,277.012957 288.511521,277.412957 290.411521,278.812957 C291.011521,278.812957 290.611521,278.312957 291.211521,278.312957 C291.511521,279.012957 291.811521,279.812957 292.111521,280.512957 C290.411521,280.812957 291.611521,281.612957 291.411521,284.812957 C292.711521,286.412957 293.711521,288.112957 293.911521,289.812957 C295.411521,289.912957 295.911521,290.612957 296.811521,286.812957 C296.711521,286.312957 293.411521,283.612957 296.111521,280.012957 C296.811521,280.912957 295.411521,280.312957 297.611521,284.412957 C296.811521,285.512957 297.611521,284.312957 297.911521,289.212957 C298.511521,289.512957 297.811521,289.912957 299.711521,291.612957 C300.311521,291.612957 299.911521,291.012957 300.611521,291.112957 C300.911521,291.912957 301.211521,292.812957 301.411521,293.612957 C299.611521,293.812957 301.011521,294.812957 300.611521,298.312957 C301.811521,300.112957 302.811521,302.012957 303.011521,303.912957 C304.611521,304.112957 305.011521,304.712957 306.011521,300.812957 C306.611521,299.912957 302.011521,299.712957 306.111521,292.312957 C302.211521,286.012957 299.711521,278.212957 300.711521,267.212957 C301.111521,267.512957 301.711521,267.112957 301.911521,267.912957 C301.411521,268.412957 301.711521,268.112957 302.511521,269.912957 C302.511521,270.012957 302.511521,270.012957 302.311521,270.212957 C302.511521,270.212957 302.711521,270.312957 302.911521,270.312957 C303.211521,270.712957 302.911521,270.312957 303.511521,272.012957 C303.111521,272.312957 302.611521,272.512957 302.011521,272.612957 C302.411521,271.812957 301.911521,271.212957 302.011521,270.612957 C301.811521,271.712957 300.811521,271.112957 303.411521,277.712957 C302.611521,278.712957 303.411521,277.612957 303.711521,282.512957 C304.311521,282.812957 303.611521,283.212957 305.511521,284.912957 C306.111521,284.912957 305.711521,284.312957 306.411521,284.412957 C306.711521,285.212957 307.011521,286.112957 307.211521,286.812957 C305.411521,287.012957 306.811521,288.012957 306.411521,291.412957 C307.711521,293.212957 308.611521,295.012957 308.811521,296.912957 C310.311521,297.112957 310.811521,297.712957 311.811521,293.812957 C312.411521,292.912957 307.811521,292.712957 311.811521,285.412957 C307.911521,279.212957 305.411521,271.412957 306.511521,260.512957 C306.811521,260.812957 307.511521,260.412957 307.711521,261.212957 C307.211521,261.712957 307.411521,261.412957 308.311521,263.212957 C308.811521,263.812957 308.211521,264.412957 309.511521,266.412957 C308.611521,266.812957 309.511521,267.112957 309.311521,269.112957 C309.811521,269.212957 310.111521,271.012957 311.811521,270.312957 C312.011521,270.812957 312.211521,271.212957 312.411521,271.712957 C311.111521,271.712957 311.611521,272.112957 311.211521,274.312957 C312.311521,275.412957 313.011521,276.412957 313.011521,277.512957 C314.111521,277.512957 314.711521,278.412957 316.311521,275.912957 C316.011521,275.312957 313.311521,273.312957 317.211521,271.112957 C316.111521,270.012957 311.611521,265.812957 314.611521,256.812957 C314.911521,257.012957 315.611521,256.812957 315.711521,257.212957 C315.611521,257.212957 315.811521,260.412957 318.911521,261.312957 C318.111521,255.012957 315.811521,248.112957 313.611521,239.212957 C313.111521,239.112957 312.611521,239.012957 312.111521,239.012957 C312.711521,238.612957 312.811521,238.312957 312.811521,238.012957 C312.211521,238.312957 312.611521,238.912957 311.311521,239.212957 C306.311521,213.312957 297.811521,187.512957 289.211521,159.512957 C289.211521,159.512957 289.311521,159.512957 289.311521,159.512957 C289.311521,159.412957 289.211521,159.212957 289.111521,159.112957 C289.111521,158.712957 289.011521,158.312957 288.811521,157.912957 C289.111521,157.812957 289.411521,157.712957 289.611521,157.512957 L289.411521,156.712957 C289.111521,156.712957 289.411521,156.812957 288.511521,156.912957 C288.511521,156.812957 288.411521,156.712957 288.411521,156.612957 C288.711521,156.112957 289.711521,155.712957 288.311521,154.912957 C288.011521,153.812957 288.211521,154.612957 287.511521,152.312957 C287.611521,152.212957 287.711521,152.212957 287.811521,152.112957 C287.811521,151.912957 287.511521,151.912957 287.411521,151.912957 C287.211521,151.112957 286.711521,151.012957 286.411521,149.012957 C286.411521,148.812957 286.811521,149.012957 287.011521,148.412957 C286.611521,148.512957 286.311521,148.612957 286.011521,148.612957 C285.911521,148.512957 285.811521,148.412957 285.711521,148.312957 C285.711521,148.212957 285.811521,148.112957 285.811521,148.012957 C286.611521,147.912957 287.311521,147.912957 288.211521,147.612957 C287.411521,148.112957 285.911521,131.712957 280.011521,130.812957 C279.311521,130.912957 279.911521,130.112957 279.211521,128.812957 C279.411521,128.712957 279.311521,128.612957 279.111521,128.412957 C279.011521,128.112957 278.911521,127.912957 278.811521,127.612957 C278.411521,126.812957 279.911521,125.812957 278.411521,123.912957 C278.611521,123.812957 278.711521,123.712957 278.911521,123.512957 C279.611521,122.812957 273.411521,114.712957 272.111521,109.012957 C271.011521,109.112957 267.911521,106.912957 265.411521,106.212957 C264.711521,104.812957 266.411521,105.312957 264.211521,102.912957 C263.111521,102.512957 260.711521,104.112957 261.511521,97.9129574 C261.411521,98.0129574 261.311521,98.0129574 261.011521,98.2129574 C260.911521,97.7129574 260.311521,97.5129574 260.111521,97.1129574 C258.411521,97.2129574 260.211521,96.2129574 256.311521,92.6129574 C257.811521,91.1129574 255.211521,88.0129574 252.411521,84.5129574 C252.611521,84.1129574 252.511521,83.8129574 252.211521,83.7129574 C248.011521,74.3129574 243.811521,61.8129574 236.311521,48.6129574 C236.111521,48.7129574 236.011521,49.0129574 235.711521,49.0129574 C234.611521,48.0129574 234.611521,48.1129574 235.011521,45.1129574 C232.011521,42.9129574 233.611521,40.5129574 225.711521,30.6129574 C226.711521,30.8129574 227.611521,30.6129574 228.211521,29.6129574 C225.111521,22.6129574 217.211521,14.5129574 213.011521,5.61295739 C208.711521,4.71295739 208.011521,-0.287042605 200.111521,0.0129573947 C196.511521,5.81295739 203.211521,3.51295739 206.911521,11.6129574 C206.611521,11.7129574 206.411521,12.0129574 206.211521,12.2129574 C208.311521,11.7129574 209.311521,14.9129574 214.011521,21.4129574 C214.311521,21.0129574 213.811521,20.7129574 214.111521,20.4129574 C215.511521,20.1129574 215.511521,20.1129574 216.311521,22.0129574 C214.511521,23.2129574 215.211521,21.8129574 216.211521,27.2129574 C217.011521,28.2129574 217.811521,28.9129574 219.111521,28.8129574 C219.311521,30.6129574 219.911521,28.2129574 223.611521,39.3129574 C223.011521,39.9129574 222.611521,38.7129574 221.711521,40.0129574 C221.311521,39.7129574 220.911521,39.4129574 220.511521,39.1129574 C221.611521,38.5129574 221.011521,38.4129574 220.311521,36.3129574 C218.911521,36.0129574 217.711521,35.5129574 217.211521,34.6129574 C216.711521,34.7129574 217.111521,34.6129574 215.711521,35.4129574 C214.911521,34.9129574 215.511521,33.5129574 214.611521,33.2129574 C215.111521,32.6129574 215.511521,32.2129574 215.811521,31.9129574 C215.311521,30.1129574 214.311521,28.9129574 212.211521,28.9129574 C211.911521,29.4129574 213.111521,29.2129574 212.811521,31.1129574 C211.411521,26.4129574 203.311521,19.0129574 201.611521,12.5129574 C197.311521,11.5129574 196.811521,6.41295739 188.911521,6.51295739 C185.111521,12.2129574 191.911521,10.1129574 195.311521,18.4129574 C195.311521,18.4129574 195.311521,18.4129574 195.311521,18.4129574 C193.611521,17.3129574 192.711521,15.4129574 188.011521,15.8129574 C188.011521,16.3129574 187.811521,16.6129574 187.511521,16.8129574 C187.711521,14.3129574 181.911521,13.5129574 182.711521,9.41295739 C178.411521,8.71295739 177.311521,3.61295739 169.411521,4.41295739 C169.711521,5.61295739 168.011521,5.91295739 168.111521,7.01295739 C167.311521,7.01295739 166.811521,3.31295739 158.811521,3.41295739 C155.611521,9.71295739 162.611521,7.11295739 167.011521,15.8129574 C166.711521,15.9129574 166.511521,16.2129574 166.311521,16.5129574 C168.311521,16.0129574 169.311521,18.9129574 175.211521,26.4129574 C175.511521,26.0129574 175.011521,25.6129574 175.211521,25.3129574 C177.111521,24.9129574 177.111521,24.9129574 178.111521,26.9129574 C175.511521,27.3129574 178.511521,29.2129574 178.511521,32.5129574 C179.411521,33.6129574 180.211521,34.4129574 181.611521,34.3129574 C181.911521,35.3129574 182.411521,36.2129574 182.911521,37.0129574 C182.911521,37.2129574 182.911521,37.5129574 182.811521,37.7129574 C183.111521,37.7129574 183.311521,37.8129574 183.611521,37.9129574 C184.211521,38.5129574 183.711521,37.9129574 184.611521,39.4129574 C184.611521,39.6129574 184.611521,39.7129574 184.811521,39.9129574 C185.011521,40.3129574 185.111521,40.7129574 185.311521,41.1129574 C185.211521,41.5129574 184.611521,41.7129574 184.411521,42.0129574 C184.511521,42.8129574 184.511521,43.7129574 185.611521,43.8129574 C185.411521,45.8129574 185.411521,45.8129574 183.911521,45.7129574 C185.011521,47.6129574 183.811521,47.0129574 188.711521,48.2129574 C188.011521,48.7129574 188.711521,48.2129574 186.911521,49.5129574 C187.511521,51.3129574 186.411521,51.0129574 188.011521,54.2129574 C186.111521,53.3129574 186.811521,53.1129574 183.111521,51.1129574 C185.011521,50.5129574 180.611521,46.0129574 181.711521,44.6129574 C181.611521,43.1129574 179.311521,43.3129574 179.611521,41.6129574 C177.411521,41.8129574 178.511521,39.5129574 177.311521,39.0129574 C177.711521,38.4129574 178.111521,37.9129574 178.411521,37.6129574 C177.711521,35.7129574 176.711521,34.3129574 174.511521,34.3129574 C174.411521,35.1129574 175.911521,35.2129574 176.211521,39.0129574 C176.511521,39.3129574 176.811521,38.9129574 177.111521,39.2129574 C176.111521,40.0129574 179.411521,42.7129574 177.311521,44.7129574 C177.611521,45.6129574 177.611521,46.6129574 178.811521,46.6129574 C178.811521,48.8129574 178.811521,48.7129574 177.311521,48.7129574 C177.711521,50.5129574 179.211521,50.5129574 182.611521,51.5129574 C181.911521,52.0129574 181.411521,52.5129574 180.811521,52.9129574 C181.811521,54.7129574 180.211521,56.4129574 183.811521,58.8129574 C182.611521,59.0129574 187.411521,62.4129574 183.511521,62.2129574 C184.011521,63.2129574 185.311521,63.5129574 185.511521,64.5129574 C185.311521,64.9129574 184.711521,65.0129574 184.611521,65.6129574 C184.911521,66.1129574 185.211521,66.5129574 185.411521,67.0129574 C186.311521,67.0129574 189.111521,70.6129574 190.311521,75.0129574 C191.011521,76.9129574 192.711521,74.5129574 193.711521,81.7129574 C194.211521,81.4129574 194.611521,81.1129574 195.211521,81.5129574 C195.211521,81.8129574 195.311521,82.1129574 195.311521,82.4129574 C194.511521,82.6129574 193.711521,82.5129574 192.911521,83.0129574 C198.111521,90.7129574 202.311521,105.412957 211.511521,114.712957 C211.811521,114.112957 211.011521,113.712957 211.611521,112.712957 C211.711521,113.512957 212.511521,113.812957 212.711521,114.412957 C212.511521,114.812957 212.311521,114.612957 212.611521,115.512957 C214.811521,118.712957 213.111521,124.312957 217.911521,128.812957 C219.211521,128.112957 219.511521,131.512957 222.111521,133.712957 C222.711521,134.012957 222.611521,138.212957 225.511521,141.012957 C225.911521,141.712957 224.311521,142.012957 225.411521,143.312957 C230.411521,148.412957 227.811521,152.612957 233.911521,159.912957 C234.611521,159.912957 235.411521,159.612957 236.211521,159.912957 C236.211521,162.212957 234.311521,162.012957 238.011521,170.112957 C239.211521,169.912957 242.011521,171.212957 241.811521,180.812957 C241.911521,180.712957 242.011521,180.612957 242.311521,180.512957 C242.511521,181.512957 243.211521,182.112957 243.411521,183.012957 C246.011521,185.012957 244.511521,187.912957 248.011521,193.612957 C245.711521,199.712957 254.011521,208.912957 253.711521,216.712957 C256.511521,227.412957 259.611521,239.312957 261.811521,253.312957 C261.711521,254.012957 263.511521,253.612957 262.211521,257.612957 C265.211521,259.812957 261.711521,267.112957 265.611521,272.412957 C265.711521,273.112957 265.411521,273.612957 265.311521,274.212957 C266.911521,275.812957 264.511521,275.412957 267.311521,280.712957 C267.511521,280.612957 267.611521,280.112957 268.011521,280.012957 C268.011521,280.212957 269.711521,282.212957 266.511521,282.712957 C266.511521,284.612957 266.211521,286.412957 268.211521,287.112957 C268.311521,288.512957 269.511521,288.712957 268.311521,290.712957 C268.411521,291.712957 270.411521,292.112957 271.211521,294.712957 C271.111521,295.512957 270.611521,295.312957 270.511521,295.312957 C270.011521,297.412957 276.711521,301.812957 269.911521,305.412957 C270.311521,304.612957 269.911521,303.912957 270.011521,303.212957 C269.811521,304.512957 268.711521,303.712957 271.011521,311.112957 C270.211521,312.212957 271.011521,311.012957 271.111521,316.412957 C271.711521,316.812957 270.911521,317.112957 272.811521,319.212957 C273.411521,319.312957 273.111521,318.612957 273.711521,318.712957 C273.911521,319.612957 274.211521,320.612957 274.411521,321.512957 C272.511521,321.612957 274.011521,322.912957 273.311521,326.612957 C274.411521,328.712957 275.211521,330.812957 275.311521,332.912957 C275.911521,332.912957 276.711521,333.912957 278.011521,331.912957 Z M302.111521,289.412957 C303.111521,290.212957 302.611521,291.812957 300.211521,290.212957 C299.611521,289.512957 299.811521,288.512957 300.611521,287.812957 C301.011521,288.612957 301.411521,289.212957 302.111521,289.412957 Z M308.011521,282.612957 C309.011521,283.412957 308.511521,285.012957 306.111521,283.412957 C305.511521,282.812957 305.711521,281.712957 306.511521,281.112957 C306.811521,281.812957 307.311521,282.412957 308.011521,282.612957 Z M247.311521,167.612957 C243.211521,154.712957 239.211521,144.412957 232.611521,125.612957 C232.511521,127.012957 234.711521,125.112957 236.011521,132.412957 C236.111521,132.712957 236.511521,131.912957 236.911521,132.612957 C237.111521,132.712957 236.011521,133.312957 237.411521,133.712957 C237.611521,134.212957 237.811521,134.612957 238.011521,135.112957 C237.311521,136.212957 238.011521,137.012957 239.811521,139.112957 C240.511521,140.712957 241.211521,142.312957 241.811521,143.912957 C241.911521,145.312957 240.111521,145.012957 242.811521,146.512957 C253.211521,171.812957 263.511521,200.012957 268.511521,231.312957 C268.411521,231.412957 268.311521,231.412957 268.111521,231.512957 C263.011521,213.212957 254.611521,190.012957 247.311521,167.612957 Z M294.011521,231.912957 C294.111521,232.312957 294.211521,232.612957 294.211521,232.912957 C294.111521,232.912957 294.011521,233.012957 293.911521,233.012957 C293.911521,233.212957 294.011521,233.212957 294.111521,233.312957 C294.011521,233.712957 294.011521,233.712957 294.211521,235.412957 C294.111521,235.712957 293.911521,236.012957 293.411521,236.112957 C292.611521,233.112957 291.911521,230.212957 291.011521,227.312957 C291.311521,227.312957 291.511521,227.112957 291.611521,226.912957 C291.411521,227.012957 291.211521,227.112957 291.011521,227.212957 C290.511521,225.412957 290.111521,224.512957 288.811521,219.712957 C288.511521,218.412957 288.711521,219.512957 288.011521,216.712957 C288.111521,216.212957 287.911521,216.412957 287.511521,215.012957 C287.611521,214.712957 287.911521,214.312957 288.311521,214.012957 C288.011521,213.212957 287.611521,212.612957 286.811521,212.412957 C285.511521,209.712957 287.211521,211.412957 285.311521,201.812957 C285.511521,201.612957 285.811521,201.512957 286.111521,201.312957 C288.211521,208.812957 290.011521,216.112957 292.311521,226.312957 C292.211521,227.012957 294.011521,226.512957 292.811521,230.112957 C293.011521,230.412957 293.511521,229.912957 294.011521,231.512957 L294.011521,231.512957 L294.011521,231.912957 L294.011521,231.912957 Z M275.511521,263.312957 C275.811521,263.712957 276.211521,263.412957 275.711521,264.412957 C275.711521,264.412957 275.611521,264.412957 275.611521,264.412957 C275.611521,264.012957 275.511521,263.712957 275.511521,263.312957 Z M230.911521,66.1129574 C231.511521,66.9129574 231.511521,66.9129574 230.711521,67.2129574 C230.211521,66.7129574 230.711521,66.4129574 230.911521,66.1129574 Z M289.511521,251.512957 C289.711521,251.212957 289.811521,250.912957 289.911521,250.612957 C290.011521,250.712957 290.011521,250.612957 290.211521,250.912957 C290.111521,251.112957 290.111521,251.412957 290.111521,251.612957 C290.711521,251.712957 290.711521,251.912957 290.911521,253.712957 C289.911521,253.012957 290.511521,253.712957 289.511521,251.512957 Z M264.511521,171.112957 C264.511521,170.912957 264.511521,170.712957 264.611521,170.512957 C265.511521,170.712957 265.811521,171.512957 265.911521,172.212957 C265.611521,171.812957 265.911521,172.412957 264.511521,171.112957 Z M261.111521,161.512957 C261.211521,161.312957 261.211521,161.112957 261.211521,160.812957 C261.411521,162.112957 261.811521,160.412957 263.111521,166.212957 C263.011521,166.212957 262.911521,166.112957 262.711521,166.112957 C262.211521,164.612957 261.611521,163.112957 261.111521,161.512957 Z M281.711521,246.612957 C281.411521,246.512957 281.311521,246.312957 281.211521,245.812957 C281.311521,246.112957 281.511521,246.312957 281.711521,246.612957 Z M265.811521,173.312957 C265.511521,173.012957 266.011521,172.712957 266.011521,172.412957 C266.111521,172.712957 266.011521,172.512957 266.311521,173.412957 C266.111521,173.412957 266.011521,173.512957 265.811521,173.312957 Z M269.111521,159.312957 C269.011521,159.012957 268.911521,158.812957 268.811521,158.512957 C268.911521,158.812957 269.011521,159.112957 269.111521,159.312957 Z M203.811521,47.1129574 C203.811521,47.2129574 203.811521,47.3129574 203.811521,47.4129574 C203.811521,47.3129574 203.711521,47.2129574 203.711521,47.1129574 C203.711521,47.1129574 203.811521,47.1129574 203.811521,47.1129574 Z M205.711521,52.7129574 C205.611521,52.7129574 205.611521,52.8129574 205.511521,52.8129574 C205.211521,52.5129574 205.011521,52.3129574 204.911521,52.0129574 C205.211521,52.2129574 205.411521,52.5129574 205.711521,52.7129574 Z M263.211521,143.312957 C263.811521,144.112957 264.311521,145.012957 264.811521,148.012957 C264.011521,145.812957 264.511521,147.312957 262.911521,142.912957 C263.011521,143.012957 263.111521,143.212957 263.211521,143.312957 Z M265.611521,150.012957 C265.411521,149.512957 265.211521,149.112957 265.011521,148.612957 C265.211521,149.012957 265.411521,149.512957 265.611521,150.012957 Z M268.111521,177.412957 C268.111521,177.612957 268.511521,177.612957 268.311521,178.312957 C267.411521,177.712957 267.511521,178.312957 267.111521,175.412957 C267.411521,176.112957 267.711521,176.812957 268.111521,177.412957 Z M196.311521,34.3129574 C198.111521,34.8129574 196.311521,34.7129574 200.711521,38.0129574 C201.111521,39.6129574 201.711521,38.7129574 201.511521,41.6129574 C201.811521,42.0129574 202.211521,42.4129574 202.611521,42.7129574 C202.711521,43.1129574 204.511521,43.5129574 202.711521,45.0129574 C202.011521,42.9129574 199.511521,38.3129574 196.211521,34.2129574 C196.311521,34.3129574 196.311521,34.3129574 196.311521,34.3129574 Z M191.011521,35.6129574 C191.911521,36.7129574 191.111521,35.7129574 192.411521,38.4129574 C191.911521,38.0129574 191.011521,37.8129574 191.411521,36.8129574 C191.011521,36.7129574 190.911521,36.2129574 190.711521,36.0129574 C190.811521,35.9129574 190.911521,35.7129574 191.011521,35.6129574 Z M188.911521,37.2129574 C188.811521,37.2129574 188.811521,37.1129574 188.811521,37.1129574 C188.911521,37.0129574 189.011521,36.9129574 189.111521,36.8129574 C189.511521,37.0129574 189.711521,37.3129574 189.811521,37.7129574 C189.511521,37.6129574 189.211521,37.4129574 188.911521,37.2129574 Z M257.011521,149.912957 C257.011521,150.012957 257.011521,150.112957 257.011521,150.212957 C257.011521,150.112957 257.011521,150.112957 256.811521,149.912957 C256.911521,149.912957 256.911521,149.912957 257.011521,149.912957 Z M243.711521,90.1129574 C243.911521,90.0129574 244.111521,90.1129574 244.511521,90.9129574 C244.111521,90.7129574 243.811521,90.4129574 243.711521,90.1129574 Z M236.111521,78.1129574 C235.911521,77.8129574 236.111521,77.9129574 235.511521,77.5129574 C234.911521,76.6129574 235.011521,76.8129574 233.211521,72.9129574 C233.311521,72.9129574 233.211521,72.4129574 233.711521,72.7129574 C233.711521,72.2129574 232.611521,72.0129574 233.211521,71.3129574 C233.611521,71.7129574 234.311521,70.4129574 236.511521,78.4129574 C236.311521,78.3129574 236.211521,78.2129574 236.111521,78.1129574 Z M215.511521,37.6129574 C215.311521,37.9129574 214.911521,38.0129574 214.811521,38.3129574 C214.811521,38.4129574 214.811521,38.5129574 214.911521,38.6129574 C214.511521,38.3129574 214.411521,38.7129574 214.411521,37.6129574 C214.711521,37.7129574 215.111521,37.7129574 215.511521,37.6129574 Z M189.511521,32.4129574 C189.511521,32.6129574 189.611521,32.7129574 189.711521,32.9129574 C189.611521,32.7129574 189.511521,32.6129574 189.411521,32.4129574 C189.411521,32.4129574 189.411521,32.4129574 189.511521,32.4129574 Z M292.411521,261.612957 C292.911521,261.412957 291.311521,260.512957 292.911521,259.612957 C293.711521,260.312957 294.111521,261.112957 293.911521,262.312957 C293.011521,262.412957 292.311521,262.212957 292.411521,261.612957 Z M299.511521,261.212957 C300.411521,262.212957 301.811521,260.312957 302.311521,267.012957 C300.911521,265.812957 301.311521,266.912957 299.511521,261.212957 Z M307.311521,259.712957 C307.511521,258.412957 306.311521,259.212957 305.611521,254.712957 C306.411521,255.712957 307.911521,253.812957 308.311521,260.512957 C307.311521,260.612957 307.211521,260.212957 307.311521,259.712957 Z M294.311521,235.712957 C294.311521,235.812957 294.311521,235.812957 294.311521,235.912957 C294.311521,235.912957 294.211521,235.912957 294.211521,235.912957 C294.211521,235.812957 294.311521,235.812957 294.311521,235.712957 Z M292.611521,200.412957 C292.611521,200.312957 292.611521,200.312957 292.611521,200.412957 C293.111521,200.112957 293.611521,200.012957 294.011521,199.812957 C293.911521,200.112957 293.711521,200.512957 293.511521,200.812957 C293.211521,200.612957 292.911521,200.512957 292.611521,200.412957 Z M230.511521,65.6129574 C229.711521,64.6129574 229.811521,65.2129574 228.411521,62.0129574 C228.411521,61.9129574 228.411521,61.8129574 228.511521,61.8129574 C228.811521,62.1129574 228.411521,62.3129574 229.811521,63.4129574 C230.211521,64.0129574 230.511521,64.7129574 230.511521,65.6129574 Z M222.711521,46.2129574 C221.911521,45.4129574 221.011521,44.6129574 219.811521,44.3129574 C220.111521,44.0129574 220.211521,43.7129574 220.311521,43.4129574 C221.711521,43.8129574 221.711521,44.8129574 224.311521,47.1129574 C223.711521,47.1129574 223.211521,46.7129574 222.711521,46.2129574 Z M222.911521,41.6129574 C221.911521,41.5129574 218.611521,41.1129574 222.911521,40.2129574 C223.511521,40.2129574 223.511521,40.8129574 222.911521,41.6129574 Z M198.711521,84.2129574 C198.611521,84.2129574 198.611521,84.0129574 198.611521,83.9129574 C198.611521,83.9129574 198.711521,84.0129574 198.711521,84.2129574 Z M282.311521,251.312957 C282.311521,250.912957 282.011521,250.612957 282.011521,250.212957 C282.211521,250.312957 283.711521,249.712957 283.811521,251.812957 C283.011521,252.112957 282.311521,251.912957 282.311521,251.312957 Z M287.311521,265.512957 C287.311521,265.412957 287.311521,265.412957 287.411521,265.312957 C287.411521,265.312957 288.211521,265.112957 287.611521,264.612957 C288.011521,264.112957 288.211521,263.512957 288.211521,261.712957 C287.411521,262.312957 291.611521,264.312957 287.711521,267.212957 C287.311521,266.712957 288.011521,266.312957 288.111521,266.012957 C287.911521,265.512957 287.411521,265.812957 287.311521,265.512957 Z M291.811521,277.212957 C291.411521,277.012957 291.111521,277.412957 290.711521,277.312957 C290.111521,276.712957 290.311521,275.712957 291.111521,275.112957 C291.811521,274.712957 294.411521,280.512957 291.811521,277.212957 Z M294.911521,267.412957 C296.411521,267.612957 296.611521,268.812957 297.111521,269.612957 C297.011521,270.312957 296.611521,270.212957 296.411521,270.212957 C295.211521,270.812957 302.711521,275.012957 296.711521,279.312957 C296.811521,279.212957 296.811521,279.112957 296.911521,279.012957 C296.811521,278.912957 296.711521,278.812957 296.611521,278.812957 C296.611521,278.312957 296.411521,277.812957 296.411521,277.412957 C296.211521,277.812957 296.011521,278.012957 295.911521,278.312957 C293.011521,272.712957 290.811521,267.112957 290.611521,257.712957 C290.711521,257.712957 290.811521,257.812957 290.911521,257.812957 C291.111521,257.512957 290.711521,257.712957 290.811521,256.412957 C290.911521,256.312957 290.911521,256.212957 291.011521,256.112957 C291.211521,256.312957 291.411521,256.212957 291.711521,256.212957 C291.811521,256.412957 292.011521,256.612957 292.111521,256.812957 C291.711521,257.112957 291.911521,257.412957 293.211521,258.712957 C292.811521,258.912957 292.311521,259.012957 291.911521,259.112957 C292.011521,260.812957 291.911521,262.512957 293.911521,262.912957 C294.111521,264.212957 295.311521,264.212957 294.211521,266.112957 C294.411521,266.712957 294.411521,267.312957 294.911521,267.412957 Z M304.911521,270.712957 C304.811521,270.312957 304.811521,269.912957 304.811521,269.412957 C305.211521,270.012957 304.911521,269.512957 304.911521,270.712957 Z M313.811521,269.412957 C314.911521,270.212957 313.711521,270.412957 311.911521,269.812957 C311.411521,269.412957 311.711521,268.812957 312.611521,268.512957 C312.711521,268.912957 313.111521,269.312957 313.811521,269.412957 Z M311.011521,258.212957 C310.811521,258.612957 310.411521,258.512957 310.311521,258.512957 C310.011521,258.812957 314.211521,262.012957 310.811521,263.312957 C311.011521,262.512957 310.211521,262.512957 309.911521,257.112957 C310.611521,257.412957 310.711521,257.812957 311.011521,258.212957 Z M315.011521,253.512957 C315.011521,254.212957 317.311521,253.712957 316.411521,256.812957 C315.311521,256.312957 315.311521,256.612957 314.311521,253.512957 C314.811521,253.412957 314.911521,253.412957 315.011521,253.512957 Z M309.011521,251.712957 C308.911521,251.912957 308.711521,251.912957 308.511521,252.012957 C308.411521,251.712957 308.211521,251.412957 308.111521,251.112957 C308.511521,251.112957 309.211521,250.512957 309.011521,251.712957 Z M307.011521,246.112957 C307.011521,246.212957 307.011521,246.312957 306.911521,246.312957 C306.911521,246.212957 306.811521,246.112957 306.811521,246.012957 C306.911521,246.012957 307.011521,246.112957 307.011521,246.112957 Z M305.411521,240.012957 C305.511521,240.412957 305.811521,240.912957 305.611521,241.312957 C305.511521,240.712957 305.611521,241.312957 305.111521,239.812957 C305.311521,239.812957 305.411521,239.912957 305.411521,240.012957 Z M295.611521,203.912957 C296.111521,204.612957 295.211521,204.212957 297.511521,207.612957 C294.311521,209.412957 301.811521,216.912957 300.211521,219.312957 C301.411521,224.312957 302.711521,225.612957 304.611521,237.712957 C304.711521,237.912957 305.711521,238.312957 305.011521,239.512957 C304.811521,238.712957 303.911521,238.312957 302.511521,230.112957 C301.911521,229.912957 301.511521,229.812957 300.911521,229.612957 C301.411521,229.012957 301.411521,228.512957 301.411521,227.912957 C300.911521,228.312957 301.311521,229.512957 300.111521,229.812957 C299.111521,225.112957 296.611521,215.912957 294.211521,206.212957 C294.311521,206.212957 294.511521,206.112957 294.611521,206.012957 C294.711521,205.312957 295.111521,204.612957 294.011521,204.412957 C294.711521,203.212957 294.811521,202.912957 295.611521,203.112957 C295.611521,203.312957 295.511521,203.612957 295.611521,203.912957 Z M225.011521,40.3129574 C224.911521,40.2129574 224.811521,40.2129574 224.811521,40.0129574 C224.811521,40.2129574 224.911521,40.2129574 225.011521,40.3129574 Z M214.211521,32.2129574 C214.111521,32.0129574 214.011521,31.8129574 213.811521,31.6129574 C214.211521,31.8129574 214.211521,32.0129574 214.211521,32.2129574 Z M204.911521,28.8129574 C204.811521,28.8129574 204.811521,28.9129574 204.711521,28.9129574 C204.511521,28.6129574 204.311521,28.6129574 203.411521,27.1129574 C204.211521,27.0129574 204.311521,27.3129574 204.911521,28.8129574 Z M173.211521,11.0129574 C173.011521,10.8129574 173.011521,10.6129574 173.011521,10.4129574 C174.211521,11.1129574 175.011521,12.3129574 176.011521,13.2129574 C174.911521,13.0129574 174.511521,13.0129574 173.211521,11.0129574 Z M181.411521,20.6129574 C180.811521,19.6129574 179.811521,18.6129574 177.811521,16.2129574 C179.411521,17.2129574 181.311521,19.6129574 183.211521,23.6129574 C182.511521,22.6129574 182.011521,21.5129574 181.411521,20.6129574 Z M184.311521,25.1129574 C184.411521,25.1129574 184.511521,25.1129574 184.511521,25.1129574 C184.811521,24.7129574 184.311521,24.4129574 184.511521,24.1129574 C185.911521,23.8129574 185.911521,23.8129574 186.711521,25.7129574 C186.611521,26.1129574 186.211521,25.4129574 185.511521,26.5129574 C185.311521,26.1129574 185.411521,26.1129574 184.311521,25.1129574 Z M189.811521,59.3129574 C190.011521,59.5129574 190.111521,59.7129574 190.111521,60.0129574 C190.111521,60.1129574 190.011521,60.1129574 189.911521,60.2129574 C189.911521,59.9129574 189.811521,59.6129574 189.811521,59.3129574 Z M193.511521,69.6129574 C194.211521,71.2129574 195.611521,72.4129574 195.711521,74.3129574 C193.211521,71.8129574 192.811521,71.3129574 193.511521,69.6129574 Z M196.111521,74.9129574 C196.211521,75.0129574 196.211521,75.1129574 196.311521,75.2129574 C196.211521,75.4129574 196.011521,75.3129574 196.211521,75.8129574 C196.311521,75.8129574 196.411521,75.7129574 196.511521,75.7129574 C196.511521,75.9129574 196.311521,76.0129574 195.911521,76.2129574 C195.511521,75.6129574 195.911521,75.3129574 196.111521,74.9129574 Z M265.211521,270.312957 C265.311521,270.212957 266.411521,270.812957 265.311521,271.012957 C265.311521,271.012957 265.311521,271.012957 265.311521,271.012957 C264.911521,270.812957 265.011521,270.512957 265.211521,270.312957 Z M264.911521,271.112957 C265.011521,270.912957 265.111521,271.012957 265.211521,271.012957 C265.311521,270.912957 265.111521,271.612957 264.911521,271.112957 Z M267.111521,285.412957 C267.711521,285.212957 266.011521,284.212957 267.711521,283.212957 C268.411521,284.012957 268.811521,284.912957 268.511521,286.212957 C267.711521,286.412957 267.011521,286.112957 267.111521,285.412957 Z M275.711521,291.312957 C276.011521,289.912957 274.711521,290.712957 274.211521,285.612957 C274.311521,285.612957 274.311521,285.612957 274.411521,285.612957 C274.511521,285.812957 274.611521,286.012957 274.711521,286.112957 C274.811521,286.112957 274.911521,286.112957 275.011521,286.012957 C275.411521,286.712957 275.811521,287.412957 276.311521,288.112957 C274.811521,288.112957 275.611521,289.112957 276.011521,292.112957 C275.711521,291.912957 275.711521,291.612957 275.711521,291.312957 Z M274.311521,317.512957 C273.911521,317.112957 273.611521,317.612957 273.211521,317.512957 C272.711521,316.712957 272.911521,315.612957 273.811521,314.912957 C274.411521,314.312957 276.711521,321.712957 274.311521,317.512957 Z" id="Shape" fill-opacity="0.798677885" fill="#C6D7FF" fill-rule="nonzero"></path>
                <g id="Group" transform="translate(206.000000, 162.000000)" fill="#407BFF" fill-opacity="0.59765625" fill-rule="nonzero">
                    <path d="M27.3114754,17.442623 C27.0819672,16.6393443 27.0819672,16.1803279 27.0819672,16.0655738 C27.1967213,15.7213115 27.4262295,15.3770492 27.5409836,15.2622951 C28.2295082,14.6885246 28.9180328,14.4590164 29.6065574,14.2295082 C30.6393443,13.8852459 31.6721311,13.6557377 32.704918,13.3114754 C32.8196721,13.3114754 33.0491803,13.4262295 33.1639344,13.5409836 C33.3934426,13.6557377 33.6229508,13.7704918 33.852459,13.6557377 C34.5409836,13.4262295 35.2295082,12.9672131 35.9180328,12.6229508 C36.0327869,12.5081967 36.147541,12.3934426 36.2622951,12.3934426 C36.3770492,12.3934426 36.4918033,12.3934426 36.6065574,12.3934426 C36.7213115,12.3934426 36.8360656,12.7377049 37.0655738,13.3114754 C37.1803279,13.7704918 37.295082,14.3442623 37.295082,14.4590164 C37.295082,14.8032787 37.1803279,14.9180328 37.1803279,14.9180328 C36.4918033,14.9180328 36.147541,15.6065574 35.5737705,15.8360656 C35.1147541,16.0655738 34.6557377,16.5245902 34.1967213,16.9836066 C33.7377049,17.442623 33.1639344,17.557377 32.4754098,17.442623 C32.3606557,17.442623 32.1311475,17.557377 32.0163934,17.557377 L31.0983607,18.0163934 C30.5245902,18.3606557 29.8360656,18.704918 29.147541,18.8196721 C29.0327869,18.8196721 28.9180328,18.9344262 28.6885246,18.9344262 C28.5737705,18.8196721 28.3442623,18.5901639 28,18.0163934 C27.8852459,17.6721311 27.7704918,17.7868852 27.6557377,17.6721311 C27.6557377,17.557377 27.5409836,17.557377 27.3114754,17.442623 Z" id="Path"></path>
                    <path d="M29.7213115,27.3114754 C29.7213115,26.6229508 29.8360656,26.1639344 29.9508197,26.0491803 C30.1803279,25.704918 30.5245902,25.4754098 30.7540984,25.2459016 C31.6721311,24.7868852 32.5901639,24.557377 33.3934426,24.442623 C34.6557377,24.2131148 35.9180328,24.0983607 37.1803279,23.8688525 C37.295082,23.8688525 37.5245902,24.0983607 37.7540984,24.0983607 C37.9836066,24.2131148 38.3278689,24.442623 38.557377,24.3278689 C39.3606557,24.0983607 40.1639344,23.6393443 40.9672131,23.1803279 C41.0819672,23.0655738 41.1967213,22.9508197 41.4262295,22.8360656 C41.5409836,22.8360656 41.6557377,22.7213115 41.7704918,22.8360656 C41.8852459,22.8360656 42.1147541,23.1803279 42.3442623,23.8688525 C42.5737705,24.442623 42.6885246,25.0163934 42.6885246,25.3606557 C42.6885246,25.704918 42.5737705,25.9344262 42.4590164,25.9344262 C41.6557377,25.9344262 41.0819672,26.7377049 40.2786885,27.0819672 C39.5901639,27.4262295 39.0163934,27.8852459 38.442623,28.3442623 C37.7540984,28.8032787 36.9508197,28.9180328 36.147541,28.6885246 C35.9180328,28.5737705 35.8032787,28.6885246 35.5737705,28.8032787 C35.1147541,28.9180328 34.6557377,29.0327869 34.3114754,29.147541 C33.3934426,29.3770492 32.4754098,29.6065574 31.557377,29.4918033 C31.2131148,29.4918033 30.7540984,29.6065574 30.5245902,28.2295082 C30.4098361,27.7704918 30.295082,27.8852459 30.1803279,27.6557377 C29.9508197,27.5409836 29.8360656,27.4262295 29.7213115,27.3114754 Z" id="Path"></path>
                    <path d="M37.6393443,37.9836066 C37.6393443,37.0655738 37.6393443,36.4918033 37.7540984,36.3770492 C37.8688525,36.0327869 38.0983607,35.6885246 38.2131148,35.5737705 C38.7868852,35.2295082 39.2459016,34.7704918 39.704918,34.6557377 C40.3934426,34.4262295 41.1967213,34.3114754 41.8852459,34.1967213 C42,34.1967213 42.1147541,34.4262295 42.2295082,34.5409836 C42.4590164,34.6557377 42.5737705,34.8852459 42.8032787,34.8852459 C43.2622951,34.6557377 43.7213115,34.3114754 44.1803279,33.9672131 C44.295082,33.852459 44.295082,33.7377049 44.4098361,33.7377049 C44.5245902,33.7377049 44.5245902,33.7377049 44.6393443,33.852459 C44.7540984,33.9672131 44.8688525,34.3114754 45.2131148,35.1147541 C45.442623,35.6885246 45.557377,36.4918033 45.6721311,36.7213115 C45.6721311,37.0655738 45.6721311,37.295082 45.557377,37.295082 C44.9836066,37.1803279 44.7540984,37.9836066 44.295082,38.2131148 C43.9508197,38.442623 43.6065574,38.9016393 43.2622951,39.3606557 C42.9180328,39.8196721 42.3442623,39.8196721 41.7704918,39.5901639 C41.6557377,39.4754098 41.5409836,39.5901639 41.4262295,39.5901639 C41.1967213,39.704918 40.852459,39.8196721 40.6229508,39.9344262 C40.0491803,40.1639344 39.5901639,40.3934426 39.0163934,40.2786885 C38.7868852,40.2786885 38.557377,40.5081967 38.3278689,39.0163934 C38.2131148,38.557377 38.2131148,38.6721311 38.0983607,38.557377 C37.8688525,38.2131148 37.7540984,38.0983607 37.6393443,37.9836066 Z" id="Path"></path>
                    <path d="M32.2459016,45.0983607 C32.2459016,44.4098361 32.2459016,43.9508197 32.3606557,43.8360656 C32.5901639,43.4918033 32.9344262,43.2622951 33.1639344,43.147541 C34.0819672,42.8032787 35,42.5737705 35.9180328,42.4590164 C36.6065574,42.3442623 37.1803279,42.3442623 37.8688525,42.2295082 L39.8196721,42 C39.9344262,42 40.1639344,42.2295082 40.2786885,42.3442623 C40.5081967,42.4590164 40.852459,42.6885246 41.0819672,42.6885246 C42,42.4590164 42.8032787,42.2295082 43.7213115,41.8852459 C43.9508197,41.7704918 44.0655738,41.6557377 44.1803279,41.6557377 C44.295082,41.6557377 44.4098361,41.6557377 44.5245902,41.7704918 C44.6393443,41.8852459 44.7540984,42.2295082 44.8688525,43.0327869 C44.9836066,43.6065574 44.9836066,44.295082 44.9836066,44.5245902 C44.9836066,44.8688525 44.8688525,45.0983607 44.6393443,44.9836066 C43.8360656,44.8688525 43.147541,45.557377 42.3442623,45.7868852 C41.6557377,46.0163934 41.0819672,46.3606557 40.3934426,46.704918 C39.704918,47.1639344 38.9016393,47.0491803 38.0983607,46.8196721 C37.8688525,46.704918 37.7540984,46.8196721 37.5245902,46.8196721 L36.2622951,47.0491803 C35.4590164,47.1639344 34.5409836,47.3934426 33.7377049,47.2786885 C33.3934426,47.2786885 33.0491803,47.5081967 32.704918,46.1311475 C32.5901639,45.7868852 32.4754098,45.7868852 32.3606557,45.6721311 C32.5901639,45.3278689 32.3606557,45.2131148 32.2459016,45.0983607 Z" id="Path"></path>
                    <path d="M13.8852459,28.8032787 C13.4262295,28 13.3114754,27.4262295 13.3114754,27.3114754 C13.3114754,27.0819672 13.3114754,26.852459 13.3114754,26.6229508 C13.3114754,26.5081967 13.4262295,26.2786885 13.4262295,26.1639344 C13.6557377,25.8196721 14,25.5901639 14.2295082,25.2459016 C14.5737705,25.0163934 14.8032787,24.7868852 15.147541,24.557377 C16.0655738,23.9836066 17.0983607,23.6393443 18.1311475,23.295082 C18.2459016,23.295082 18.4754098,23.5245902 18.5901639,23.5245902 C18.8196721,23.6393443 19.1639344,23.7540984 19.2786885,23.7540984 C19.9672131,23.4098361 20.5409836,23.0655738 21.2295082,22.6065574 C21.3442623,22.4918033 21.4590164,22.3770492 21.5737705,22.2622951 C21.6885246,22.2622951 21.8032787,22.2622951 21.9180328,22.2622951 C22.0327869,22.3770492 22.2622951,22.7213115 22.4918033,23.5245902 C22.6065574,24.0983607 22.8360656,24.9016393 22.8360656,25.1311475 C22.8360656,25.4754098 22.8360656,25.704918 22.7213115,25.704918 C22.0327869,25.5901639 21.6885246,26.3934426 21.2295082,26.7377049 C20.7704918,26.9672131 20.4262295,27.5409836 20.0819672,28 C19.7377049,28.5737705 19.1639344,28.6885246 18.5901639,28.4590164 C18.4754098,28.4590164 18.3606557,28.5737705 18.2459016,28.5737705 C18.0163934,28.8032787 17.7868852,28.9180328 17.442623,29.147541 C16.9836066,29.4918033 16.5245902,30.0655738 15.9508197,30.1803279 C15.7213115,30.295082 15.6065574,30.6393443 14.6885246,29.2622951 C14.4590164,28.9180328 14.3442623,29.0327869 14.2295082,28.9180328 C14.1147541,29.0327869 14,28.9180328 13.8852459,28.8032787 Z" id="Path"></path>
                    <path d="M18.704918,38.9016393 C18.3606557,38.3278689 18.2459016,37.8688525 18.2459016,37.7540984 C18.2459016,37.4098361 18.3606557,37.0655738 18.4754098,36.8360656 C18.9344262,36.147541 19.3934426,35.6885246 20.0819672,35.3442623 C20.8852459,34.8852459 21.8032787,34.5409836 22.7213115,34.3114754 C22.8360656,34.3114754 23.0655738,34.5409836 23.1803279,34.5409836 C23.4098361,34.6557377 23.6393443,34.7704918 23.8688525,34.7704918 C24.442623,34.5409836 25.0163934,34.1967213 25.5901639,33.852459 C25.704918,33.7377049 25.8196721,33.6229508 25.9344262,33.6229508 C26.0491803,33.6229508 26.1639344,33.6229508 26.1639344,33.6229508 C26.2786885,33.7377049 26.3934426,33.9672131 26.5081967,34.7704918 C26.6229508,35.2295082 26.7377049,35.9180328 26.7377049,36.147541 C26.7377049,36.4918033 26.7377049,36.6065574 26.6229508,36.6065574 C26.0491803,36.4918033 25.704918,37.1803279 25.2459016,37.4098361 C24.9016393,37.6393443 24.557377,38.0983607 24.2131148,38.442623 C23.8688525,38.9016393 23.4098361,39.0163934 22.8360656,38.7868852 C22.7213115,38.7868852 22.6065574,38.7868852 22.4918033,38.9016393 C22.2622951,39.0163934 22.0327869,39.2459016 21.8032787,39.3606557 C21.3442623,39.704918 21,40.0491803 20.4262295,40.1639344 C20.1967213,40.1639344 20.0819672,40.5081967 19.3934426,39.3606557 C19.1639344,39.0163934 19.1639344,39.1311475 19.0491803,39.0163934 C19.0491803,39.0163934 18.8196721,38.9016393 18.704918,38.9016393 Z" id="Path"></path>
                    <path d="M15.2622951,50.4918033 C15.4918033,49.8032787 15.6065574,49.3442623 15.7213115,49.2295082 C15.9508197,49 16.1803279,48.7704918 16.295082,48.7704918 C16.6393443,48.6557377 16.8688525,48.6557377 17.0983607,48.5409836 C17.3278689,48.5409836 17.6721311,48.4262295 17.9016393,48.4262295 C18.2459016,48.4262295 18.5901639,48.4262295 18.9344262,48.5409836 L19.9672131,48.6557377 C20.0819672,48.6557377 20.0819672,49 20.1967213,49.1147541 C20.3114754,49.3442623 20.4262295,49.5737705 20.5409836,49.5737705 C21,49.5737705 21.5737705,49.4590164 22.0327869,49.3442623 C22.147541,49.3442623 22.2622951,49.2295082 22.3770492,49.2295082 C22.4918033,49.2295082 22.4918033,49.2295082 22.6065574,49.3442623 C22.6065574,49.4590164 22.6065574,49.8032787 22.6065574,50.6065574 C22.4918033,51.1803279 22.3770492,51.8688525 22.3770492,52.2131148 C22.2622951,52.557377 22.147541,52.6721311 22.147541,52.6721311 C21.8032787,52.3278689 21.2295082,52.9016393 20.7704918,52.9016393 C20.4262295,52.9016393 19.9672131,53.2459016 19.5081967,53.4754098 C19.0491803,53.704918 18.5901639,53.5901639 18.2459016,53.1311475 C18.1311475,53.0163934 18.0163934,53.0163934 17.9016393,53.0163934 C17.6721311,53.0163934 17.442623,53.0163934 17.0983607,53.0163934 C16.6393443,52.9016393 16.0655738,53.0163934 15.6065574,52.7868852 C15.3770492,52.6721311 15.147541,52.7868852 15.3770492,51.5245902 C15.4918033,51.1803279 15.3770492,51.1803279 15.3770492,51.0655738 C15.2622951,50.7213115 15.2622951,50.6065574 15.2622951,50.4918033 Z" id="Path"></path>
                    <path d="M0.918032787,36.6065574 C0.459016393,35.8032787 0.229508197,35.2295082 0.229508197,35.1147541 C0.229508197,34.6557377 0.229508197,34.3114754 0.459016393,34.1967213 C1.03278689,33.7377049 1.60655738,33.2786885 2.29508197,33.0491803 C3.21311475,32.704918 4.24590164,32.5901639 5.27868852,32.5901639 C5.39344262,32.5901639 5.50819672,32.9344262 5.62295082,32.9344262 C5.85245902,33.1639344 5.96721311,33.3934426 6.19672131,33.3934426 C6.8852459,33.3934426 7.57377049,33.2786885 8.26229508,33.3934426 C8.37704918,33.3934426 8.60655738,33.2786885 8.72131148,33.3934426 C8.83606557,33.3934426 8.83606557,33.5081967 8.95081967,33.6229508 C8.95081967,33.7377049 8.95081967,34.0819672 8.72131148,34.8852459 C8.49180328,35.4590164 8.26229508,36.0327869 8.14754098,36.2622951 C8.03278689,36.6065574 7.91803279,36.7213115 7.80327869,36.6065574 C7.45901639,36.2622951 6.8852459,36.7213115 6.54098361,36.8360656 C6.19672131,36.9508197 5.85245902,37.1803279 5.50819672,37.5245902 C5.16393443,37.8688525 4.81967213,37.7540984 4.47540984,37.5245902 C4.36065574,37.4098361 4.24590164,37.5245902 4.24590164,37.5245902 C4.01639344,37.6393443 3.90163934,37.7540984 3.67213115,37.8688525 C3.32786885,38.0983607 2.98360656,38.3278689 2.75409836,38.557377 C2.63934426,38.557377 2.63934426,39.0163934 1.95081967,37.6393443 C1.72131148,37.295082 1.72131148,37.295082 1.60655738,37.295082 C1.14754098,36.8360656 1.03278689,36.7213115 0.918032787,36.6065574 Z" id="Path"></path>
                    <path d="M3.09836066,49.4590164 C2.98360656,48.3114754 2.86885246,47.7377049 2.98360656,47.5081967 C3.09836066,47.1639344 3.21311475,46.704918 3.32786885,46.5901639 C3.55737705,46.3606557 3.78688525,46.2459016 3.90163934,46.0163934 C4.13114754,45.7868852 4.36065574,45.6721311 4.59016393,45.6721311 C5.16393443,45.442623 5.85245902,45.3278689 6.42622951,45.0983607 C6.54098361,45.0983607 6.6557377,45.442623 6.7704918,45.442623 C7,45.557377 7.1147541,45.7868852 7.2295082,45.7868852 C7.68852459,45.557377 8.03278689,45.2131148 8.37704918,44.8688525 C8.49180328,44.7540984 8.49180328,44.6393443 8.60655738,44.6393443 C8.60655738,44.6393443 8.72131148,44.6393443 8.83606557,44.7540984 C8.95081967,44.8688525 9.06557377,45.2131148 9.40983607,46.1311475 C9.63934426,46.704918 9.86885246,47.5081967 9.86885246,47.852459 C9.98360656,48.3114754 9.98360656,48.4262295 9.86885246,48.4262295 C9.40983607,48.1967213 9.18032787,49.1147541 8.83606557,49.3442623 C8.49180328,49.5737705 8.26229508,50.0327869 8.03278689,50.4918033 C7.68852459,50.9508197 7.3442623,51.0655738 6.7704918,50.7213115 C6.6557377,50.6065574 6.54098361,50.7213115 6.42622951,50.8360656 C6.19672131,50.9508197 5.96721311,51.0655738 5.73770492,51.295082 C5.27868852,51.5245902 4.81967213,51.8688525 4.36065574,51.8688525 C4.24590164,51.8688525 4.13114754,51.9836066 4.01639344,51.8688525 C3.90163934,51.7540984 3.78688525,51.4098361 3.55737705,50.4918033 C3.44262295,50.0327869 3.32786885,50.0327869 3.32786885,49.9180328 C3.32786885,49.8032787 3.21311475,49.5737705 3.09836066,49.4590164 Z" id="Path"></path>
                    <path d="M2.29508197,23.4098361 C1.95081967,22.3770492 1.83606557,21.8032787 1.83606557,21.5737705 C1.95081967,21.1147541 1.95081967,20.7704918 2.18032787,20.5409836 C2.75409836,19.9672131 3.32786885,19.5081967 4.01639344,19.2786885 C4.93442623,18.8196721 5.85245902,18.4754098 6.8852459,18.1311475 C7,18.1311475 7.2295082,18.3606557 7.3442623,18.3606557 C7.57377049,18.4754098 7.91803279,18.5901639 8.03278689,18.4754098 C8.60655738,18.1311475 9.18032787,17.6721311 9.75409836,17.2131148 C9.86885246,17.0983607 9.98360656,16.9836066 10.0983607,16.8688525 C10.2131148,16.8688525 10.3278689,16.7540984 10.442623,16.8688525 C10.557377,16.9836066 10.7868852,17.2131148 11.1311475,18.0163934 C11.3606557,18.5901639 11.5901639,19.2786885 11.704918,19.5081967 C11.8196721,19.852459 11.704918,20.0819672 11.704918,20.0819672 C11.0163934,20.0819672 10.7868852,20.8852459 10.3278689,21.3442623 C9.86885246,21.6885246 9.52459016,22.2622951 9.18032787,22.7213115 C8.83606557,23.295082 8.26229508,23.5245902 7.57377049,23.295082 C7.3442623,23.295082 7.2295082,23.4098361 7.1147541,23.4098361 C6.8852459,23.6393443 6.54098361,23.8688525 6.31147541,23.9836066 C5.73770492,24.3278689 5.16393443,24.9016393 4.59016393,25.0163934 C4.36065574,25.1311475 4.13114754,25.5901639 3.44262295,23.9836066 C3.21311475,23.5245902 3.09836066,23.6393443 2.98360656,23.5245902 C2.63934426,23.6393443 2.52459016,23.4098361 2.29508197,23.4098361 Z" id="Path"></path>
                    <path d="M10.6721311,12.0491803 C10.6721311,11.1311475 10.6721311,10.557377 10.7868852,10.442623 C10.9016393,10.2131148 11.0163934,10.0983607 11.0163934,9.86885246 C11.1311475,9.75409836 11.2459016,9.63934426 11.2459016,9.52459016 C11.5901639,9.29508197 11.8196721,9.18032787 12.1639344,9.06557377 C12.5081967,8.95081967 12.7377049,8.83606557 13.0819672,8.72131148 C13.8852459,8.49180328 14.8032787,8.37704918 15.6065574,8.14754098 C15.7213115,8.14754098 15.9508197,8.37704918 16.0655738,8.49180328 C16.295082,8.60655738 16.5245902,8.83606557 16.7540984,8.72131148 C17.3278689,8.37704918 17.7868852,8.03278689 18.3606557,7.68852459 C18.4754098,7.57377049 18.4754098,7.45901639 18.5901639,7.3442623 C18.704918,7.3442623 18.704918,7.3442623 18.8196721,7.3442623 C18.9344262,7.3442623 19.1639344,7.68852459 19.5081967,8.37704918 C19.7377049,8.83606557 20.0819672,9.52459016 20.0819672,9.75409836 C20.1967213,10.0983607 20.1967213,10.2131148 20.0819672,10.2131148 C19.3934426,10.2131148 19.1639344,11.1311475 18.704918,11.4754098 C18.2459016,11.8196721 17.9016393,12.2786885 17.442623,12.852459 C16.9836066,13.4262295 16.4098361,13.5409836 15.7213115,13.3114754 C15.6065574,13.3114754 15.3770492,13.3114754 15.2622951,13.4262295 C14.9180328,13.5409836 14.5737705,13.7704918 14.2295082,13.8852459 C13.5409836,14.2295082 12.852459,14.4590164 12.1639344,14.4590164 C12.0491803,14.4590164 11.8196721,14.5737705 11.704918,14.4590164 C11.5901639,14.3442623 11.3606557,14 11.2459016,13.1967213 C11.1311475,12.7377049 11.0163934,12.7377049 11.0163934,12.6229508 C10.9016393,12.2786885 10.7868852,12.1639344 10.6721311,12.0491803 Z" id="Path"></path>
                    <path d="M27.5409836,5.73770492 C27.5409836,4.70491803 27.6557377,4.13114754 27.6557377,3.90163934 C27.7704918,3.55737705 27.8852459,3.21311475 28.1147541,3.09836066 C28.5737705,2.75409836 28.9180328,2.52459016 29.2622951,2.29508197 C29.4918033,2.18032787 29.8360656,2.06557377 30.0655738,1.95081967 C30.295082,1.83606557 30.6393443,1.72131148 30.8688525,1.60655738 C30.9836066,1.60655738 31.0983607,1.83606557 31.2131148,1.83606557 C31.442623,1.95081967 31.6721311,2.06557377 31.7868852,1.95081967 C32.1311475,1.60655738 32.3606557,1.14754098 32.4754098,0.803278689 C32.4754098,0.68852459 32.4754098,0.573770492 32.4754098,0.459016393 C32.4754098,0.459016393 32.5901639,0.344262295 32.704918,0.459016393 C32.8196721,0.459016393 33.1639344,0.68852459 33.7377049,1.26229508 C34.1967213,1.60655738 34.7704918,2.18032787 34.8852459,2.40983607 C35.1147541,2.75409836 35.2295082,2.86885246 35.1147541,2.86885246 C34.5409836,3.09836066 34.6557377,3.90163934 34.3114754,4.36065574 C34.0819672,4.81967213 33.852459,5.27868852 33.6229508,5.85245902 C33.3934426,6.42622951 32.704918,6.6557377 32.1311475,6.54098361 C32.0163934,6.54098361 31.9016393,6.6557377 31.7868852,6.6557377 C31.557377,6.8852459 31.2131148,7 30.9836066,7.2295082 C30.4098361,7.57377049 29.7213115,7.91803279 29.0327869,7.91803279 C28.8032787,7.91803279 28.4590164,8.26229508 28.2295082,6.6557377 C28.1147541,6.19672131 28.1147541,6.19672131 28,6.08196721 C27.7704918,5.96721311 27.6557377,5.85245902 27.5409836,5.73770492 Z" id="Path"></path>
                    <path d="M47.5081967,12.1639344 C46.8196721,11.2459016 46.3606557,10.6721311 46.3606557,10.557377 C46.2459016,10.2131148 46.1311475,9.86885246 46.1311475,9.75409836 C46.2459016,9.29508197 46.3606557,8.95081967 46.5901639,8.72131148 C46.9344262,8.37704918 47.2786885,8.03278689 47.7377049,7.68852459 C47.7377049,7.68852459 47.9672131,7.91803279 48.0819672,7.91803279 C48.3114754,8.03278689 48.5409836,8.14754098 48.5409836,8.03278689 C48.7704918,7.80327869 48.8852459,7.3442623 49.1147541,7 C49.1147541,6.8852459 49.1147541,6.7704918 49.1147541,6.7704918 C49.1147541,6.7704918 49.2295082,6.7704918 49.3442623,6.7704918 C49.4590164,6.8852459 49.6885246,7.1147541 50.147541,7.80327869 C50.4918033,8.26229508 50.9508197,8.95081967 51.0655738,9.06557377 C51.295082,9.40983607 51.295082,9.52459016 51.295082,9.52459016 C50.9508197,9.40983607 51.0655738,10.0983607 50.9508197,10.442623 C50.8360656,10.6721311 50.8360656,11.1311475 50.8360656,11.5901639 C50.8360656,12.0491803 50.6065574,12.1639344 50.147541,12.0491803 C50.0327869,12.0491803 50.0327869,12.0491803 50.0327869,12.1639344 C49.9180328,12.2786885 49.9180328,12.5081967 49.8032787,12.6229508 C49.6885246,12.9672131 49.5737705,13.3114754 49.3442623,13.5409836 C49.2295082,13.6557377 49.4590164,14 48.3114754,12.7377049 C47.9672131,12.3934426 47.9672131,12.5081967 47.852459,12.3934426 C47.7377049,12.2786885 47.6229508,12.1639344 47.5081967,12.1639344 Z" id="Path"></path>
                    <path d="M47.7377049,22.6065574 C47.2786885,21.9180328 47.1639344,21.4590164 47.1639344,21.3442623 C47.1639344,21.1147541 47.1639344,20.8852459 47.1639344,20.5409836 C47.1639344,20.3114754 47.2786885,20.1967213 47.3934426,20.0819672 C47.7377049,19.6229508 48.0819672,19.2786885 48.4262295,18.9344262 C48.7704918,18.5901639 49.2295082,18.3606557 49.6885246,18.1311475 C50.9508197,17.442623 52.2131148,16.9836066 53.4754098,16.5245902 C53.5901639,16.5245902 53.9344262,16.7540984 54.0491803,16.7540984 C54.3934426,16.8688525 54.7377049,16.9836066 54.9672131,16.8688525 C55.7704918,16.5245902 56.6885246,16.0655738 57.4918033,15.6065574 C57.7213115,15.4918033 57.8360656,15.3770492 57.9508197,15.2622951 C58.0655738,15.2622951 58.1803279,15.2622951 58.295082,15.2622951 C58.4098361,15.3770492 58.6393443,15.7213115 58.8688525,16.5245902 C58.9836066,17.0983607 59.0983607,17.9016393 59.0983607,18.1311475 C59.0983607,18.4754098 58.9836066,18.704918 58.8688525,18.704918 C58.0655738,18.5901639 57.6065574,19.3934426 56.9180328,19.852459 C56.3442623,20.1967213 55.8852459,20.6557377 55.4262295,21.2295082 C54.9672131,21.8032787 54.2786885,22.0327869 53.4754098,21.9180328 C53.2459016,21.9180328 53.1311475,22.0327869 53.0163934,22.147541 C52.6721311,22.3770492 52.3278689,22.6065574 52.0983607,22.8360656 C51.7540984,23.0655738 51.5245902,23.295082 51.1803279,23.5245902 C50.8360656,23.7540984 50.6065574,23.9836066 50.147541,24.0983607 C49.8032787,24.2131148 49.6885246,24.6721311 48.6557377,23.295082 C48.4262295,22.9508197 48.3114754,23.0655738 48.0819672,22.9508197 C48.1967213,22.7213115 47.9672131,22.7213115 47.7377049,22.6065574 Z" id="Path"></path>
                    <path d="M51.8688525,35.4590164 C51.0655738,34.8852459 50.6065574,34.5409836 50.6065574,34.3114754 C50.4918033,33.7377049 50.6065574,33.1639344 50.8360656,32.8196721 C51.295082,32.2459016 51.8688525,31.7868852 52.442623,31.3278689 C53.0163934,30.9836066 53.5901639,30.7540984 54.1639344,30.5245902 C54.9672131,30.295082 55.7704918,30.1803279 56.4590164,30.0655738 L58.5245902,29.8360656 C58.6393443,29.8360656 58.8688525,30.1803279 59.0983607,30.1803279 C59.3278689,30.295082 59.6721311,30.6393443 59.9016393,30.5245902 C60.8196721,30.295082 61.7377049,30.0655738 62.6557377,29.7213115 C62.8852459,29.7213115 63,29.4918033 63.2295082,29.4918033 C63.3442623,29.4918033 63.4590164,29.4918033 63.5737705,29.6065574 C63.6885246,29.7213115 63.8032787,30.0655738 63.9180328,30.9836066 C64.0327869,31.6721311 64.0327869,32.4754098 63.9180328,32.704918 C63.8032787,33.1639344 63.6885246,33.2786885 63.5737705,33.2786885 C62.7704918,33.0491803 62.0819672,33.852459 61.3934426,34.0819672 C60.704918,34.3114754 60.1311475,34.7704918 59.557377,35.2295082 C58.8688525,35.6885246 58.1803279,35.6885246 57.3770492,35.4590164 C57.147541,35.3442623 57.0327869,35.4590164 56.8032787,35.4590164 C56.4590164,35.5737705 56.1147541,35.6885246 55.7704918,35.9180328 C55.4262295,36.0327869 55.1967213,36.2622951 54.9672131,36.3770492 C54.7377049,36.4918033 54.5081967,36.7213115 54.3934426,36.7213115 C54.2786885,36.7213115 54.2786885,36.8360656 54.1639344,36.8360656 C54.0491803,36.7213115 53.8196721,36.4918033 53.1311475,35.9180328 C52.7868852,35.5737705 52.7868852,35.6885246 52.557377,35.6885246 C52.2131148,35.5737705 51.9836066,35.4590164 51.8688525,35.4590164 Z" id="Path"></path>
                    <path d="M57.6065574,49.6885246 C57.3770492,48.5409836 57.3770492,47.9672131 57.3770492,47.7377049 C57.4918033,47.3934426 57.4918033,47.0491803 57.6065574,46.9344262 C57.9508197,46.5901639 58.1803279,46.2459016 58.4098361,46.0163934 C58.8688525,45.6721311 59.2131148,45.442623 59.557377,45.2131148 C59.557377,45.2131148 59.7868852,45.442623 59.9016393,45.442623 C60.1311475,45.557377 60.3606557,45.6721311 60.3606557,45.557377 C60.5901639,45.2131148 60.704918,44.8688525 60.704918,44.4098361 C60.704918,44.295082 60.704918,44.1803279 60.704918,44.1803279 C60.704918,44.1803279 60.8196721,44.0655738 60.9344262,44.1803279 C61.0491803,44.1803279 61.3934426,44.4098361 62.0819672,44.8688525 C62.5409836,45.2131148 63.2295082,45.6721311 63.3442623,45.9016393 C63.5737705,46.1311475 63.6885246,46.3606557 63.5737705,46.3606557 C63.1147541,46.4754098 63.3442623,47.2786885 63.1147541,47.7377049 C62.8852459,48.0819672 62.8852459,48.6557377 62.7704918,49.2295082 C62.6557377,49.8032787 62.1967213,50.0327869 61.5081967,49.9180328 C61.3934426,49.9180328 61.2786885,50.0327869 61.1639344,50.147541 C60.9344262,50.3770492 60.704918,50.6065574 60.4754098,50.7213115 C60.0163934,51.0655738 59.557377,51.5245902 58.9836066,51.6393443 C58.7540984,51.7540984 58.5245902,52.2131148 58.0655738,50.6065574 C57.9508197,50.147541 57.8360656,50.2622951 57.7213115,50.147541 C57.7213115,49.9180328 57.6065574,49.8032787 57.6065574,49.6885246 Z" id="Path"></path>
                    <path d="M33.0491803,56.9180328 C33.0491803,55.7704918 33.0491803,55.1967213 33.1639344,54.9672131 C33.3934426,54.6229508 33.6229508,54.2786885 33.852459,54.1639344 C34.6557377,53.8196721 35.4590164,53.4754098 36.2622951,53.3606557 C37.4098361,53.1311475 38.557377,53.0163934 39.5901639,52.7868852 C39.704918,52.7868852 39.9344262,53.0163934 40.0491803,53.1311475 C40.2786885,53.2459016 40.6229508,53.4754098 40.852459,53.4754098 C41.6557377,53.2459016 42.3442623,52.9016393 43.0327869,52.557377 C43.147541,52.442623 43.2622951,52.3278689 43.4918033,52.2131148 C43.6065574,52.2131148 43.7213115,52.2131148 43.8360656,52.2131148 C43.9508197,52.3278689 44.1803279,52.6721311 44.4098361,53.4754098 C44.5245902,54.0491803 44.7540984,54.852459 44.7540984,55.0819672 C44.7540984,55.4262295 44.6393443,55.6557377 44.5245902,55.6557377 C43.7213115,55.5409836 43.2622951,56.3442623 42.5737705,56.6885246 C42,56.9180328 41.4262295,57.4918033 40.9672131,57.9508197 C40.3934426,58.5245902 39.704918,58.5245902 38.9016393,58.1803279 C38.6721311,58.0655738 38.557377,58.1803279 38.3278689,58.295082 C37.9836066,58.4098361 37.5245902,58.6393443 37.1803279,58.6393443 C36.3770492,58.8688525 35.5737705,59.0983607 34.8852459,59.0983607 C34.5409836,59.0983607 34.1967213,59.442623 33.852459,57.7213115 C33.7377049,57.2622951 33.6229508,57.2622951 33.5081967,57.147541 C33.3934426,57.2622951 33.2786885,57.147541 33.0491803,56.9180328 Z" id="Path"></path>
                    <path d="M26.3934426,67.1311475 C26.7377049,66.0983607 26.9672131,65.6393443 27.0819672,65.5245902 C27.3114754,65.1803279 27.4262295,64.9508197 27.5409836,64.9508197 C27.8852459,64.7213115 28.1147541,64.4918033 28.2295082,64.3770492 C28.3442623,64.2622951 28.4590164,64.2622951 28.5737705,64.147541 L28.8032787,64.0327869 C28.9180328,64.0327869 28.9180328,64.0327869 29.0327869,63.9180328 C29.0327869,63.9180328 29.147541,64.2622951 29.2622951,64.2622951 C29.3770492,64.3770492 29.4918033,64.6065574 29.6065574,64.6065574 C29.8360656,64.3770492 29.8360656,64.147541 29.8360656,63.8032787 C29.8360656,63.8032787 29.8360656,63.5737705 29.8360656,63.5737705 C29.8360656,63.5737705 29.8360656,63.5737705 29.9508197,63.6885246 C30.0655738,63.8032787 30.295082,64.0327869 30.9836066,64.7213115 C31.442623,65.1803279 31.9016393,65.8688525 32.1311475,66.0983607 C32.3606557,66.442623 32.3606557,66.557377 32.3606557,66.557377 C31.9016393,66.557377 32.0163934,67.3606557 31.6721311,67.704918 C31.442623,68.0491803 31.2131148,68.5081967 30.9836066,68.9672131 C30.6393443,69.5409836 30.1803279,69.5409836 29.7213115,69.1967213 C29.6065574,69.0819672 29.4918033,69.1967213 29.3770492,69.1967213 C29.147541,69.3114754 28.9180328,69.4262295 28.5737705,69.4262295 C28.1147541,69.5409836 27.5409836,69.6557377 26.9672131,69.5409836 C26.7377049,69.5409836 26.3934426,69.7704918 26.6229508,68.1639344 C26.7377049,67.704918 26.6229508,67.704918 26.6229508,67.5901639 C26.3934426,67.4754098 26.3934426,67.3606557 26.3934426,67.1311475 Z" id="Path"></path>
                </g>
                <path d="M193.322732,352.557035 C199.422732,352.757035 204.822732,356.457035 210.722732,357.457035 C225.522732,359.957035 238.322732,346.157035 253.222732,344.557035 C264.222732,343.357035 274.722732,349.057035 285.722732,349.857035 C304.422732,351.257035 322.422732,338.757035 341.022732,341.357035 C348.122732,342.357035 355.822732,346.957035 356.222732,354.157035 C356.522732,359.757035 352.322732,364.457035 347.922732,367.957035 C327.822732,384.057035 300.722732,387.557035 275.122732,390.457035 C249.722732,393.357035 224.422732,396.257035 199.022732,399.157035 C193.022732,399.857035 187.022732,400.557035 181.122732,399.357035 C170.122732,397.257035 160.622732,386.057035 167.122732,375.057035 C172.522732,365.657035 181.322732,352.157035 193.322732,352.557035 Z" id="Path" fill-opacity="0.296192089" fill="#C6D7FF" fill-rule="nonzero"></path>
                <path d="M13.6258233,271.791862 C16.5258233,264.091862 23.8258233,258.291862 31.9258233,257.191862 C40.0258233,256.091862 48.6258233,259.791862 53.4258233,266.491862 C59.1258233,274.391862 59.1258233,284.891862 59.5258233,294.591862 C59.9258233,304.291862 61.6258233,315.091862 69.2258233,321.191862 C80.6258233,330.391862 98.7258233,324.091862 111.025823,331.991862 C117.425823,336.191862 121.125823,343.791862 121.525823,351.491862 C121.925823,359.091862 119.425823,366.691862 115.525823,373.291862 C105.625823,390.091862 86.5258233,400.991862 67.1258233,400.892544 C44.5258233,400.791862 23.3258233,386.491862 11.9258233,366.991862 C0.425823292,347.491862 -2.07417671,323.691862 1.52582329,301.291862 C2.62582329,294.391862 4.32582329,287.591862 7.52582329,281.391862 C10.7258233,275.191862 15.7258233,269.791862 22.0258233,266.991862" id="Path" fill-opacity="0.484593531" fill="#407BFF" fill-rule="nonzero"></path>
            </g>
        </g>
    </g>
</svg>