<?xml version="1.0" encoding="UTF-8"?>
<svg width="24px" height="24px" viewBox="0 0 24 24" version="1.1" xmlns="http://www.w3.org/2000/svg" xmlns:xlink="http://www.w3.org/1999/xlink">
    <title>C3D1E0BF-57A2-4F79-A8BA-B56CA2D8CD03@1x</title>
    <g id="mobile" stroke="none" stroke-width="1" fill="none" fill-rule="evenodd">
        <g id="Homepage" transform="translate(-28.000000, -56.000000)">
            <g id="ic-notif" transform="translate(28.000000, 56.000000)">
                <rect id="Rectangle" x="0" y="0" width="24" height="24"></rect>
                <g id="bell" transform="translate(4.000000, 2.000000)" fill="#616D89" fill-rule="nonzero">
                    <path d="M15.5156641,15.9161328 C15.456875,15.8779688 15.0144141,15.5680078 14.5713672,14.6303125 C13.7577344,12.9083594 13.5869531,10.4826562 13.5869531,8.75097656 C13.5869531,8.7434375 13.5867969,8.73597656 13.5865234,8.72847656 C13.5776563,6.43984375 12.2072266,4.46695312 10.2461328,3.58175781 L10.2461328,2.22796875 C10.2461328,0.999453125 9.24832031,-2.22044605e-15 8.02183594,-2.22044605e-15 L7.8375,-2.22044605e-15 C6.61101562,-2.22044605e-15 5.61320312,0.999453125 5.61320312,2.22796875 L5.61320312,3.58167969 C3.64554687,4.46972656 2.27238281,6.45269531 2.27238281,8.75097656 C2.27238281,10.4826562 2.10160156,12.9083203 1.28796875,14.6303125 C0.844960937,15.5679687 0.4025,15.8779297 0.343671875,15.9161328 C0.0959375,16.0307812 -0.0262109375,16.295625 0.03078125,16.5640234 C0.0883203125,16.8350781 0.341679687,17.0219531 0.618359375,17.0219531 L4.91316406,17.0219531 C4.93714844,18.6680859 6.28066406,20 7.9296875,20 C9.57871094,20 10.9222266,18.6680859 10.9462109,17.0219531 L15.2410156,17.0219531 C15.5176563,17.0219531 15.7710547,16.8350781 15.8285937,16.5640234 C15.8855078,16.295625 15.7633984,16.0307422 15.5156641,15.9161328 Z M6.78511719,2.22796875 C6.78511719,1.64667969 7.25722656,1.17378906 7.83753906,1.17378906 L8.021875,1.17378906 C8.6021875,1.17378906 9.07429688,1.64667969 9.07429688,2.22796875 L9.07429688,3.20128906 C8.70445313,3.12484375 8.32160156,3.08460937 7.92953125,3.08460937 C7.53757813,3.08460937 7.15484375,3.12480469 6.78515625,3.20117187 L6.78515625,2.22796875 L6.78511719,2.22796875 Z M7.9296875,18.8262109 C6.92683594,18.8262109 6.10882813,18.0208594 6.08503906,17.0219922 L9.77429688,17.0219922 C9.75054687,18.0208203 8.93253906,18.8262109 7.9296875,18.8262109 L7.9296875,18.8262109 Z M10.2890625,15.848125 C10.2889453,15.848125 1.95371094,15.848125 1.95371094,15.848125 C2.05507812,15.6901562 2.15824219,15.5112891 2.26078125,15.3091406 C3.04609375,13.7605859 3.44429687,11.5541016 3.44429687,8.75097656 C3.44429687,6.27375 5.45636719,4.25839844 7.92949219,4.25839844 C10.4026172,4.25839844 12.4146875,6.27375 12.4146875,8.75292969 C12.4146875,8.76015625 12.4148047,8.76734375 12.4150781,8.77453125 C12.4173047,11.5664062 12.8154688,13.7649609 13.5985937,15.3091406 C13.7011328,15.5113281 13.8043359,15.6901562 13.9056641,15.848125 L10.2890625,15.848125 Z" id="Shape"></path>
                </g>
            </g>
        </g>
    </g>
</svg>