<?xml version="1.0" encoding="UTF-8"?>
<svg width="20px" height="20px" viewBox="0 0 20 20" version="1.1" xmlns="http://www.w3.org/2000/svg" xmlns:xlink="http://www.w3.org/1999/xlink">
    <title>4B48F92D-2991-4992-B9B0-115F34DF8DAE@1x</title>
    <g id="mobile" stroke="none" stroke-width="1" fill="none" fill-rule="evenodd">
        <g id="Homepage" transform="translate(-48.000000, -435.000000)">
            <g id="pin" transform="translate(48.000000, 435.000000)">
                <g id="Group-14">
                    <rect id="Rectangle" fill="#FFFFFF" x="0" y="0" width="20" height="20"></rect>
                    <path d="M10.3333438,2 C7.39259375,2 5,4.39259375 5,7.33334375 C5,8.21615625 5.22071875,9.09146875 5.6403125,9.86784375 L10.0416875,17.828125 C10.1002813,17.93425 10.2119375,18 10.3333438,18 C10.45475,18 10.5664063,17.93425 10.625,17.828125 L15.028,9.86521875 C15.4459688,9.09146875 15.6666875,8.216125 15.6666875,7.3333125 C15.6666875,4.39259375 13.2740938,2 10.3333438,2 Z M10.3333438,10 C8.86296875,10 7.6666875,8.80371875 7.6666875,7.33334375 C7.6666875,5.86296875 8.86296875,4.6666875 10.3333438,4.6666875 C11.8037188,4.6666875 13,5.86296875 13,7.33334375 C13,8.80371875 11.8037188,10 10.3333438,10 Z" id="Shape" fill="#407BFF" fill-rule="nonzero"></path>
                </g>
            </g>
        </g>
    </g>
</svg>