<?xml version="1.0" encoding="UTF-8"?>
<svg width="24px" height="24px" viewBox="0 0 24 24" version="1.1" xmlns="http://www.w3.org/2000/svg" xmlns:xlink="http://www.w3.org/1999/xlink">
    <title>B5F8D503-A8B0-4497-82FC-88E03C8AA7CB@1x</title>
    <g id="mobile" stroke="none" stroke-width="1" fill="none" fill-rule="evenodd">
        <g id="Homepage" transform="translate(-271.000000, -273.000000)">
            <g id="Group-7" transform="translate(271.000000, 273.000000)">
                <rect id="Rectangle" fill="#FFFFFF" x="0" y="0" width="24" height="24"></rect>
                <g id="apple-2" transform="translate(2.000000, 2.000000)" fill="#F9686A" fill-rule="nonzero">
                    <path d="M19.4560242,7.35763551 C19.6789551,6.06857301 19.4587707,4.79049684 18.8368225,3.81103516 C18.3403015,3.0291748 17.6106262,2.49816895 16.7822266,2.31582641 C16.2731934,2.2036743 15.7524109,2.22305297 15.2340698,2.3728943 C15.0679016,2.42080687 14.8995972,2.45727539 14.730072,2.48291016 C14.7663879,1.85623168 15.2841187,1.35742187 15.9153748,1.35742187 L16.5119934,1.35742187 L16.5119934,0.185546875 L15.9153748,0.185546875 C15.2458191,0.185546875 14.6409607,0.467376719 14.2111206,0.918579102 C14.1525269,0.840301523 14.0893555,0.767211914 14.021759,0.699920664 C13.6485291,0.328674297 13.1053162,0.0947570703 12.4505615,0.0234985156 C11.9953918,-0.0262451172 11.6384888,0.0177001953 11.5992737,0.0227355859 L11.1479187,0.0819396875 L11.09375,0.533905039 C11.0890198,0.573272695 11.0491943,0.931549062 11.1030579,1.3873291 C11.1451721,1.74453734 11.235199,2.06787109 11.3685608,2.34848023 C10.3611755,2.6171875 9.55688477,3.37677 9.11331176,4.45297242 C8.94714355,4.37423707 8.77426148,4.31030273 8.59527586,4.26254273 C8.72848512,3.98193359 8.81866453,3.65859984 8.86077883,3.3013916 C8.91464234,2.84561156 8.87481688,2.4873352 8.87008668,2.44796754 L8.81576539,1.99600219 L8.36456297,1.93679809 C8.32534789,1.93161012 7.96829223,1.88796996 7.51327516,1.93756102 C6.85852051,2.00881957 6.31515504,2.2427368 5.94192504,2.61398316 C5.87432859,2.68127441 5.8113098,2.75436402 5.75271605,2.8326416 C5.32287598,2.38143922 4.71801758,2.09960937 4.04846191,2.09960937 L3.45184328,2.09960937 L3.45184328,3.27148437 L4.04846191,3.27148437 C4.67971801,3.27148437 5.19744875,3.77029418 5.23376465,4.39697266 C5.06423949,4.37133789 4.89593508,4.33502195 4.72991945,4.2869568 C4.21157836,4.13711547 3.69064332,4.11788941 3.18161012,4.22988891 C2.40890504,4.40002441 1.73873902,4.85733031 1.24328613,5.55252074 C0.877227773,6.06597898 0.626983633,6.68228148 0.506286641,7.35763551 L0,7.35763551 L0,19.919281 L20,19.919281 L20,7.35763551 L19.4560242,7.35763551 Z M1.171875,12.203064 L18.828125,12.203064 L18.828125,14.9505615 L1.171875,14.9505615 L1.171875,12.203064 Z M1.171875,11.031189 L1.171875,8.52951051 L18.828125,8.52951051 L18.828125,11.031189 L1.171875,11.031189 Z M13.195343,1.53076172 C13.4294129,1.76361086 13.5231018,2.14767457 13.5539246,2.47467039 C13.5061645,2.47070312 13.4570313,2.46490477 13.4074402,2.45788574 C13.2873535,2.43499758 13.1678772,2.40707398 13.0497742,2.3728943 C13.0380249,2.36953734 13.0264282,2.36648559 13.0148316,2.36328125 C12.8642273,2.30880738 12.7249145,2.23236086 12.6173401,2.12539672 L12.6173401,2.12524414 C12.3832703,1.89254762 12.2894287,1.50833129 12.2587586,1.18133547 C12.5830078,1.20925902 12.9629516,1.29959105 13.195343,1.53076172 Z M11.7533875,3.46023559 C12.059021,3.39309691 12.3747254,3.40377809 12.6922607,3.49044801 C12.848053,3.54187012 13.013916,3.58139039 13.1886291,3.60900879 C13.9749145,3.7586975 14.785614,3.7223816 15.5595398,3.49853516 C15.8879089,3.40362547 16.214447,3.39080812 16.5303039,3.46023559 C17.0593262,3.57666016 17.514801,3.9152527 17.8475952,4.43923949 C18.3378601,5.2114868 18.4918213,6.29959105 18.2623291,7.35763551 L11.1376953,7.35763551 C11.0166931,6.68045043 10.7653809,6.06262207 10.3979492,5.54855348 C10.3033447,5.41610719 10.2023316,5.29266359 10.09552,5.1779175 C10.3852844,4.26147461 10.990448,3.62823484 11.7533875,3.46023559 L11.7533875,3.46023559 Z M6.76849367,3.44482422 C7.00103758,3.21350098 7.38128664,3.12316895 7.7052307,3.09524535 C7.67425539,3.42102051 7.58056641,3.80661012 7.34649656,4.03945922 C7.23892211,4.14642336 7.09960938,4.22302246 6.94885254,4.27749633 C6.93725586,4.2807007 6.92581176,4.28359984 6.91421508,4.2869568 C6.7956543,4.32113648 6.67587281,4.34921266 6.55548094,4.37210082 C6.50619508,4.37911988 6.45751953,4.38476562 6.40991211,4.38888551 C6.44073484,4.06143187 6.53457641,3.67752074 6.76849367,3.44482422 Z M3.43353273,5.37429809 C3.74938965,5.30487062 4.07592773,5.31768797 4.40429688,5.41259766 C5.17837523,5.6364441 5.98937988,5.67276 6.77566527,5.52291871 C6.95022582,5.49530031 7.11608887,5.45578004 7.27157594,5.40435789 C7.58911133,5.31768797 7.90481566,5.30700684 8.21044922,5.37429809 C8.69384766,5.48080445 9.1204834,5.77651977 9.4444275,6.2298584 C9.67391969,6.5510559 9.84191895,6.93389891 9.94186402,7.35763551 L1.70333863,7.35763551 C1.95022582,6.32400512 2.60025023,5.55770875 3.43353273,5.37429809 Z M1.171875,18.747406 L1.171875,16.1224365 L18.828125,16.1224365 L18.828125,18.747406 L1.171875,18.747406 Z" id="Shape"></path>
                    <path d="M2.53540039,9.19372559 C2.22885133,9.19372559 1.93527223,9.46319578 1.94946289,9.77966309 C1.96365355,10.0971985 2.20687867,10.3656006 2.53540039,10.3656006 C2.84194945,10.3656006 3.13552855,10.0961304 3.12133789,9.77966309 C3.10714723,9.4621277 2.86392211,9.19372559 2.53540039,9.19372559 Z" id="Path"></path>
                    <path d="M2.53540039,12.9960632 C2.22885133,12.9960632 1.93527223,13.2655334 1.94946289,13.5820007 C1.96365355,13.8995361 2.20687867,14.1679382 2.53540039,14.1679382 C2.84194945,14.1679382 3.13552855,13.898468 3.12133789,13.5820007 C3.10714723,13.2646179 2.86392211,12.9960632 2.53540039,12.9960632 Z" id="Path"></path>
                    <path d="M2.53540039,16.8569946 C2.22885133,16.8569946 1.93527223,17.1264648 1.94946289,17.4429321 C1.96365355,17.7604675 2.20687867,18.0288696 2.53540039,18.0288696 C2.84194945,18.0288696 3.13552855,17.7593994 3.12133789,17.4429321 C3.10714723,17.1255493 2.86392211,16.8569946 2.53540039,16.8569946 Z" id="Path"></path>
                    <path d="M17.5125122,9.19372559 C17.2059631,9.19372559 16.912384,9.46319578 16.9265747,9.77966309 C16.9407654,10.0971985 17.1839905,10.3656006 17.5125122,10.3656006 C17.8189087,10.3656006 18.1126404,10.0961304 18.0984497,9.77966309 C18.084259,9.4621277 17.8410339,9.19372559 17.5125122,9.19372559 Z" id="Path"></path>
                    <path d="M17.5125122,12.9960632 C17.2059631,12.9960632 16.912384,13.2655334 16.9265747,13.5820007 C16.9407654,13.8995361 17.1839905,14.1679382 17.5125122,14.1679382 C17.8189087,14.1679382 18.1126404,13.898468 18.0984497,13.5820007 C18.084259,13.2646179 17.8410339,12.9960632 17.5125122,12.9960632 Z" id="Path"></path>
                    <path d="M17.5125122,16.8569946 C17.2059631,16.8569946 16.912384,17.1264648 16.9265747,17.4429321 C16.9407654,17.7604675 17.1839905,18.0288696 17.5125122,18.0288696 C17.8189087,18.0288696 18.1126404,17.7593994 18.0984497,17.4429321 C18.084259,17.1255493 17.8410339,16.8569946 17.5125122,16.8569946 Z" id="Path"></path>
                </g>
            </g>
        </g>
    </g>
</svg>