<?xml version="1.0" encoding="UTF-8"?>
<svg width="24px" height="24px" viewBox="0 0 24 24" version="1.1" xmlns="http://www.w3.org/2000/svg" xmlns:xlink="http://www.w3.org/1999/xlink">
    <title>9CC17558-4C55-4984-9C2E-F4FAF1557EA7@1x</title>
    <g id="mobile" stroke="none" stroke-width="1" fill="none" fill-rule="evenodd">
        <g id="Homepage" transform="translate(-203.000000, -273.000000)">
            <g id="Group-6" transform="translate(203.000000, 273.000000)">
                <rect id="Rectangle" fill="#FFFFFF" x="0" y="0" width="24" height="24"></rect>
                <g id="shape" transform="translate(2.000000, 2.000000)" fill="#F9686A" fill-rule="nonzero">
                    <path d="M19.9643275,4.99294347 C19.9591423,3.61493177 18.8378558,2.50202729 17.4598441,2.50721248 C16.4795322,2.51087719 15.5922027,3.08826511 15.1917739,3.98304094 L13.0615595,3.6268616 L12.8532164,4.85758285 L14.9940351,5.21500975 C15.0773489,6.14327485 15.6710721,6.9477193 16.5335283,7.30093567 L15.9259649,11.8838596 C14.6745419,12.0309552 13.7302144,13.0896296 13.7265107,14.3496686 L13.7265107,14.3590253 L6.53493177,16.2553216 C6.15134503,15.571501 5.46729045,15.1090058 4.68978558,15.0077583 L3.41602339,4.81329435 C4.0219883,4.57196881 4.5097076,4.10346979 4.77524366,3.5077193 L6.70335283,3.82959064 L6.908577,2.59949318 L4.97111111,2.27575049 C4.85333333,0.906237817 3.64760234,-0.108499025 2.27808967,0.00931773879 C0.908576998,0.127095517 -0.106159844,1.33278752 0.0116569201,2.70230019 C0.112124756,3.87040936 1.01419103,4.80998051 2.17719298,4.9580117 L3.45220273,15.1506043 C2.17076023,15.6573879 1.54272904,17.1070175 2.04951267,18.38846 C2.5562963,19.6699025 4.00592593,20.2979337 5.28736842,19.7911501 C6.24023392,19.414308 6.86584795,18.4932554 6.86491228,17.468577 L6.86491228,17.4592203 L14.0564912,15.562924 C14.7263548,16.7632359 16.2424172,17.1932554 17.442729,16.5234308 C18.6430409,15.8535673 19.0730604,14.3375049 18.4032359,13.137193 C18.1262378,12.6408187 17.6876413,12.25423 17.1604288,12.0416764 L17.7679922,7.45875244 C19.0181676,7.31021442 19.9608187,6.25192982 19.9643275,4.99294347 Z M2.49844055,3.74538012 C1.8094347,3.74538012 1.25087719,3.18682261 1.25087719,2.49781676 C1.25087719,1.80881092 1.8094347,1.25025341 2.49844055,1.25025341 C3.18744639,1.25025341 3.7460039,1.80881092 3.7460039,2.49781676 C3.7460039,3.18682261 3.18744639,3.74538012 2.49844055,3.74538012 Z M4.36978558,18.7161404 C3.68077973,18.7161404 3.12222222,18.1575828 3.12222222,17.468577 C3.12222222,16.7795712 3.68077973,16.2210136 4.36978558,16.2210136 C5.05879142,16.2210136 5.61734893,16.7795712 5.61734893,17.468577 C5.61734893,18.1575828 5.05879142,18.7161404 4.36978558,18.7161404 Z M17.4692008,14.3496686 C17.4692008,15.0386745 16.9106433,15.597232 16.2216374,15.597232 C15.5326316,15.597232 14.9740741,15.0386745 14.9740741,14.3496686 C14.9740741,13.6606628 15.5326316,13.1021053 16.2216374,13.1021053 C16.9106433,13.1021053 17.4692008,13.6606628 17.4692008,14.3496686 Z M16.2216374,4.99294347 C16.2216374,4.30393762 16.7801949,3.74538012 17.4692008,3.74538012 C18.1582066,3.74538012 18.7167641,4.30393762 18.7167641,4.99294347 C18.7167641,5.68194932 18.1582066,6.24050682 17.4692008,6.24050682 C16.7801949,6.24050682 16.2216374,5.68194932 16.2216374,4.99294347 Z" id="Shape"></path>
                    <rect id="Rectangle" transform="translate(11.113204, 3.934164) rotate(9.473625) translate(-11.113204, -3.934164) " x="10.4893981" y="3.31035808" width="1.24761208" height="1.24761208"></rect>
                    <rect id="Rectangle" transform="translate(8.648410, 3.523113) rotate(9.485871) translate(-8.648410, -3.523113) " x="8.02464465" y="2.89934836" width="1.24753012" height="1.24753012"></rect>
                </g>
            </g>
        </g>
    </g>
</svg>