<?xml version="1.0" encoding="UTF-8"?>
<svg width="360px" height="560px" viewBox="0 0 360 560" version="1.1" xmlns="http://www.w3.org/2000/svg" xmlns:xlink="http://www.w3.org/1999/xlink">
    <title>9EF2DC03-0BFB-4964-BAA7-756808F58940@1x</title>
    <defs>
        <linearGradient x1="50%" y1="0%" x2="50%" y2="100%" id="linearGradient-1">
            <stop stop-color="#EDFAFF" offset="0%"></stop>
            <stop stop-color="#FFFFFF" offset="100%"></stop>
        </linearGradient>
    </defs>
    <g id="mobile" stroke="none" stroke-width="1" fill="none" fill-rule="evenodd">
        <g id="Splash-Screen">
            <g id="Group-2">
                <path d="M0,0 C34.898816,9.19231094 59.5934869,36.436189 74.0840127,81.7316343 C88.5745385,127.027079 124.074509,145.714956 180.583923,137.795265 C228.765625,128.392604 263.805673,133.491847 285.704067,153.092996 C307.602461,172.694144 332.367772,198.339359 360,230.028641 L360,560 L0,560 L0,0 Z" id="Path" fill="url(#linearGradient-1)"></path>
                <g id="3959413" transform="translate(0.000000, 215.000000)">
                    <g id="Background_Complete" fill-rule="nonzero">
                        <g id="Group" fill="#EBEBEB">
                            <rect id="Rectangle" x="0" y="235.728" width="360" height="1"></rect>
                            <rect id="Rectangle" x="300.096" y="247.32" width="23.832" height="1"></rect>
                            <rect id="Rectangle" x="232.2" y="249.264" width="6.264" height="1"></rect>
                            <rect id="Rectangle" x="285.552" y="240.624" width="13.824" height="1"></rect>
                            <rect id="Rectangle" x="37.8" y="241.848" width="31.104" height="1"></rect>
                            <rect id="Rectangle" x="75.312" y="241.848" width="4.536" height="1"></rect>
                            <rect id="Rectangle" x="94.68" y="244.872" width="67.464" height="1"></rect>
                            <path d="M170.64,203.616 L31.608,203.616 C29.376,203.616 27.504,201.744 27.504,199.512 L27.504,4.104 C27.504,1.872 29.376,0 31.608,0 L170.64,0 C172.872,0 174.744,1.872 174.744,4.104 L174.744,199.512 C174.744,201.744 172.944,203.616 170.64,203.616 Z M31.608,0.144 C29.448,0.144 27.648,1.872 27.648,4.104 L27.648,199.512 C27.648,201.672 29.376,203.472 31.608,203.472 L170.64,203.472 C172.8,203.472 174.6,201.744 174.6,199.512 L174.6,4.104 C174.6,1.944 172.872,0.144 170.64,0.144 L31.608,0.144 Z" id="Shape"></path>
                            <path d="M326.376,203.616 L187.344,203.616 C185.112,203.616 183.24,201.744 183.24,199.512 L183.24,4.104 C183.24,1.872 185.112,0 187.344,0 L326.376,0 C328.608,0 330.48,1.872 330.48,4.104 L330.48,199.512 C330.48,201.744 328.68,203.616 326.376,203.616 Z M187.344,0.144 C185.184,0.144 183.384,1.872 183.384,4.104 L183.384,199.512 C183.384,201.672 185.112,203.472 187.344,203.472 L326.376,203.472 C328.536,203.472 330.336,201.744 330.336,199.512 L330.336,4.104 C330.336,1.944 328.608,0.144 326.376,0.144 L187.344,0.144 Z" id="Shape"></path>
                        </g>
                        <g id="Group" transform="translate(31.680000, 8.640000)">
                            <g transform="translate(0.720000, 0.000000)" id="Path">
                                <path d="M73.008,35.064 C73.008,30.528 69.336,26.928 64.872,26.928 C64.08,26.928 63.288,27.072 62.496,27.288 C62.64,26.496 62.712,25.632 62.712,24.768 C62.712,15.192 55.008,7.488 45.432,7.488 C44.352,7.488 43.272,7.56 42.264,7.776 C39.6,3.456 34.848,0.504 29.376,0.504 C21.096,0.504 14.4,7.128 14.256,15.408 C14.184,15.408 14.112,15.408 14.04,15.408 C6.336,15.408 0.144,21.672 0.144,29.304 C0.144,37.008 6.408,43.2 14.04,43.2 L65.16,43.2 L65.16,43.2 C69.48,43.056 73.008,39.456 73.008,35.064 Z" fill="#F0F0F0"></path>
                                <polygon fill="#E0E0E0" points="43.056 47.232 43.056 31.32 30.024 31.32 30.024 47.232 19.512 47.232 36.504 61.632 53.568 47.232"></polygon>
                            </g>
                            <g transform="translate(231.120000, 12.240000)" id="Path">
                                <path d="M38.376,18.504 C38.376,16.2 36.504,14.256 34.128,14.256 C33.696,14.256 33.264,14.328 32.904,14.4 C32.976,13.968 32.976,13.536 32.976,13.104 C32.976,8.136 28.944,4.176 24.048,4.176 C23.472,4.176 22.968,4.248 22.392,4.32 C21.024,2.088 18.576,0.576 15.696,0.576 C11.448,0.576 7.92,4.032 7.848,8.28 C7.776,8.28 7.776,8.28 7.704,8.28 C3.744,8.28 0.504,11.52 0.504,15.48 C0.504,19.44 3.744,22.68 7.704,22.68 L34.2,22.68 L34.2,22.68 C36.504,22.608 38.376,20.808 38.376,18.504 Z" fill="#F0F0F0"></path>
                                <polygon fill="#E0E0E0" points="16.128 18.792 16.128 27.072 22.824 27.072 22.824 18.792 28.296 18.792 19.512 11.376 10.656 18.792"></polygon>
                            </g>
                            <g transform="translate(0.000000, 79.200000)">
                                <rect id="Rectangle" fill="#FAFAFA" transform="translate(37.178273, 30.487730) rotate(-12.462931) translate(-37.178273, -30.487730) " x="5.10345001" y="6.47661166" width="64.1496456" height="48.0222375"></rect>
                                <rect id="Rectangle" fill="#E0E0E0" transform="translate(37.213373, 30.385814) rotate(-12.462931) translate(-37.213373, -30.385814) " x="8.34243242" y="9.57857807" width="57.7418808" height="41.6144727"></rect>
                                <polygon id="Path" fill="#EBEBEB" points="68.76 39.024 69.984 44.496 13.536 57.024 9.144 37.224 18.576 24.48 39.6 37.512 47.232 28.8"></polygon>
                                <g transform="translate(44.640000, 12.960000)" fill="#EBEBEB" id="Path">
                                    <path d="M9.288,3.672 C9.864,6.192 8.28,8.64 5.76,9.216 C3.24,9.792 0.792,8.208 0.216,5.688 C-0.36,3.168 1.224,0.72 3.744,0.144 C6.264,-0.432 8.712,1.152 9.288,3.672 Z"></path>
                                    <path d="M9.288,3.672 C9.864,6.192 8.28,8.64 5.76,9.216 C3.24,9.792 0.792,8.208 0.216,5.688 C-0.36,3.168 1.224,0.72 3.744,0.144 C6.264,-0.432 8.712,1.152 9.288,3.672 Z" opacity="0.3"></path>
                                </g>
                            </g>
                            <g transform="translate(17.280000, 146.160000)" id="Rectangle">
                                <g transform="translate(9.360000, 20.160000)">
                                    <rect fill="#EBEBEB" transform="translate(26.608378, 31.045907) rotate(15.645557) translate(-26.608378, -31.045907) " x="6.6273078" y="4.98051124" width="39.9621396" height="52.1307911"></rect>
                                    <g transform="translate(7.920000, 8.640000)" fill="#E0E0E0">
                                        <rect transform="translate(23.351846, 5.791543) rotate(15.647102) translate(-23.351846, -5.791543) " x="9.34844508" y="4.38760322" width="28.0068026" height="2.80787996"></rect>
                                        <rect transform="translate(21.984689, 10.533110) rotate(15.647102) translate(-21.984689, -10.533110) " x="7.98128748" y="9.12917042" width="28.0068026" height="2.80787996"></rect>
                                        <rect transform="translate(20.686860, 15.293952) rotate(15.647102) translate(-20.686860, -15.293952) " x="6.68345868" y="13.890012" width="28.0068026" height="2.80787996"></rect>
                                        <rect transform="translate(19.319918, 20.035519) rotate(15.647102) translate(-19.319918, -20.035519) " x="5.31651708" y="18.6315792" width="28.0068026" height="2.80787996"></rect>
                                        <rect transform="translate(18.022162, 24.796433) rotate(15.647102) translate(-18.022162, -24.796433) " x="4.01876028" y="23.3924928" width="28.0068026" height="2.80787996"></rect>
                                        <rect transform="translate(16.654788, 29.537928) rotate(15.647102) translate(-16.654788, -29.537928) " x="2.65138668" y="28.133988" width="28.0068026" height="2.80787996"></rect>
                                        <rect transform="translate(15.357031, 34.298842) rotate(15.647102) translate(-15.357031, -34.298842) " x="1.35362988" y="32.8949016" width="28.0068026" height="2.80787996"></rect>
                                        <rect transform="translate(9.283979, 37.683680) rotate(15.647102) translate(-9.283979, -37.683680) " x="0.212366636" y="36.2797404" width="18.1432243" height="2.80787996"></rect>
                                    </g>
                                </g>
                                <g>
                                    <rect fill="#FAFAFA" transform="translate(26.604662, 30.913931) rotate(15.645557) translate(-26.604662, -30.913931) " x="6.6235926" y="4.84853524" width="39.9621396" height="52.1307911"></rect>
                                    <g transform="translate(7.920000, 8.640000)" fill="#E0E0E0">
                                        <rect transform="translate(23.279738, 5.642179) rotate(15.647102) translate(-23.279738, -5.642179) " x="9.27633708" y="4.23823922" width="28.0068026" height="2.80787996"></rect>
                                        <rect transform="translate(21.981982, 10.403165) rotate(15.647102) translate(-21.981982, -10.403165) " x="7.97858028" y="8.99922482" width="28.0068026" height="2.80787996"></rect>
                                        <rect transform="translate(20.614680, 15.144660) rotate(15.647102) translate(-20.614680, -15.144660) " x="6.61127868" y="13.74072" width="28.0068026" height="2.80787996"></rect>
                                        <rect transform="translate(19.317067, 19.905574) rotate(15.647102) translate(-19.317067, -19.905574) " x="5.31366588" y="18.5016336" width="28.0068026" height="2.80787996"></rect>
                                        <rect transform="translate(17.949910, 24.647069) rotate(15.647102) translate(-17.949910, -24.647069) " x="3.94650828" y="23.2431288" width="28.0068026" height="2.80787996"></rect>
                                        <rect transform="translate(16.651937, 29.407982) rotate(15.647102) translate(-16.651937, -29.407982) " x="2.64853548" y="28.0040424" width="28.0068026" height="2.80787996"></rect>
                                        <rect transform="translate(15.284851, 34.149550) rotate(15.647102) translate(-15.284851, -34.149550) " x="1.28144988" y="32.7456096" width="28.0068026" height="2.80787996"></rect>
                                        <rect transform="translate(9.210719, 37.534316) rotate(15.647102) translate(-9.210719, -37.534316) " x="0.139106636" y="36.1303764" width="18.1432243" height="2.80787996"></rect>
                                    </g>
                                </g>
                            </g>
                            <g transform="translate(225.360000, 67.680000)" fill="#E0E0E0" id="Path">
                                <path d="M62.064,14.04 C57.96,10.872 52.416,0.288 52.488,0.288 L47.088,37.368 C47.232,36.504 43.92,35.568 41.76,35.208 C36.432,34.416 31.824,36.72 31.32,40.32 C30.816,43.92 34.776,47.448 40.104,48.24 C45.432,49.032 49.968,46.656 50.472,43.056 C50.544,42.48 50.112,41.904 50.184,41.4 L54.36,12.816 C54.36,12.816 57.168,16.632 61.992,19.152 C65.952,21.168 67.248,26.784 67.248,26.784 C67.248,26.784 68.472,18.936 62.064,14.04 Z"></path>
                                <path d="M21.672,31.968 C18.864,29.736 15.048,22.464 15.048,22.464 L11.304,48.024 C11.376,47.448 9.144,46.728 7.632,46.512 C3.96,46.008 0.792,47.592 0.432,50.04 C0.072,52.56 2.808,55.008 6.48,55.512 C10.152,56.016 13.248,54.432 13.68,51.984 C13.752,51.624 13.464,51.192 13.536,50.832 L16.416,31.104 C16.416,31.104 18.36,33.768 21.672,35.496 C24.408,36.864 25.272,40.752 25.272,40.752 C25.272,40.752 26.064,35.352 21.672,31.968 Z"></path>
                            </g>
                            <g transform="translate(218.880000, 167.760000)" id="Path">
                                <path d="M26.784,5.4 L24.84,3.816 C24.12,3.24 23.184,3.024 22.32,3.312 L12.384,6.192 C11.52,6.408 10.872,7.128 10.656,7.92 L10.008,10.224 C9.792,11.088 9.144,11.736 8.28,11.952 L2.376,13.68 C0.936,14.112 0.216,15.552 0.72,16.92 L12.168,49.536 C12.672,50.904 14.184,51.768 15.624,51.336 L62.64,37.8 C64.08,37.368 64.8,35.928 64.296,34.56 L52.848,1.944 C52.344,0.576 50.832,-0.288 49.392,0.144 L29.376,5.904 C28.44,6.192 27.504,5.976 26.784,5.4 Z" fill="#E0E0E0"></path>
                                <path d="M54.936,2.016 L11.88,14.4 C10.08,14.904 8.928,16.848 9.288,18.648 L14.976,48.096 C15.336,49.896 17.064,50.976 18.864,50.472 L61.92,38.088 C63.72,37.584 64.872,35.64 64.512,33.84 L58.824,4.392 C58.464,2.52 56.664,1.44 54.936,2.016 Z" fill="#E6E6E6"></path>
                            </g>
                        </g>
                    </g>
                    <g id="Shadow_1_" transform="translate(40.320000, 251.280000)" fill="#F5F5F5" fill-rule="nonzero">
                        <ellipse id="_x3C_Path_x3E__359_" cx="139.68" cy="8.784" rx="139.608" ry="8.136"></ellipse>
                    </g>
                    <g id="Gears" transform="translate(179.280000, 51.120000)" fill-rule="nonzero">
                        <g id="Group">
                            <g id="Path">
                                <path d="M144.792,81.36 C144.792,122.328 113.832,155.592 75.816,155.592 C37.8,155.592 6.84,122.256 6.84,81.36 C6.84,40.392 37.8,7.128 75.816,7.128 C99.288,7.128 120.816,19.728 133.632,40.896 L128.592,44.28 L141.84,48.384 L144.072,33.984 L139.32,37.152 C125.28,13.896 101.592,2.04636308e-14 75.816,2.04636308e-14 C34.128,2.04636308e-14 0.144,36.504 0.144,81.432 C0.144,126.36 34.056,162.864 75.816,162.864 C117.504,162.864 151.488,126.36 151.488,81.432 L144.792,81.432 L144.792,81.36 Z" fill="#407BFF"></path>
                                <path d="M144.792,81.36 C144.792,122.328 113.832,155.592 75.816,155.592 C37.8,155.592 6.84,122.256 6.84,81.36 C6.84,40.392 37.8,7.128 75.816,7.128 C99.288,7.128 120.816,19.728 133.632,40.896 L128.592,44.28 L141.84,48.384 L144.072,33.984 L139.32,37.152 C125.28,13.896 101.592,2.04636308e-14 75.816,2.04636308e-14 C34.128,2.04636308e-14 0.144,36.504 0.144,81.432 C0.144,126.36 34.056,162.864 75.816,162.864 C117.504,162.864 151.488,126.36 151.488,81.432 L144.792,81.432 L144.792,81.36 Z" fill="#FFFFFF" opacity="0.7"></path>
                            </g>
                            <g transform="translate(28.800000, 30.240000)" id="Shape">
                                <g fill="#407BFF">
                                    <path d="M57.168,35.712 L57.168,25.92 L52.488,25.416 C51.84,22.104 50.616,19.08 49.032,16.344 L52.056,12.456 L45.648,5.544 L42.048,8.784 C39.528,6.984 36.72,5.688 33.624,5.04 L33.192,2.04636308e-14 L24.12,2.04636308e-14 L23.688,5.04 C20.664,5.688 17.784,7.056 15.264,8.784 L11.664,5.544 L5.256,12.456 L8.28,16.344 C6.624,19.08 5.4,22.104 4.824,25.416 L0.144,25.92 L0.144,35.712 L4.824,36.216 C5.472,39.528 6.696,42.552 8.28,45.288 L5.256,49.176 L11.664,56.088 L15.264,52.848 C17.784,54.648 20.592,55.944 23.688,56.592 L24.12,61.632 L33.12,61.632 L33.552,56.592 C36.576,55.944 39.456,54.576 41.976,52.848 L45.576,56.088 L51.984,49.176 L48.96,45.288 C50.616,42.552 51.84,39.528 52.416,36.216 L57.168,35.712 Z M28.584,44.064 C21.816,44.064 16.272,38.16 16.272,30.816 C16.272,23.472 21.816,17.568 28.584,17.568 C35.352,17.568 40.896,23.472 40.896,30.816 C40.896,38.16 35.352,44.064 28.584,44.064 Z"></path>
                                    <path d="M94.032,63.36 L94.032,55.656 L90.36,55.296 C89.856,52.704 88.92,50.328 87.624,48.24 L90,45.144 L84.96,39.744 L82.08,42.264 C80.136,40.896 77.904,39.816 75.528,39.312 L75.168,35.352 L68.04,35.352 L67.68,39.312 C65.304,39.816 63.072,40.896 61.128,42.264 L58.248,39.744 L53.208,45.144 L55.584,48.24 C54.288,50.328 53.352,52.776 52.848,55.296 L49.176,55.656 L49.176,63.36 L52.848,63.72 C53.352,66.312 54.288,68.688 55.584,70.776 L53.208,73.872 L58.248,79.272 L61.128,76.752 C63.072,78.12 65.304,79.128 67.68,79.704 L68.04,83.664 L75.168,83.664 L75.528,79.704 C77.904,79.2 80.136,78.12 82.08,76.752 L84.96,79.272 L90,73.872 L87.624,70.776 C88.92,68.688 89.856,66.24 90.36,63.72 L94.032,63.36 Z M71.64,69.912 C66.312,69.912 61.992,65.232 61.992,59.544 C61.992,53.784 66.312,49.176 71.64,49.176 C76.968,49.176 81.288,53.856 81.288,59.544 C81.288,65.304 76.968,69.912 71.64,69.912 Z"></path>
                                    <path d="M57.168,85.176 L57.168,78.768 L54.072,78.48 C53.64,76.32 52.848,74.304 51.768,72.504 L53.712,69.912 L49.464,65.376 L47.088,67.536 C45.432,66.384 43.56,65.52 41.544,65.088 L41.256,61.776 L35.28,61.776 L34.992,65.088 C32.976,65.52 31.104,66.384 29.448,67.536 L27.072,65.376 L22.824,69.912 L24.768,72.504 C23.688,74.304 22.896,76.32 22.464,78.48 L19.368,78.768 L19.368,85.176 L22.464,85.464 C22.896,87.624 23.688,89.64 24.768,91.44 L22.824,94.032 L27.072,98.568 L29.448,96.408 C31.104,97.56 32.976,98.424 34.992,98.856 L35.28,102.168 L41.256,102.168 L41.544,98.856 C43.56,98.424 45.432,97.56 47.088,96.408 L49.464,98.568 L53.712,94.032 L51.84,91.44 C52.92,89.64 53.712,87.624 54.144,85.464 L57.168,85.176 Z M38.376,90.648 C33.912,90.648 30.24,86.76 30.24,81.936 C30.24,77.112 33.84,73.224 38.376,73.224 C42.84,73.224 46.512,77.112 46.512,81.936 C46.44,86.76 42.84,90.648 38.376,90.648 Z"></path>
                                </g>
                                <g fill="#FFFFFF">
                                    <path d="M57.168,35.712 L57.168,25.92 L52.488,25.416 C51.84,22.104 50.616,19.08 49.032,16.344 L52.056,12.456 L45.648,5.544 L42.048,8.784 C39.528,6.984 36.72,5.688 33.624,5.04 L33.192,2.04636308e-14 L24.12,2.04636308e-14 L23.688,5.04 C20.664,5.688 17.784,7.056 15.264,8.784 L11.664,5.544 L5.256,12.456 L8.28,16.344 C6.624,19.08 5.4,22.104 4.824,25.416 L0.144,25.92 L0.144,35.712 L4.824,36.216 C5.472,39.528 6.696,42.552 8.28,45.288 L5.256,49.176 L11.664,56.088 L15.264,52.848 C17.784,54.648 20.592,55.944 23.688,56.592 L24.12,61.632 L33.12,61.632 L33.552,56.592 C36.576,55.944 39.456,54.576 41.976,52.848 L45.576,56.088 L51.984,49.176 L48.96,45.288 C50.616,42.552 51.84,39.528 52.416,36.216 L57.168,35.712 Z M28.584,44.064 C21.816,44.064 16.272,38.16 16.272,30.816 C16.272,23.472 21.816,17.568 28.584,17.568 C35.352,17.568 40.896,23.472 40.896,30.816 C40.896,38.16 35.352,44.064 28.584,44.064 Z" opacity="0.7"></path>
                                    <path d="M94.032,63.36 L94.032,55.656 L90.36,55.296 C89.856,52.704 88.92,50.328 87.624,48.24 L90,45.144 L84.96,39.744 L82.08,42.264 C80.136,40.896 77.904,39.816 75.528,39.312 L75.168,35.352 L68.04,35.352 L67.68,39.312 C65.304,39.816 63.072,40.896 61.128,42.264 L58.248,39.744 L53.208,45.144 L55.584,48.24 C54.288,50.328 53.352,52.776 52.848,55.296 L49.176,55.656 L49.176,63.36 L52.848,63.72 C53.352,66.312 54.288,68.688 55.584,70.776 L53.208,73.872 L58.248,79.272 L61.128,76.752 C63.072,78.12 65.304,79.128 67.68,79.704 L68.04,83.664 L75.168,83.664 L75.528,79.704 C77.904,79.2 80.136,78.12 82.08,76.752 L84.96,79.272 L90,73.872 L87.624,70.776 C88.92,68.688 89.856,66.24 90.36,63.72 L94.032,63.36 Z M71.64,69.912 C66.312,69.912 61.992,65.232 61.992,59.544 C61.992,53.784 66.312,49.176 71.64,49.176 C76.968,49.176 81.288,53.856 81.288,59.544 C81.288,65.304 76.968,69.912 71.64,69.912 Z" opacity="0.5"></path>
                                    <path d="M57.168,85.176 L57.168,78.768 L54.072,78.48 C53.64,76.32 52.848,74.304 51.768,72.504 L53.712,69.912 L49.464,65.376 L47.088,67.536 C45.432,66.384 43.56,65.52 41.544,65.088 L41.256,61.776 L35.28,61.776 L34.992,65.088 C32.976,65.52 31.104,66.384 29.448,67.536 L27.072,65.376 L22.824,69.912 L24.768,72.504 C23.688,74.304 22.896,76.32 22.464,78.48 L19.368,78.768 L19.368,85.176 L22.464,85.464 C22.896,87.624 23.688,89.64 24.768,91.44 L22.824,94.032 L27.072,98.568 L29.448,96.408 C31.104,97.56 32.976,98.424 34.992,98.856 L35.28,102.168 L41.256,102.168 L41.544,98.856 C43.56,98.424 45.432,97.56 47.088,96.408 L49.464,98.568 L53.712,94.032 L51.84,91.44 C52.92,89.64 53.712,87.624 54.144,85.464 L57.168,85.176 Z M38.376,90.648 C33.912,90.648 30.24,86.76 30.24,81.936 C30.24,77.112 33.84,73.224 38.376,73.224 C42.84,73.224 46.512,77.112 46.512,81.936 C46.44,86.76 42.84,90.648 38.376,90.648 Z" opacity="0.3"></path>
                                </g>
                            </g>
                        </g>
                    </g>
                    <g id="Screen" transform="translate(133.200000, 20.160000)">
                        <g id="Group">
                            <path d="M120.096,3.096 L120.096,221.328 C120.096,223.128 118.656,224.496 116.856,224.496 L15.264,224.496 C14.472,224.496 13.752,224.208 13.248,223.704 C12.744,223.2 12.384,222.408 12.384,221.616 L12.384,2.808 C12.384,1.368 13.464,0.144 14.832,0.144 L43.704,0.144 C44.496,0.144 45.288,0.648 45.576,1.44 L46.8,4.392 C47.088,5.184 47.808,5.688 48.672,5.688 L83.952,5.688 C84.744,5.688 85.536,5.184 85.824,4.392 L87.048,1.44 C87.336,0.648 88.056,0.144 88.92,0.144 L117.36,0.144 C118.872,0.144 120.096,1.512 120.096,3.096 Z" id="Path" fill="#000000" fill-rule="nonzero" opacity="0.1"></path>
                            <g transform="translate(0.000000, 5.760000)">
                                <path d="M102.888,2.808 L102.888,210.168 C102.888,211.896 101.52,213.192 99.792,213.192 L3.312,213.192 C2.52,213.192 1.872,212.904 1.368,212.4 C0.864,211.896 0.576,211.176 0.576,210.384 L0.576,2.52 C0.576,1.152 1.584,0 2.952,0 L30.384,0 C31.176,0 31.824,0.504 32.184,1.224 L33.336,4.032 C33.624,4.752 34.344,5.256 35.136,5.256 L68.688,5.256 C69.48,5.256 70.128,4.752 70.488,4.032 L71.64,1.224 C71.928,0.504 72.648,0 73.44,0 L100.44,0 C101.736,0 102.888,1.296 102.888,2.808 Z" id="Path" fill="#407BFF" fill-rule="nonzero"></path>
                                <text id="E---HARVESTING" font-family="Poppins-SemiBold, Poppins" font-size="10" font-weight="500" fill="#FFFFFF">
                                    <tspan x="13" y="70">E - HARVESTING</tspan>
                                </text>
                                <g transform="translate(5.760000, 4.320000)" fill="#FFFFFF" fill-rule="nonzero" id="Rectangle" opacity="0.6">
                                    <g>
                                        <rect transform="translate(8.232120, 3.114576) rotate(-180.000000) translate(-8.232120, -3.114576) " x="7.51212" y="2.178576" width="1.44" height="1.872"></rect>
                                        <rect transform="translate(5.960952, 2.732544) rotate(-180.000000) translate(-5.960952, -2.732544) " x="5.240952" y="1.472544" width="1.44" height="2.52"></rect>
                                        <rect transform="translate(3.617784, 2.422440) rotate(-180.000000) translate(-3.617784, -2.422440) " x="2.897784" y="0.83844" width="1.44" height="3.168"></rect>
                                        <rect transform="translate(1.274616, 2.112336) rotate(-180.000000) translate(-1.274616, -2.112336) " x="0.554616" y="0.204336" width="1.44" height="3.816"></rect>
                                    </g>
                                    <g transform="translate(82.800000, 0.720000)">
                                        <rect x="0.432" y="0.72" width="1" height="1.872"></rect>
                                        <rect transform="translate(5.180328, 1.655280) rotate(-180.000000) translate(-5.180328, -1.655280) " x="1.796328" y="-0.00072" width="6.768" height="3.312"></rect>
                                    </g>
                                </g>
                                <g transform="translate(15.120000, 114.480000)" fill-rule="nonzero" id="Path">
                                    <path d="M4.176,0.36 L69.048,0.36 C71.064,0.36 72.72,2.016 72.72,4.032 L72.72,4.032 C72.72,6.048 71.064,7.704 69.048,7.704 L4.176,7.704 C2.16,7.704 0.504,6.048 0.504,4.032 L0.504,4.032 C0.504,2.016 2.16,0.36 4.176,0.36 Z" fill="#000000" opacity="0.3"></path>
                                    <path d="M39.528,1.08 C41.184,1.08 42.552,2.448 42.552,4.104 C42.552,5.76 41.184,7.128 39.528,7.128 L4.176,7.128 C2.52,7.128 1.152,5.76 1.152,4.104 C1.152,2.448 2.52,1.08 4.176,1.08 L39.528,1.08 Z" fill="#407BFF"></path>
                                    <path d="M39.528,1.08 C41.184,1.08 42.552,2.448 42.552,4.104 C42.552,5.76 41.184,7.128 39.528,7.128 L4.176,7.128 C2.52,7.128 1.152,5.76 1.152,4.104 C1.152,2.448 2.52,1.08 4.176,1.08 L39.528,1.08 Z" fill="#FFFFFF" opacity="0.3"></path>
                                </g>
                                <g transform="translate(41.760000, 107.280000)" fill="#FFFFFF" fill-rule="nonzero">
                                    <polygon id="Path" points="1.224 5.184 0.36 0.504 1.08 0.504 1.656 4.176 2.232 0.504 2.952 0.504 2.088 5.184"></polygon>
                                    <polygon id="Path" points="3.6 5.184 3.6 0.504 5.616 0.504 5.616 1.224 4.32 1.224 4.32 2.52 5.256 2.52 5.256 3.24 4.32 3.24 4.32 4.536 5.616 4.536 5.616 5.256 3.6 5.256"></polygon>
                                    <path d="M7.2,0.504 C7.56,0.504 7.848,0.648 8.064,0.864 C8.208,1.08 8.28,1.296 8.28,1.656 L8.28,2.304 C8.28,2.664 8.136,2.88 7.92,3.168 L8.424,5.184 L7.632,5.184 L7.2,3.456 C7.2,3.456 7.128,3.456 7.128,3.456 L6.696,3.456 L6.696,5.184 L5.976,5.184 L5.976,0.504 L7.2,0.504 Z M7.632,1.656 C7.632,1.368 7.488,1.224 7.2,1.224 L6.768,1.224 L6.768,2.736 L7.2,2.736 C7.344,2.736 7.416,2.664 7.488,2.592 C7.56,2.52 7.632,2.448 7.632,2.304 L7.632,1.656 Z" id="Shape"></path>
                                    <polygon id="Path" points="8.928 4.536 9.648 4.536 9.648 5.256 8.928 5.256 8.928 4.536"></polygon>
                                    <path d="M10.656,1.872 C10.656,1.44 10.8,1.08 11.016,0.864 C11.232,0.648 11.52,0.576 11.808,0.576 C12.096,0.576 12.384,0.72 12.6,0.936 C12.816,1.152 12.96,1.44 12.96,1.728 C12.96,2.016 12.888,2.376 12.744,2.664 C12.672,2.808 12.456,3.096 12.168,3.528 C12.096,3.672 11.952,3.816 11.808,4.032 L11.664,4.248 C11.592,4.392 11.52,4.464 11.448,4.536 C11.448,4.608 11.448,4.608 11.448,4.608 L12.816,4.608 L12.816,5.328 L10.584,5.328 L10.584,4.68 C10.584,4.68 10.656,4.608 10.728,4.392 C10.8,4.32 10.8,4.248 10.872,4.176 L11.088,3.888 C11.16,3.744 11.376,3.528 11.592,3.168 C11.808,2.88 11.952,2.592 12.096,2.376 C12.168,2.16 12.24,2.016 12.24,1.8 C12.24,1.656 12.168,1.512 12.096,1.44 C12.024,1.368 11.88,1.296 11.736,1.296 C11.52,1.296 11.376,1.44 11.304,1.656 C11.304,1.728 11.232,1.8 11.232,1.944 L11.232,2.088 L10.512,2.088 L10.512,1.872 L10.656,1.872 Z" id="Path"></path>
                                    <polygon id="Path" points="13.392 4.536 14.112 4.536 14.112 5.256 13.392 5.256"></polygon>
                                    <path d="M16.848,4.176 C16.848,4.464 16.704,4.752 16.488,4.968 C16.272,5.184 15.984,5.328 15.696,5.328 C15.408,5.328 15.12,5.184 14.904,4.968 C14.688,4.752 14.544,4.464 14.544,4.176 L14.544,1.656 C14.544,1.368 14.688,1.08 14.904,0.864 C15.12,0.648 15.408,0.504 15.696,0.504 C15.984,0.504 16.272,0.648 16.488,0.864 C16.704,1.08 16.848,1.368 16.848,1.656 L16.848,4.176 Z M16.128,1.584 C16.128,1.44 16.056,1.368 15.984,1.296 C15.912,1.224 15.84,1.152 15.696,1.152 C15.552,1.152 15.48,1.224 15.408,1.296 C15.336,1.368 15.264,1.44 15.264,1.584 L15.264,4.104 C15.264,4.248 15.336,4.32 15.408,4.392 C15.48,4.464 15.552,4.536 15.696,4.536 C15.84,4.536 15.912,4.464 15.984,4.392 C16.056,4.32 16.128,4.248 16.128,4.104 L16.128,1.584 Z" id="Shape"></path>
                                    <path d="M18.216,1.224 L18.216,2.232 C18.288,2.16 18.36,2.088 18.504,2.016 C18.576,2.016 18.648,1.944 18.72,1.944 C19.008,1.944 19.224,2.016 19.368,2.304 C19.512,2.52 19.584,2.736 19.584,3.096 L19.584,4.104 C19.584,4.464 19.44,4.752 19.224,4.968 C19.008,5.184 18.72,5.256 18.432,5.256 C18.144,5.256 17.856,5.112 17.64,4.896 C17.424,4.68 17.352,4.392 17.352,4.104 L17.352,3.96 L18,3.888 L18,4.032 C18,4.248 18.072,4.32 18.216,4.392 C18.288,4.392 18.288,4.392 18.36,4.392 C18.648,4.392 18.792,4.248 18.792,3.96 L18.792,2.808 C18.792,2.664 18.72,2.592 18.648,2.448 C18.576,2.376 18.504,2.376 18.432,2.376 C18.288,2.376 18.216,2.448 18.144,2.52 C18.072,2.592 18.072,2.664 18.072,2.808 L18.072,2.952 L17.352,2.952 L17.352,0.432 L19.44,0.432 L19.44,1.152 L18.216,1.152 L18.216,1.224 Z" id="Path"></path>
                                </g>
                                <path d="M63,139.392 L40.464,139.392 C38.808,139.392 37.512,138.024 37.512,136.44 L37.512,131.616 C37.512,129.96 38.88,128.664 40.464,128.664 L63,128.664 C64.656,128.664 65.952,130.032 65.952,131.616 L65.952,136.44 C65.952,138.024 64.656,139.392 63,139.392 Z" id="Path" fill="#000000" fill-rule="nonzero" opacity="0.2"></path>
                                <g transform="translate(43.200000, 131.040000)" fill="#FFFFFF" fill-rule="nonzero">
                                    <path d="M1.656,4.968 C1.368,4.968 1.08,4.824 0.864,4.608 C0.648,4.392 0.504,4.104 0.504,3.816 L0.504,1.296 C0.504,1.008 0.648,0.72 0.864,0.504 C1.08,0.288 1.368,0.144 1.656,0.144 C1.944,0.144 2.232,0.288 2.448,0.504 C2.664,0.72 2.808,1.008 2.808,1.296 L2.808,1.8 L2.088,1.8 L2.088,1.224 C2.088,1.08 2.016,1.008 1.944,0.936 C1.872,0.864 1.8,0.792 1.656,0.792 C1.512,0.792 1.44,0.864 1.368,0.936 C1.296,1.008 1.224,1.08 1.224,1.224 L1.224,3.816 C1.224,3.96 1.296,4.032 1.368,4.104 C1.44,4.176 1.512,4.248 1.656,4.248 C1.8,4.248 1.872,4.176 1.944,4.104 C2.016,4.032 2.088,3.96 2.088,3.816 L2.088,3.168 L2.808,3.168 L2.808,3.816 C2.808,4.104 2.664,4.392 2.448,4.608 C2.232,4.896 1.944,4.968 1.656,4.968 Z" id="Path"></path>
                                    <path d="M4.032,3.888 L3.888,4.968 L3.168,4.968 L3.96,0.288 L4.896,0.288 L5.688,4.968 L4.968,4.968 L4.824,3.888 L4.032,3.888 Z M4.464,1.368 L4.176,3.24 L4.68,3.24 L4.464,1.368 Z" id="Shape"></path>
                                    <polygon id="Path" points="7.056 0.288 7.992 3.456 7.992 0.288 8.712 0.288 8.712 4.968 7.92 4.968 6.984 1.944 6.984 4.968 6.264 4.968 6.264 0.288"></polygon>
                                    <path d="M10.44,4.968 C10.152,4.968 9.864,4.824 9.648,4.608 C9.432,4.392 9.288,4.104 9.288,3.816 L9.288,1.296 C9.288,1.008 9.432,0.72 9.648,0.504 C9.864,0.288 10.152,0.144 10.44,0.144 C10.728,0.144 11.016,0.288 11.232,0.504 C11.448,0.72 11.592,1.008 11.592,1.296 L11.592,1.8 L10.872,1.8 L10.872,1.224 C10.872,1.08 10.8,1.008 10.728,0.936 C10.656,0.864 10.584,0.792 10.44,0.792 C10.296,0.792 10.224,0.864 10.152,0.936 C10.08,1.008 10.008,1.08 10.008,1.224 L10.008,3.816 C10.008,3.96 10.08,4.032 10.152,4.104 C10.224,4.176 10.296,4.248 10.44,4.248 C10.584,4.248 10.656,4.176 10.728,4.104 C10.8,4.032 10.872,3.96 10.872,3.816 L10.872,3.168 L11.592,3.168 L11.592,3.816 C11.592,4.104 11.448,4.392 11.232,4.608 C11.016,4.896 10.728,4.968 10.44,4.968 Z" id="Path"></path>
                                    <polygon id="Path" points="12.168 4.968 12.168 0.288 14.184 0.288 14.184 1.008 12.888 1.008 12.888 2.304 13.824 2.304 13.824 3.024 12.888 3.024 12.888 4.32 14.184 4.32 14.184 5.04 12.168 5.04"></polygon>
                                    <polygon id="Path" points="16.56 4.968 14.616 4.968 14.616 0.288 15.336 0.288 15.336 4.248 16.56 4.248"></polygon>
                                </g>
                                <g opacity="0.3" transform="translate(18.000000, 177.840000)" fill="#FFFFFF" fill-rule="nonzero" id="Path">
                                    <path d="M59.472,2.088 L7.992,2.088 C7.488,2.088 7.056,1.656 7.056,1.152 L7.056,1.152 C7.056,0.648 7.488,0.216 7.992,0.216 L59.472,0.216 C59.976,0.216 60.408,0.648 60.408,1.152 L60.408,1.152 C60.408,1.656 59.976,2.088 59.472,2.088 Z"></path>
                                    <path d="M66.024,7.56 L1.44,7.56 C0.936,7.56 0.504,7.128 0.504,6.624 L0.504,6.624 C0.504,6.12 0.936,5.688 1.44,5.688 L66.024,5.688 C66.528,5.688 66.96,6.12 66.96,6.624 L66.96,6.624 C66.96,7.128 66.528,7.56 66.024,7.56 Z"></path>
                                    <path d="M52.92,13.032 L14.544,13.032 C14.04,13.032 13.608,12.6 13.608,12.096 L13.608,12.096 C13.608,11.592 14.04,11.16 14.544,11.16 L52.92,11.16 C53.424,11.16 53.856,11.592 53.856,12.096 L53.856,12.096 C53.856,12.6 53.424,13.032 52.92,13.032 Z"></path>
                                    <path d="M66.024,23.976 L1.44,23.976 C0.936,23.976 0.504,23.544 0.504,23.04 L0.504,23.04 C0.504,22.536 0.936,22.104 1.44,22.104 L66.024,22.104 C66.528,22.104 66.96,22.536 66.96,23.04 L66.96,23.04 C66.96,23.544 66.528,23.976 66.024,23.976 Z"></path>
                                </g>
                                <g opacity="0.1" fill="#FFFFFF" fill-rule="nonzero" id="Path">
                                    <path d="M46.584,5.256 L17.136,115.56 L17.136,115.56 L16.776,116.784 L16.776,116.784 L16.272,118.8 L16.272,118.8 L15.912,120.024 L0.504,177.624 L0.504,107.928 L29.304,-2.04636308e-14 L30.24,-2.04636308e-14 C31.032,-2.04636308e-14 31.68,0.504 32.04,1.224 L33.192,4.032 C33.48,4.752 34.2,5.256 34.992,5.256 L46.584,5.256 Z"></path>
                                    <polygon points="102.888 61.56 102.888 131.328 84.528 200.088 84.096 201.816 81.072 213.12 62.424 213.12 65.448 201.816 65.952 199.944 68.4 190.872 68.904 189 69.84 185.4 70.344 183.528 71.28 179.928 71.784 178.056 87.12 120.744 87.12 120.744 87.84 118.08 87.84 118.08"></polygon>
                                    <path d="M56.664,5.256 L27.36,114.912 L27.216,115.56 L25.632,121.536 L25.488,122.184 L1.44,212.328 C0.936,211.824 0.648,211.104 0.648,210.312 L0.648,199.728 L21.384,122.184 L21.528,121.536 L23.112,115.56 L23.256,114.912 L52.56,5.256 L56.664,5.256 Z"></path>
                                </g>
                            </g>
                        </g>
                    </g>
                    <g id="Plant" transform="translate(260.640000, 190.800000)" fill-rule="nonzero">
                        <g id="Group">
                            <g transform="translate(1.440000, 0.000000)" fill="#702D2D" id="Path">
                                <path d="M28.08,26.496 C26.928,24.624 25.056,26.28 25.056,26.28 C25.344,22.608 21.96,20.16 21.96,20.16 C21.96,20.16 25.848,20.16 26.424,16.416 C27,12.672 25.056,14.4 23.256,14.4 C21.456,14.4 19.584,19.584 21.96,22.536 C24.336,25.488 23.688,30.456 18.288,35.28 C16.992,36.432 16.056,38.016 15.48,39.672 C15.912,35.28 16.128,29.016 14.832,24.912 C12.6,17.856 16.848,15.984 18.072,12.456 C19.296,8.928 14.832,5.976 14.832,5.976 C14.832,5.976 19.008,4.104 16.992,1.944 C14.976,-0.216 10.728,0.072 10.728,2.88 C10.728,5.688 13.608,6.768 13.608,6.768 C13.608,6.768 16.848,10.152 16.848,11.952 C16.848,13.68 13.608,17.496 13.608,17.496 C13.608,17.496 15.12,14.256 12.096,14.112 C9.144,13.968 8.136,17.928 9.36,19.656 C10.584,21.384 12.6,19.944 12.6,19.944 C12.6,19.944 12.816,23.76 13.536,26.064 C13.824,27.072 13.68,31.032 13.464,35.208 C12.888,33.696 12.024,32.328 10.8,31.32 C5.4,26.496 4.752,21.528 7.128,18.576 C9.504,15.624 7.632,10.44 5.832,10.44 C4.032,10.44 2.16,8.712 2.664,12.456 C3.24,16.2 7.128,16.2 7.128,16.2 C7.128,16.2 3.816,18.72 4.032,22.32 C4.032,22.32 2.16,20.664 1.008,22.536 C-1.08,25.92 3.744,28.008 4.536,26.352 C4.536,26.352 14.616,33.48 12.24,43.848 L12.816,44.712 C12.744,45.576 12.672,46.08 12.672,46.08 L13.464,45.72 L14.328,47.016 C14.256,49.608 14.544,51.48 14.544,51.48 L16.992,47.88 C14.544,37.584 24.696,30.384 24.696,30.384 C25.344,31.968 30.168,29.88 28.08,26.496 Z"></path>
                            </g>
                            <polygon id="Path" fill="#F9686A" points="27.576 70.488 4.392 70.488 1.872 45.072 30.024 45.072"></polygon>
                            <rect id="Rectangle" fill="#FE999B" x="0.648" y="42.264" width="30.6" height="5.616"></rect>
                        </g>
                    </g>
                    <g id="Character" transform="translate(79.200000, 59.760000)">
                        <g id="Group">
                            <g transform="translate(33.840000, 29.520000)" fill="#F9686A" fill-rule="nonzero" id="Path">
                                <path d="M0.648,0.576 C3.384,0.72 14.832,16.056 14.832,16.056 L19.08,10.512 C19.08,10.512 25.632,23.256 22.392,29.304 C19.152,35.352 2.088,18.792 2.088,18.792 L0.648,0.576 Z"></path>
                            </g>
                            <path d="M35.64,42.408 L35.928,48.384 C35.928,48.384 38.736,51.12 42.264,53.928 C42.624,46.728 35.928,36.288 35.928,36.288 L35.64,42.408 Z" id="Path" fill="#000000" fill-rule="nonzero" opacity="0.2"></path>
                            <path d="M48.672,45.648 L48.096,46.8 L49.896,53.712 C49.896,53.712 45,49.248 48.096,44.856 L48.672,45.648 Z" id="Path" fill="#000000" fill-rule="nonzero" opacity="0.2"></path>
                            <g transform="translate(4.320000, 29.520000)" fill="#F9686A" fill-rule="nonzero" id="Path">
                                <path d="M30.672,39.024 L7.632,40.824 C7.632,40.824 7.344,27.072 5.472,19.872 C4.896,17.568 4.104,14.976 3.168,11.952 C2.736,10.656 2.304,9.288 1.872,7.848 C1.44,6.48 0.936,5.04 0.432,3.6 C3.6,2.592 6.768,1.8 10.08,1.296 C13.536,0.648 16.992,0.288 20.52,0.216 C25.056,0.216 30.24,0.72 30.24,0.72 C30.24,0.72 30.96,0.864 31.464,5.688 C31.752,10.08 31.608,22.68 30.672,39.024 Z"></path>
                            </g>
                            <path d="M6.048,185.112 L9.504,187.128 C9.504,187.128 11.16,184.752 14.76,180.864 L14.76,180.864 C15.768,179.784 16.848,178.632 17.928,177.336 C20.16,174.816 22.536,171.936 24.984,168.84 C25.704,167.904 26.496,166.968 27.216,166.032 C35.928,155.088 45.36,142.2 48.816,133.488 C49.896,130.752 50.472,128.52 50.184,126.792 C49.464,121.608 47.448,113.76 45.144,106.2 C41.616,94.68 37.656,83.664 37.656,83.664 L28.08,100.152 C28.08,100.152 31.032,107.28 33.768,114.84 C36.432,122.256 38.88,130.176 37.944,132.192 C37.872,132.408 37.728,132.624 37.656,132.912 C36.072,136.224 31.608,143.784 26.496,152.208 C25.992,153.072 25.488,153.936 24.984,154.728 C22.248,159.192 19.44,163.8 16.776,167.976 C15.768,169.632 14.76,171.216 13.824,172.728 C9.36,179.928 6.048,185.112 6.048,185.112 Z" id="Path" fill="#EEC1BB" fill-rule="nonzero"></path>
                            <path d="M27.504,166.032 C22.896,171.792 18.504,177.048 15.192,180.864 C14.688,178.488 14.256,175.752 13.896,172.728 C17.712,166.608 22.32,159.12 26.568,152.136 C26.496,155.808 26.64,161.28 27.504,166.032 Z" id="Path" fill="#000000" fill-rule="nonzero" opacity="0.2"></path>
                            <path d="M10.152,118.44 C11.376,126.648 13.104,134.064 14.184,138.528 C14.832,141.192 15.336,142.776 15.336,142.776 C15.264,151.056 15.912,159.912 16.848,167.976 C17.208,171.288 17.64,174.456 18,177.408 C19.512,188.28 21.096,196.128 21.096,196.128 L25.272,195.552 L25.128,168.84 L25.056,154.656 L24.912,135.36 L24.84,131.976 L24.624,117.36 L24.336,95.76 L9.936,89.28 C7.992,97.56 8.712,108.576 10.152,118.44 Z" id="Path" fill="#EEC1BB" fill-rule="nonzero"></path>
                            <path d="M45.36,106.488 L32.832,112.176 C30.456,105.696 28.08,100.152 28.08,100.152 L37.8,83.736 C37.8,83.736 41.76,94.68 45.288,106.272 C45.288,106.344 45.36,106.416 45.36,106.488 Z" id="Path" fill="#000000" fill-rule="nonzero" opacity="0.2"></path>
                            <path d="M24.552,114.192 L9.72,115.128 C8.568,106.128 8.208,96.624 9.936,89.28 L24.336,95.76 L24.552,114.192 Z" id="Path" fill="#000000" fill-rule="nonzero" opacity="0.2"></path>
                            <path d="M6.336,182.808 C6.768,182.52 10.368,187.848 10.368,187.848 C10.368,187.848 9.576,193.464 11.16,197.064 C12.744,200.664 9.648,200.376 7.056,196.92 C4.464,193.464 2.448,190.872 0.576,188.424 C-1.296,186.12 1.944,186.048 6.336,182.808 Z" id="Path" fill="#263238" fill-rule="nonzero"></path>
                            <path d="M11.592,191.952 C10.8,191.736 10.224,189.432 10.152,189 C10.152,189 10.152,188.928 10.152,188.928 L10.152,188.928 L10.152,188.928 C10.152,188.928 10.152,188.928 10.152,188.856 L10.152,188.856 L10.152,188.856 C10.152,188.856 10.152,188.856 10.152,188.784 L10.152,188.784 C10.152,188.784 10.152,188.784 10.152,188.784 L10.152,188.784 L10.152,188.784 L10.152,188.784 C10.152,188.784 10.224,188.784 10.224,188.784 C10.296,188.784 11.808,188.28 12.6,188.784 C12.888,188.928 13.032,189.144 13.104,189.432 C13.176,189.72 13.104,190.008 12.96,190.08 C12.672,190.296 12.096,190.08 11.592,189.864 C11.952,190.296 12.312,190.728 12.312,191.088 C12.312,191.304 12.312,191.448 12.168,191.592 C11.952,191.808 11.808,191.88 11.664,191.88 C11.664,191.952 11.592,191.952 11.592,191.952 Z M11.664,191.592 C11.664,191.592 11.808,191.592 11.952,191.448 C12.024,191.376 12.024,191.304 12.024,191.16 C11.952,190.656 11.16,189.864 10.584,189.36 C10.872,190.368 11.304,191.52 11.664,191.592 Z M10.728,189 C11.592,189.504 12.528,189.936 12.816,189.792 C12.888,189.72 12.888,189.576 12.816,189.504 C12.744,189.288 12.672,189.144 12.456,189.072 C12.24,188.928 11.952,188.928 11.664,188.928 C11.376,188.856 11.016,188.928 10.728,189 Z" id="Shape" fill="#407BFF" fill-rule="nonzero"></path>
                            <path d="M19.584,193.464 C19.584,192.96 26.064,193.32 26.064,193.32 C26.064,193.32 30.024,197.352 33.912,198.288 C37.728,199.224 35.64,201.528 31.32,201.528 C27,201.528 23.76,201.528 20.664,201.528 C17.568,201.528 19.512,198.864 19.584,193.464 Z" id="Path" fill="#263238" fill-rule="nonzero"></path>
                            <path d="M26.784,194.184 C26.784,194.184 26.784,194.184 26.784,194.184 L26.784,194.184 L26.784,194.184 C26.712,194.112 26.712,194.112 26.712,194.112 L26.712,194.112 L26.712,194.112 C26.712,194.112 26.712,194.112 26.712,194.04 L26.712,194.04 L26.712,194.04 C26.712,194.04 26.712,194.04 26.712,194.04 L26.712,194.04 C26.712,194.04 26.712,193.968 26.712,193.968 C26.712,193.896 27.288,192.384 28.152,192.024 C28.44,191.88 28.728,191.952 29.016,192.024 C29.304,192.168 29.448,192.312 29.448,192.6 C29.448,192.96 28.944,193.248 28.44,193.536 C29.016,193.464 29.52,193.464 29.88,193.68 C30.096,193.752 30.168,193.896 30.24,194.112 C30.312,194.472 30.24,194.688 30.096,194.832 C29.952,194.976 29.736,194.976 29.52,194.976 C28.584,194.976 27.144,194.328 26.784,194.184 Z M27.36,194.04 C28.296,194.472 29.52,194.832 29.808,194.544 C29.808,194.544 29.88,194.472 29.88,194.184 C29.88,194.112 29.808,194.04 29.664,193.968 C29.52,193.896 29.232,193.824 28.872,193.824 C28.44,193.896 27.792,193.968 27.36,194.04 Z M28.296,192.312 C27.792,192.528 27.36,193.248 27.216,193.68 C28.152,193.32 29.088,192.816 29.088,192.528 C29.088,192.456 28.944,192.384 28.872,192.312 C28.8,192.24 28.656,192.24 28.584,192.24 C28.44,192.312 28.368,192.312 28.296,192.312 Z" id="Shape" fill="#407BFF" fill-rule="nonzero"></path>
                            <path d="M22.824,34.776 C17.064,34.056 15.408,31.608 15.408,31.608 C17.712,29.376 17.352,26.136 16.704,24.12 C16.416,22.968 15.984,22.248 15.984,22.248 L22.896,23.544 C22.752,24.696 22.608,25.632 22.608,26.424 C22.608,27.288 22.68,28.008 22.824,28.584 C23.328,30.672 24.48,30.672 24.48,30.672 C25.704,32.904 22.824,34.776 22.824,34.776 Z" id="Path" fill="#EEC1BB" fill-rule="nonzero"></path>
                            <path d="M22.68,26.424 C22.68,27.288 22.752,28.008 22.896,28.584 C20.16,28.224 18.072,26.064 16.776,24.12 C16.488,22.968 16.056,22.248 16.056,22.248 L22.968,23.544 C22.752,24.696 22.68,25.632 22.68,26.424 Z" id="Path" fill="#000000" fill-rule="nonzero" opacity="0.2"></path>
                            <g transform="translate(6.480000, 0.000000)" id="Path">
                                <path d="M10.224,0.432 C0.504,1.224 -5.256,26.568 8.496,24.12 C12.528,23.4 29.376,10.512 22.968,5.616 C16.56,0.72 10.224,0.432 10.224,0.432 Z" fill="#263238" fill-rule="nonzero"></path>
                                <path d="M17.352,5.256 C23.256,6.12 24.768,9.576 24.264,15.768 C23.688,23.472 21.24,28.656 14.04,25.992 C4.32,22.248 7.488,3.816 17.352,5.256 Z" fill="#EEC1BB" fill-rule="nonzero"></path>
                                <path d="M20.52,14.832 C20.52,14.832 21.096,16.488 21.888,17.568 C21.888,17.568 21.24,18.288 20.232,18 L20.52,14.832 Z" fill="#D4827D" fill-rule="nonzero"></path>
                                <g transform="translate(15.120000, 12.240000)" fill="#263238" fill-rule="nonzero">
                                    <path d="M1.872,1.584 C1.8,2.088 1.512,2.448 1.152,2.376 C0.792,2.304 0.576,1.944 0.648,1.44 C0.72,0.936 1.008,0.576 1.368,0.648 C1.656,0.648 1.872,1.08 1.872,1.584 Z"></path>
                                    <path d="M1.224,0.648 L2.304,0.36 C2.304,0.36 1.656,1.152 1.224,0.648 Z"></path>
                                </g>
                                <g transform="translate(21.600000, 12.960000)" fill="#263238" fill-rule="nonzero">
                                    <path d="M1.44,1.512 C1.368,2.016 1.08,2.376 0.72,2.304 C0.36,2.232 0.144,1.872 0.216,1.368 C0.288,0.864 0.576,0.504 0.936,0.576 C1.296,0.576 1.512,1.008 1.44,1.512 Z"></path>
                                    <path d="M0.792,0.576 L1.872,0.288 C1.944,0.288 1.296,1.08 0.792,0.576 Z"></path>
                                </g>
                                <path d="M17.496,9.72 C17.496,9.72 15.84,9.288 14.76,10.224" stroke="#263238" stroke-width="0.50976" stroke-linecap="round" stroke-linejoin="round"></path>
                                <path d="M21.816,10.08 C21.816,10.08 22.896,9.864 24.12,10.944" stroke="#263238" stroke-width="0.50976" stroke-linecap="round" stroke-linejoin="round"></path>
                                <path d="M9.432,14.328 C9.432,14.328 12.888,9.864 13.032,6.048 C13.032,6.048 25.488,2.952 24.336,14.976 C24.336,14.976 27,4.536 16.848,2.808 C6.696,1.08 4.536,16.056 9.216,21.24 C9.216,21.168 7.272,17.064 9.432,14.328 Z" fill="#263238" fill-rule="nonzero"></path>
                                <path d="M10.224,15.696 C10.296,14.76 9.576,12.96 7.776,12.888 C5.904,12.816 4.464,16.488 8.928,18.072 C9.576,18.288 10.008,17.712 10.224,15.696 Z" fill="#EEC1BB" fill-rule="nonzero"></path>
                                <path d="M18.936,21.096 C18.936,21.096 16.344,21.312 15.624,18.936" stroke="#263238" stroke-width="0.50976" stroke-linecap="round" stroke-linejoin="round"></path>
                                <path d="M10.224,0.432 C10.224,0.432 18.936,-0.72 24.336,4.536 C29.808,9.792 13.752,8.928 13.752,8.928 L17.784,7.056 C17.784,7.056 12.744,8.496 10.512,7.776 L10.224,0.432 Z" fill="#263238" fill-rule="nonzero"></path>
                                <path d="M3.744,15.912 C3.744,15.912 1.08,20.52 3.744,24.552 C3.744,24.552 1.656,28.872 5.976,31.968 C5.976,31.968 5.184,34.416 8.928,37.296 C8.928,37.296 10.08,41.112 9.144,43.848 L11.88,42.48 C11.88,42.48 11.88,39.096 10.224,37.08 C10.224,37.08 11.088,31.68 8.928,29.88 C8.928,29.88 9.936,26.496 9.504,24.984 C9.504,24.984 8.424,18.576 8.28,17.856 C8.28,17.784 4.608,17.352 3.744,15.912 Z" fill="#263238" fill-rule="nonzero"></path>
                                <path d="M23.544,4.176 C23.544,4.176 26.28,5.688 25.848,7.632 C25.416,9.648 19.008,10.008 19.008,10.008" stroke="#263238" stroke-width="0.5" stroke-linecap="round" stroke-linejoin="round"></path>
                            </g>
                            <g transform="translate(38.160000, 25.920000)" fill-rule="nonzero" id="Path">
                                <path d="M0.504,14.328 C0.432,14.688 0.72,14.976 1.08,14.976 L7.632,14.976 C7.992,14.976 8.352,14.688 8.352,14.328 L9.792,1.368 C9.864,1.008 9.576,0.648 9.216,0.648 L2.664,0.648 C2.304,0.648 1.944,1.008 1.944,1.368 L0.504,14.328 Z" fill="#263238"></path>
                                <path d="M2.664,1.296 L1.152,14.4 C1.08,14.76 1.296,15.048 1.656,15.048 L7.272,15.048 C7.632,15.048 8.352,14.832 8.352,14.472 L9.864,1.296 C9.936,0.936 9.288,0.648 8.928,0.648 L3.312,0.648 C2.952,0.648 2.736,0.936 2.664,1.296 Z" fill="#FFFFFF" opacity="0.5"></path>
                            </g>
                            <path d="M25.848,71.496 C25.848,72.144 26.352,72.648 27,72.648 C27.648,72.648 28.152,72.144 28.152,71.496 C28.152,70.848 27.648,70.344 27,70.344 C26.424,70.344 25.848,70.848 25.848,71.496 Z" id="Path" fill="#FFFFFF" fill-rule="nonzero" opacity="0.6"></path>
                            <path d="M52.416,41.328 L48.96,35.496 C48.96,35.496 48.96,32.472 48.672,31.752 C48.384,31.032 45,29.376 44.352,29.664 C43.704,29.88 43.488,35.928 44.064,36.72 C44.64,37.512 46.8,38.448 46.8,38.448 L46.656,39.6 L48.672,45.648 L52.416,41.328 Z" id="Path" fill="#EEC1BB" fill-rule="nonzero"></path>
                            <polygon id="Path" fill="#FE999B" fill-rule="nonzero" points="53.784 40.68 52.704 39.528 47.304 45.648 48.024 48.024"></polygon>
                            <path d="M47.088,104.472 L29.376,110.736 L28.8,109.152 L28.08,107.136 L27.792,110.016 L27.576,112.248 L6.12,112.248 C6.12,112.248 6.048,111.6 5.976,110.52 C5.76,107.064 5.472,98.856 6.84,89.352 C7.632,83.664 9.072,77.472 11.376,71.64 C11.52,71.208 11.736,70.776 11.952,70.344 L34.992,68.544 L35.208,69.624 L36.648,77.904 L39.384,84.888 L46.152,102.024 L47.088,104.472 Z" id="Path" fill="#702D2D" fill-rule="nonzero"></path>
                            <path d="M26.424,50.4 C26.424,50.4 20.088,64.872 11.88,69.552 C11.808,66.528 11.304,55.584 9.792,49.392 C9.36,47.736 8.856,45.936 8.28,43.92 L10.8,40.896 C10.8,40.896 12.528,46.224 11.736,50.904 L21.312,45.072 L26.424,50.4 Z" id="Path" fill="#000000" fill-rule="nonzero" opacity="0.2"></path>
                            <path d="M20.304,47.088 L28.08,40.968 C28.08,40.968 29.232,37.656 29.736,37.08 C30.24,36.504 37.08,33.984 37.584,33.912 C38.088,33.84 37.584,39.528 36.72,40.464 C35.856,41.4 30.384,43.344 30.384,43.344 L22.248,51.048 L20.304,47.088 Z" id="Path" fill="#EEC1BB" fill-rule="nonzero"></path>
                            <g transform="translate(0.000000, 32.400000)" fill="#F9686A" fill-rule="nonzero" id="Path">
                                <path d="M4.68,0.648 C0.072,2.952 -1.944,28.8 6.048,33.264 C13.968,37.728 25.848,17.568 25.848,17.568 L21.24,12.672 C21.24,12.672 11.592,20.808 10.368,20.016 C9.216,19.296 10.512,11.376 10.512,11.376 C10.512,11.376 11.88,9 9,5.184 C6.192,1.44 4.68,0.648 4.68,0.648 Z"></path>
                            </g>
                            <polygon id="Path" fill="#FE999B" fill-rule="nonzero" points="25.992 51.768 27.36 50.976 22.176 43.344 20.232 44.424"></polygon>
                            <path d="M16.992,72.432 C16.992,72.432 14.4,86.832 6.84,89.352 C7.632,83.664 9.072,77.472 11.376,71.64 L16.992,72.432 Z" id="Path" fill="#000000" fill-rule="nonzero" opacity="0.2"></path>
                            <path d="M39.384,84.888 C33.336,81.936 33.48,70.344 33.48,70.344 L35.208,69.696 L36.648,77.976 L39.384,84.888 Z" id="Path" fill="#000000" fill-rule="nonzero" opacity="0.2"></path>
                            <path d="M27.792,110.016 L27.576,112.248 L6.12,112.248 C6.12,112.248 6.048,111.6 5.976,110.52 L27.792,110.016 Z" id="Path" fill="#000000" fill-rule="nonzero" opacity="0.2"></path>
                            <polygon id="Path" fill="#000000" fill-rule="nonzero" opacity="0.2" points="47.088 104.472 29.448 110.736 28.8 109.152 46.152 102.024"></polygon>
                            <path d="M28.08,107.136 L28.512,101.232 L33.408,91.656 C33.408,91.656 34.92,97.128 32.544,102.096 C30.096,107.064 28.08,107.136 28.08,107.136 Z" id="Path" fill="#000000" fill-rule="nonzero" opacity="0.2"></path>
                            <polygon id="Path" fill="#000000" fill-rule="nonzero" opacity="0.5" points="11.952 70.344 10.944 72.72 35.496 71.496 34.992 68.544"></polygon>
                            <path d="M24.912,69.408 L25.2,72.072 C25.2,72.36 25.488,72.576 25.776,72.576 L29.376,72.288 C29.664,72.288 29.88,72 29.88,71.712 L29.592,69.048 C29.592,68.76 29.304,68.544 29.016,68.544 L25.416,68.76 C25.056,68.832 24.84,69.12 24.912,69.408 Z" id="Path" fill="#C75354" fill-rule="nonzero"></path>
                            <polygon id="Path" fill="#263238" fill-rule="nonzero" points="18.864 69.768 18.576 72.936 17.712 72.936 17.856 69.768"></polygon>
                            <polygon id="Path" fill="#263238" fill-rule="nonzero" points="31.752 68.76 32.112 72.072 32.976 72.072 32.688 68.688"></polygon>
                        </g>
                    </g>
                </g>
            </g>
        </g>
    </g>
</svg>