<?xml version="1.0" encoding="UTF-8"?>
<svg width="24px" height="24px" viewBox="0 0 24 24" version="1.1" xmlns="http://www.w3.org/2000/svg" xmlns:xlink="http://www.w3.org/1999/xlink">
    <title>01F45211-3F02-41A0-A745-0AAB8B7CE83E@1x</title>
    <g id="mobile" stroke="none" stroke-width="1" fill="none" fill-rule="evenodd">
        <g id="Homepage" transform="translate(-288.000000, -382.000000)">
            <g id="Group" transform="translate(300.000000, 394.000000) scale(-1, 1) translate(-300.000000, -394.000000) translate(288.000000, 382.000000)">
                <rect id="Rectangle" x="0" y="0" width="24" height="24"></rect>
                <g id="left-arrow" transform="translate(2.000000, 7.000000)" fill="#407BFF" fill-rule="nonzero">
                    <path d="M19.21875,4.0625 L2.67351562,4.0625 L5.41429687,1.335 C5.72011719,1.030625 5.72128906,0.535976563 5.41691406,0.23015625 C5.11253906,-0.075703125 4.61785156,-0.0768359375 4.31203125,0.2275 L0.22984375,4.29 C0.229570312,4.29023437 0.229375,4.29050781 0.229140625,4.29074219 C-0.0758984375,4.59511719 -0.076875,5.09136719 0.2290625,5.39675781 C0.229335937,5.39699219 0.22953125,5.39726562 0.229765625,5.3975 L4.31195312,9.46 C4.61773437,9.76429687 5.11242187,9.76324219 5.41683594,9.45734375 C5.72121094,9.15152344 5.72003906,8.656875 5.41421875,8.3525 L2.67351562,5.625 L19.21875,5.625 C19.6502344,5.625 20,5.27523438 20,4.84375 C20,4.41226562 19.6502344,4.0625 19.21875,4.0625 Z" id="Path"></path>
                </g>
            </g>
        </g>
    </g>
</svg>