<?xml version="1.0" encoding="UTF-8"?>
<svg width="24px" height="24px" viewBox="0 0 24 24" version="1.1" xmlns="http://www.w3.org/2000/svg" xmlns:xlink="http://www.w3.org/1999/xlink">
    <title>6E15B3A7-7821-40E0-A666-B106B4146369@1x</title>
    <g id="mobile" stroke="none" stroke-width="1" fill="none" fill-rule="evenodd">
        <g id="Homepage" transform="translate(-32.000000, -603.000000)">
            <g id="Group-8" transform="translate(32.000000, 603.000000)">
                <rect id="Rectangle" fill="#FFFFFF" x="0" y="0" width="24" height="24" rx="2"></rect>
                <g id="home-2" transform="translate(2.000000, 2.000000)" fill="#407BFF" fill-rule="nonzero">
                    <path d="M19.6641016,8.47203125 L17.9745313,6.93253906 L17.9745313,1.82773438 C17.9745313,1.50292969 17.7112109,1.23957031 17.3863672,1.23957031 L13.319375,1.23957031 C12.9945703,1.23957031 12.7312109,1.50289062 12.7312109,1.82773438 L12.7312109,2.15484375 L10.6907422,0.295585938 C10.296875,-0.063359375 9.70292969,-0.0633203125 9.30921875,0.295546875 L0.335859375,8.47207031 C0.020390625,8.75957031 -0.0838671875,9.20253906 0.0702734375,9.60054688 C0.224453125,9.99855469 0.59984375,10.2557031 1.02667969,10.2557031 L2.45984375,10.2557031 L2.45984375,18.4479297 C2.45984375,18.7727344 2.72316406,19.0361328 3.04800781,19.0361328 L7.96648438,19.0361328 C8.29128906,19.0361328 8.55464844,18.7727734 8.55464844,18.4479297 L8.55464844,13.4738672 L11.4453125,13.4738672 L11.4453125,18.4479687 C11.4453125,18.7727734 11.7086328,19.0361328 12.0334766,19.0361328 L16.9517578,19.0361328 C17.2765625,19.0361328 17.5399219,18.7728125 17.5398828,18.4479687 L17.5398828,10.2557422 L18.9733594,10.2557422 C19.4001563,10.2557422 19.7755859,9.99855469 19.9297656,9.60058594 C20.0838672,9.20253906 19.9796484,8.75957031 19.6641016,8.47203125 Z M16.9517578,9.07941406 C16.6269531,9.07941406 16.3635937,9.34273437 16.3635937,9.66757813 L16.3635937,17.8598047 L12.6216797,17.8598047 L12.6216797,12.8857031 C12.6216797,12.5608984 12.3583203,12.2975391 12.0335156,12.2975391 L7.96648438,12.2975391 C7.64167969,12.2975391 7.37832031,12.5608594 7.37832031,12.8857031 L7.37832031,17.8598047 L3.63613281,17.8598047 L3.63613281,9.66757813 C3.63613281,9.34277344 3.3728125,9.07941406 3.04796875,9.07941406 L1.41582031,9.07941406 L10.0000391,1.25753906 L12.9233203,3.92125 C13.0955078,4.078125 13.3440625,4.11855469 13.5570703,4.02453125 C13.7701172,3.93039063 13.9075781,3.719375 13.9075781,3.48648438 L13.9075781,2.41589844 L16.7982813,2.41589844 L16.7982813,7.19230469 C16.7982813,7.3578125 16.8679688,7.51558594 16.9903125,7.62707031 L18.5841797,9.07941406 L16.9517578,9.07941406 Z" id="Shape"></path>
                </g>
            </g>
        </g>
    </g>
</svg>