<?xml version="1.0" encoding="UTF-8"?>
<svg width="70px" height="69px" viewBox="0 0 70 69" version="1.1" xmlns="http://www.w3.org/2000/svg" xmlns:xlink="http://www.w3.org/1999/xlink">
    <title>C6529DCD-E1AA-4E10-ACF2-90711DC55424@1x</title>
    <g id="mobile" stroke="none" stroke-width="1" fill="none" fill-rule="evenodd">
        <g id="Splash-Screen" transform="translate(-36.000000, -40.000000)" fill-rule="nonzero">
            <g id="Asset-1" transform="translate(36.000000, 40.000000)">
                <path d="M34.6789474,34.6684211 C34.6789474,34.6684211 19.8421053,51.9052632 0,35.2631579 C0,35.2631579 15.6368421,18.2315789 34.6789474,34.6684211 Z" id="Path" fill="#79A2FF" opacity="0.7"></path>
                <path d="M34.6789474,34.6684211 C34.6789474,34.6684211 12.0105263,36.5105263 9.57894737,10.7315789 C9.57894737,10.7315789 32.6736842,9.58947368 34.6789474,34.6684211 Z" id="Path" fill="#9FBDFF" opacity="0.7"></path>
                <path d="M34.6789474,34.6684211 C34.6789474,34.6684211 17.2526316,20.0526316 33.6315789,0 C33.6315789,0 50.8684211,15.4157895 34.6789474,34.6684211 Z" id="Path" fill="#C6D7FF" opacity="0.7"></path>
                <path d="M34.6789474,34.6684211 C34.6789474,34.6684211 32.5421053,12.0368421 58.2894737,9.26315789 C58.2894737,9.26315789 59.7263158,32.3473684 34.6789474,34.6684211 Z" id="Path" fill="#9FBDFF" opacity="0.7"></path>
                <path d="M34.6789474,34.6684211 C34.6789474,34.6684211 49.0631579,17.0578947 69.3263158,33.1842105 C69.3263158,33.1842105 54.1315789,50.6105263 34.6789474,34.6684211 Z" id="Path" fill="#79A2FF" opacity="0.7"></path>
                <path d="M48.8789474,51.6105263 C48.8789474,51.6105263 44.8263158,56.3157895 39.4052632,51.7736842 C39.4052632,51.7736842 43.6842105,47.1210526 48.8789474,51.6105263 Z" id="Path" fill="#79A2FF" opacity="0.7"></path>
                <path d="M48.8789474,51.6105263 C48.8789474,51.6105263 42.6894737,52.1368421 42.0368125,45.0736842 C42.0210526,45.0736842 48.3315789,44.7631579 48.8789474,51.6105263 Z" id="Path" fill="#9FBDFF" opacity="0.7"></path>
                <path d="M48.8789474,51.6105263 C48.8789474,51.6105263 44.1157895,47.6210526 48.5947368,42.1368421 C48.5947368,42.1421053 53.3,46.3526316 48.8789474,51.6105263 Z" id="Path" fill="#C6D7FF" opacity="0.7"></path>
                <path d="M48.8789474,51.6105263 C48.8789474,51.6105263 48.2947368,45.4263158 55.3263158,44.6736842 C55.3263158,44.6736842 55.7210526,50.9736842 48.8789474,51.6105263 Z" id="Path" fill="#9FBDFF" opacity="0.7"></path>
                <path d="M48.8789474,51.6105263 C48.8789474,51.6105263 52.8052632,46.8 58.3526316,51.2052632 C58.3421053,51.2052632 54.2105263,55.9631579 48.8789474,51.6105263 Z" id="Path" fill="#79A2FF" opacity="0.7"></path>
                <path d="M39.9473684,63.2947368 C39.9473684,63.2947368 36.8947368,49.6105263 39.0157895,41.3894737 C41.1368421,33.1684211 44.3210526,31.4842105 44.0315789,30.2157895 C43.7421053,28.9473684 42.1421053,29.5157895 41.6157895,30.6736842 C41.0894737,31.8315789 38.9842105,34.3105263 37.0526316,33.8684211 C35.1210526,33.4263158 34.7631579,25.5684211 33.3684211,24.7578947 C31.9736842,23.9473684 32.4105263,27.5894737 32.9,30.7473684 C33.3894737,33.9052632 30.7421053,32.1105263 29.1315789,28.3052632 C27.5210526,24.5 26.5315789,25.5894737 26.3368421,26.1210526 C26.1421053,26.6526316 29.8894737,33.4526316 29.5947368,33.7736842 C29.3,34.0947368 24.5684211,28.4210526 24.1,28.5736842 C23.6315789,28.7263158 22.8210526,29.1526316 23.9421053,30.9368421 C25.0631579,32.7210526 28.6421053,35.7263158 28.4052632,36.2 C28.1684211,36.6736842 25.2105263,33.9473684 24.1210526,33.8631579 C23.0315789,33.7789474 23.4473684,35.3315789 25.3842105,36.7684211 C27.3210526,38.2052632 32.1052632,39.8421053 32.1631579,45.1473684 C32.2210526,50.4526316 31.0052632,63.2947368 31.0052632,63.2947368 L39.9473684,63.2947368 Z" id="Path" fill="#A27729"></path>
                <path d="M51.5315789,64.3473684 C51.5315789,64.3473684 50.2578947,58.6526316 51.1421053,55.2368421 C52.0263158,51.8210526 53.3473684,51.1105263 53.2473684,50.5842105 C53.1473684,50.0578947 52.4578947,50.2947368 52.2421053,50.7789474 C52.0263158,51.2631579 51.1368421,52.2894737 50.3421053,52.1052632 C49.5473684,51.9210526 49.3894737,48.6526316 48.8105263,48.3157895 C48.2315789,47.9789474 48.4210526,49.4736842 48.6,50.8052632 C48.7789474,52.1368421 47.7052632,51.3736842 47.0210526,49.7894737 C46.3368421,48.2052632 45.9684211,48.6631579 45.8578947,48.8842105 C45.7473684,49.1052632 47.3368421,51.9315789 47.2157895,52.0421053 C47.0947368,52.1526316 45.1105263,49.8210526 44.9263158,49.8842105 C44.7421053,49.9473684 44.4,50.1263158 44.8631579,50.8631579 C45.3263158,51.6 46.8210526,52.8578947 46.7210526,53.0631579 C46.6210526,53.2684211 45.4,52.1473684 44.9473684,52.1052632 C44.4947368,52.0631579 44.6684211,52.7157895 45.4736842,53.3105263 C46.2789474,53.9052632 48.2631579,54.5789474 48.2947368,56.7894737 C48.3263158,59 47.8105263,64.3368421 47.8105263,64.3368421 L51.5315789,64.3473684 Z" id="Path" fill="#A27729"></path>
                <path d="M69.6157895,66.7894737 C69.6157895,66.7894737 31.0526316,61.4315789 7.73157895,68.6631579 C7.73157895,68.6631579 33.7157895,53.9263158 69.6157895,66.7894737 Z" id="Path" fill="#A27729"></path>
            </g>
        </g>
    </g>
</svg>