<?xml version="1.0" encoding="UTF-8"?>
<svg width="24px" height="24px" viewBox="0 0 24 24" version="1.1" xmlns="http://www.w3.org/2000/svg" xmlns:xlink="http://www.w3.org/1999/xlink">
    <title>45D925FF-E396-4632-A859-4EE9DE38B4EB@1x</title>
    <g id="mobile" stroke="none" stroke-width="1" fill="none" fill-rule="evenodd">
        <g id="Homepage" transform="translate(-168.000000, -603.000000)">
            <g id="Group-10" transform="translate(168.000000, 603.000000)">
                <rect id="Rectangle" fill="#FFFFFF" x="0" y="0" width="24" height="24"></rect>
                <g id="leaf" transform="translate(4.000000, 2.000000)" fill="#233258" fill-opacity="0.35" fill-rule="nonzero">
                    <path d="M15.6613281,0.637226563 C15.6073828,0.395820313 15.4076563,0.214296875 15.1621875,0.18359375 C12.7438672,-0.118671875 10.5098438,-0.0475 8.52222656,0.395117188 C5.99113281,0.958671875 3.82132812,2.13070312 2.07277344,3.87898438 C-0.6540625,6.60855469 -0.6540625,11.0499219 2.07304687,13.7797266 C2.33609375,14.0426953 2.61667969,14.2817578 2.91179688,14.4966406 L2.91179688,19.4140625 C2.91179688,19.7376563 3.17414063,20 3.49773438,20 C3.82132813,20 4.08367188,19.7376563 4.08367188,19.4140625 L4.08367188,15.1858594 C4.99332031,15.6067578 5.99164063,15.8289062 7.02449219,15.8289062 C8.89582031,15.8289062 10.6535156,15.1010547 11.9735938,13.7796875 C14.0374609,11.7159766 13.6100391,8.8725 13.4694141,7.27675781 C13.2546484,4.84054688 13.0691406,2.7365625 15.4028125,1.26019531 C15.6117969,1.12792969 15.7153125,0.878671875 15.6613281,0.637226563 Z M2.9015625,4.70746094 C4.96527344,2.64414062 7.64699219,1.47933594 10.9047656,1.22425781 C9.5075,1.905 8.15726563,2.89777344 6.97835938,4.1421875 C4.666875,6.58210937 3.27148438,9.69445312 2.97289062,13.020625 C0.63765625,10.7621875 0.601679687,7.00964844 2.9015625,4.70746094 Z M12.3019922,7.3796875 C12.4859375,9.4659375 12.6596094,11.4364844 11.1446875,12.95125 C10.0457812,14.05125 8.58253906,14.6570313 7.02441406,14.6570313 C5.97769531,14.6570313 4.97359375,14.3832422 4.09359375,13.8703906 C4.21378906,10.5278906 5.52886719,7.37617188 7.8290625,4.94808594 C8.8859375,3.8325 10.1239062,2.91121094 11.4091797,2.28382813 C12.0358203,1.97792969 12.6680469,1.74441406 13.2885938,1.58746094 C12.8280469,2.17726563 12.5159766,2.851875 12.3457422,3.62167969 C12.0776172,4.83433594 12.1916797,6.12832031 12.3019922,7.3796875 Z" id="Shape"></path>
                </g>
            </g>
        </g>
    </g>
</svg>