<?xml version="1.0" encoding="UTF-8"?>
<svg width="24px" height="24px" viewBox="0 0 24 24" version="1.1" xmlns="http://www.w3.org/2000/svg" xmlns:xlink="http://www.w3.org/1999/xlink">
    <title>B71ED110-C807-45BA-8B1B-4E14E0044525@1x</title>
    <g id="mobile" stroke="none" stroke-width="1" fill="none" fill-rule="evenodd">
        <g id="Homepage" transform="translate(-304.000000, -603.000000)">
            <g id="Group-12" transform="translate(304.000000, 603.000000)">
                <rect id="Rectangle" fill="#FFFFFF" x="0" y="0" width="24" height="24"></rect>
                <g id="menu" transform="translate(4.000000, 6.000000)" fill="#233258" fill-opacity="0.35" fill-rule="nonzero">
                    <path d="M15.3333333,6.44449871 L0.666666667,6.44449871 C0.298665375,6.44449871 0,6.14583333 0,5.77783204 C0,5.40983075 0.298665375,5.11116538 0.666666667,5.11116538 L15.3333333,5.11116538 C15.7013346,5.11116538 16,5.40983075 16,5.77783204 C16,6.14583333 15.7013346,6.44449871 15.3333333,6.44449871 Z" id="Path"></path>
                    <path d="M15.3333333,1.33333333 L0.666666667,1.33333333 C0.298665375,1.33333333 0,1.03466796 0,0.666666667 C0,0.298665375 0.298665375,0 0.666666667,0 L15.3333333,0 C15.7013346,0 16,0.298665375 16,0.666666667 C16,1.03466796 15.7013346,1.33333333 15.3333333,1.33333333 Z" id="Path"></path>
                    <path d="M15.3333333,11.5555013 L0.666666667,11.5555013 C0.298665375,11.5555013 0,11.2568359 0,10.8888346 C0,10.5208333 0.298665375,10.222168 0.666666667,10.222168 L15.3333333,10.222168 C15.7013346,10.222168 16,10.5208333 16,10.8888346 C16,11.2568359 15.7013346,11.5555013 15.3333333,11.5555013 Z" id="Path"></path>
                </g>
            </g>
        </g>
    </g>
</svg>