<?xml version="1.0" encoding="UTF-8"?>
<svg width="11px" height="14px" viewBox="0 0 11 14" version="1.1" xmlns="http://www.w3.org/2000/svg" xmlns:xlink="http://www.w3.org/1999/xlink">
    <title>880DA316-58AB-4BB9-ADF4-0B5B4CBD88AE@1x</title>
    <g id="mobile" stroke="none" stroke-width="1" fill="none" fill-rule="evenodd">
        <g id="Login" transform="translate(-61.000000, -349.000000)">
            <g id="ic-password" transform="translate(56.000000, 346.000000)">
                <rect id="Rectangle" x="0" y="0" width="20" height="20"></rect>
                <g id="padlock" stroke-width="1" fill-rule="evenodd" transform="translate(5.000000, 3.000000)" fill="#233258" opacity="0.5">
                    <path d="M9.1875,14 L1.3125,14 C0.589166667,14 0,13.4114167 0,12.6875 L0,6.5625 C0,5.83858333 0.589166667,5.25 1.3125,5.25 L9.1875,5.25 C9.91083333,5.25 10.5,5.83858333 10.5,6.5625 L10.5,12.6875 C10.5,13.4114167 9.91083333,14 9.1875,14 Z M1.3125,6.125 C1.07158333,6.125 0.875,6.321 0.875,6.5625 L0.875,12.6875 C0.875,12.929 1.07158333,13.125 1.3125,13.125 L9.1875,13.125 C9.42841667,13.125 9.625,12.929 9.625,12.6875 L9.625,6.5625 C9.625,6.321 9.42841667,6.125 9.1875,6.125 L1.3125,6.125 Z" id="Shape" fill-rule="nonzero"></path>
                    <path d="M8.3125,6.125 C8.071,6.125 7.875,5.929 7.875,5.6875 L7.875,3.5 C7.875,2.05275 6.69725,0.875 5.25,0.875 C3.80275,0.875 2.625,2.05275 2.625,3.5 L2.625,5.6875 C2.625,5.929 2.429,6.125 2.1875,6.125 C1.946,6.125 1.75,5.929 1.75,5.6875 L1.75,3.5 C1.75,1.56975 3.31975,0 5.25,0 C7.18025,0 8.75,1.56975 8.75,3.5 L8.75,5.6875 C8.75,5.929 8.554,6.125 8.3125,6.125 Z" id="Path" fill-rule="nonzero"></path>
                    <path d="M5.25,9.91666667 C4.60658333,9.91666667 4.08333333,9.39341667 4.08333333,8.75 C4.08333333,8.10658333 4.60658333,7.58333333 5.25,7.58333333 C5.89341667,7.58333333 6.41666667,8.10658333 6.41666667,8.75 C6.41666667,9.39341667 5.89341667,9.91666667 5.25,9.91666667 Z M5.25,8.45833333 C5.08958333,8.45833333 4.95833333,8.589 4.95833333,8.75 C4.95833333,8.911 5.08958333,9.04166667 5.25,9.04166667 C5.41041667,9.04166667 5.54166667,8.911 5.54166667,8.75 C5.54166667,8.589 5.41041667,8.45833333 5.25,8.45833333 Z" id="Shape" fill-rule="nonzero"></path>
                    <path d="M5.25,11.6666667 C5.0085,11.6666667 4.8125,11.4706667 4.8125,11.2291667 L4.8125,9.625 C4.8125,9.3835 5.0085,9.1875 5.25,9.1875 C5.4915,9.1875 5.6875,9.3835 5.6875,9.625 L5.6875,11.2291667 C5.6875,11.4706667 5.4915,11.6666667 5.25,11.6666667 Z" id="Path" fill-rule="nonzero"></path>
                </g>
            </g>
        </g>
    </g>
</svg>