<?xml version="1.0" encoding="UTF-8"?>
<svg width="24px" height="24px" viewBox="0 0 24 24" version="1.1" xmlns="http://www.w3.org/2000/svg" xmlns:xlink="http://www.w3.org/1999/xlink">
    <title>F475D126-032B-4DCC-A92B-A3D9113CEF0A@1x</title>
    <g id="mobile" stroke="none" stroke-width="1" fill="none" fill-rule="evenodd">
        <g id="Homepage" transform="translate(-100.000000, -603.000000)">
            <g id="Group-9" transform="translate(100.000000, 603.000000)">
                <rect id="Rectangle" fill="#FFFFFF" x="0" y="0" width="24" height="24"></rect>
                <g id="planning" transform="translate(2.000000, 2.000000)" fill="#233258" fill-rule="nonzero">
                    <path d="M18.828125,12.9920313 L18.828125,1.7578125 C18.828125,0.788554688 18.0395703,0 17.0703125,0 L4.140625,0 C3.17136719,0 2.3828125,0.788554688 2.3828125,1.7578125 L2.3828125,2.3828125 L1.7578125,2.3828125 C0.788554688,2.3828125 0,3.17136719 0,4.140625 C0,5.10988281 0.788554688,5.8984375 1.7578125,5.8984375 L2.3828125,5.8984375 L2.3828125,8.2421875 L1.7578125,8.2421875 C0.788554688,8.2421875 0,9.03074219 0,10 C0,10.9692578 0.788554688,11.7578125 1.7578125,11.7578125 L2.3828125,11.7578125 L2.3828125,14.1015625 L1.7578125,14.1015625 C0.788554688,14.1015625 0,14.8901172 0,15.859375 C0,16.8286328 0.788554688,17.6171875 1.7578125,17.6171875 L2.3828125,17.6171875 L2.3828125,18.203125 C2.3828125,18.6701172 2.56238281,19.1151172 2.8884375,19.4562109 C3.22367187,19.806875 3.66839844,20 4.140625,20 L15.8984375,20 C18.1600391,20 20,18.1425391 20,15.859375 C20,14.7444141 19.5525781,13.7321094 18.828125,12.9920313 Z M1.7578125,4.7265625 C1.43472656,4.7265625 1.171875,4.46371094 1.171875,4.140625 C1.171875,3.81753906 1.43472656,3.5546875 1.7578125,3.5546875 L2.96875,3.5546875 C3.29183594,3.5546875 3.5546875,3.81753906 3.5546875,4.140625 C3.5546875,4.46371094 3.29183594,4.7265625 2.96875,4.7265625 L1.7578125,4.7265625 Z M1.7578125,10.5859375 C1.43472656,10.5859375 1.171875,10.3230859 1.171875,10 C1.171875,9.67691406 1.43472656,9.4140625 1.7578125,9.4140625 L2.96875,9.4140625 C3.29183594,9.4140625 3.5546875,9.67691406 3.5546875,10 C3.5546875,10.3230859 3.29183594,10.5859375 2.96875,10.5859375 L1.7578125,10.5859375 Z M2.96875,16.4453125 L1.7578125,16.4453125 C1.43472656,16.4453125 1.171875,16.1824609 1.171875,15.859375 C1.171875,15.5362891 1.43472656,15.2734375 1.7578125,15.2734375 L2.96875,15.2734375 C3.29183594,15.2734375 3.5546875,15.5362891 3.5546875,15.859375 C3.5546875,16.1824609 3.29183594,16.4453125 2.96875,16.4453125 Z M4.140625,18.828125 C3.82851563,18.828125 3.5546875,18.5360547 3.5546875,18.203125 L3.5546875,17.5164062 C4.23667969,17.2745312 4.7265625,16.6232422 4.7265625,15.859375 C4.7265625,15.0955078 4.23667969,14.4442188 3.5546875,14.2023437 L3.5546875,11.6570312 C4.23667969,11.4151562 4.7265625,10.7638672 4.7265625,10 C4.7265625,9.23613281 4.23667969,8.58484375 3.5546875,8.34296875 L3.5546875,5.79765625 C4.23667969,5.55578125 4.7265625,4.90449219 4.7265625,4.140625 C4.7265625,3.37675781 4.23667969,2.72546875 3.5546875,2.48359375 L3.5546875,1.7578125 C3.5546875,1.43472656 3.81753906,1.171875 4.140625,1.171875 L17.0703125,1.171875 C17.3933984,1.171875 17.65625,1.43472656 17.65625,1.7578125 L17.65625,12.1541016 C17.1232031,11.9001953 16.5271484,11.7578125 15.8984375,11.7578125 C13.6368359,11.7578125 11.796875,13.5977734 11.796875,15.859375 C11.796875,17.0226562 12.2747266,18.0752344 13.0424219,18.828125 L4.140625,18.828125 Z M15.8984375,18.828125 C14.2830078,18.828125 12.96875,17.4963672 12.96875,15.859375 C12.96875,14.2439453 14.2830078,12.9296875 15.8984375,12.9296875 C17.5138672,12.9296875 18.828125,14.2439453 18.828125,15.859375 C18.828125,17.4963672 17.5138672,18.828125 15.8984375,18.828125 Z" id="Shape" fill-opacity="0.35"></path>
                    <path d="M15.8984375,4.7265625 L12.3828125,4.7265625 C12.0592187,4.7265625 11.796875,4.98890625 11.796875,5.3125 C11.796875,5.63609375 12.0592187,5.8984375 12.3828125,5.8984375 L15.8984375,5.8984375 C16.2220313,5.8984375 16.484375,5.63609375 16.484375,5.3125 C16.484375,4.98890625 16.2220313,4.7265625 15.8984375,4.7265625 Z" id="Path" opacity="0.352748326"></path>
                    <path d="M15.8984375,9.4140625 L12.3828125,9.4140625 C12.0592187,9.4140625 11.796875,9.67640625 11.796875,10 C11.796875,10.3235937 12.0592187,10.5859375 12.3828125,10.5859375 L15.8984375,10.5859375 C16.2220313,10.5859375 16.484375,10.3235937 16.484375,10 C16.484375,9.67640625 16.2220313,9.4140625 15.8984375,9.4140625 Z" id="Path" opacity="0.352748326"></path>
                    <path d="M17.0703125,15.2734375 L16.484375,15.2734375 L16.484375,14.6875 C16.484375,14.3639062 16.2220313,14.1015625 15.8984375,14.1015625 C15.5748437,14.1015625 15.3125,14.3639062 15.3125,14.6875 L15.3125,15.859375 C15.3125,16.1829688 15.5748437,16.4453125 15.8984375,16.4453125 L17.0703125,16.4453125 C17.3939063,16.4453125 17.65625,16.1829688 17.65625,15.859375 C17.65625,15.5357812 17.3939063,15.2734375 17.0703125,15.2734375 Z" id="Path" opacity="0.352748326"></path>
                    <path d="M10.4142969,3.72628906 C10.1855078,3.49746094 9.81449219,3.49746094 9.58570313,3.72632813 L7.65625,5.65574219 L6.73394531,4.7334375 C6.50515625,4.50460938 6.13414063,4.50460938 5.9053125,4.7334375 C5.67648438,4.96226563 5.67648438,5.33324219 5.9053125,5.56207031 L7.24195313,6.89871094 C7.35632813,7.013125 7.50628906,7.0703125 7.65625,7.0703125 C7.80621094,7.0703125 7.95617187,7.013125 8.07054687,6.89867188 L10.4142969,4.55492188 C10.643125,4.32609375 10.643125,3.95511719 10.4142969,3.72628906 Z" id="Path" opacity="0.352748326"></path>
                    <path d="M10.4142969,8.41378906 C10.1855078,8.18496094 9.81449219,8.18496094 9.58570313,8.41382813 L7.65625,10.3432422 L6.73394531,9.4209375 C6.50515625,9.19210937 6.13414063,9.19210937 5.9053125,9.4209375 C5.67648438,9.64976563 5.67648438,10.0207422 5.9053125,10.2495703 L7.24195313,11.5862109 C7.35632813,11.700625 7.50628906,11.7578125 7.65625,11.7578125 C7.80621094,11.7578125 7.95617187,11.700625 8.07054687,11.5861719 L10.4142969,9.24242187 C10.643125,9.01359375 10.643125,8.64261719 10.4142969,8.41378906 Z" id="Path" opacity="0.352748326"></path>
                    <path d="M10.4142969,13.1012891 C10.1855078,12.8724609 9.81449219,12.8724609 9.58570313,13.1013281 L7.65625,15.0307422 L6.73394531,14.1084375 C6.50515625,13.8796094 6.13414063,13.8796094 5.9053125,14.1084375 C5.67648438,14.3372656 5.67648438,14.7082422 5.9053125,14.9370703 L7.24195313,16.2737109 C7.35632813,16.388125 7.50628906,16.4453125 7.65625,16.4453125 C7.80621094,16.4453125 7.95617187,16.388125 8.07054687,16.2736719 L10.4142969,13.9299219 C10.643125,13.7010937 10.643125,13.3301172 10.4142969,13.1012891 Z" id="Path" opacity="0.352748326"></path>
                </g>
            </g>
        </g>
    </g>
</svg>