<?xml version="1.0" encoding="UTF-8"?>
<svg width="24px" height="24px" viewBox="0 0 24 24" version="1.1" xmlns="http://www.w3.org/2000/svg" xmlns:xlink="http://www.w3.org/1999/xlink">
    <title>3880C916-D936-4505-B278-BEADA9A5EC03@1x</title>
    <g id="mobile" stroke="none" stroke-width="1" fill="none" fill-rule="evenodd">
        <g id="Homepage" transform="translate(-236.000000, -603.000000)">
            <g id="Group-11" transform="translate(236.000000, 603.000000)">
                <rect id="Rectangle" fill="#FFFFFF" x="0" y="0" width="24" height="24"></rect>
                <g id="delivery-truck" transform="translate(2.000000, 5.000000)" fill="#233258" fill-opacity="0.35" fill-rule="nonzero">
                    <path d="M19.3170982,6.24571429 L17.9554911,5.65642857 L16.7992411,3.40642857 C16.4867411,2.79035714 15.8528125,2.40642857 15.1608482,2.41089286 L13.1697768,2.41089286 L13.1697768,1.84839286 C13.1697768,0.830535714 12.3572768,0.000178571429 11.3394196,0.000178571429 L1.8215625,0.000178571429 C0.803705357,0.000178571429 1.51434022e-05,0.835 1.51434022e-05,1.84839286 L1.51434022e-05,10.4644643 C-0.00879464286,11.085 0.486741071,11.5939286 1.10727679,11.6028571 C1.11174107,11.6028571 1.11620536,11.6028571 1.12513393,11.6028571 L1.36174107,11.6028571 C1.36174107,11.6475 1.35727679,11.6653571 1.35727679,11.6921429 C1.3528125,12.9689286 2.3840625,14.0091071 3.66084821,14.0135859 C4.93763393,14.0180357 5.9778125,12.9867857 5.98227679,11.71 C5.98227679,11.7010714 5.98227679,11.6966071 5.98227679,11.6876786 C5.98227679,11.6564286 5.98227679,11.6430357 5.9778125,11.5983929 L13.6697768,11.5983929 C13.6697768,11.6430357 13.6697768,11.6608929 13.6697768,11.6876786 C13.6653125,12.9644643 14.6965625,14.0046429 15.9733482,14.0091071 C17.2501339,14.0135859 18.2903125,12.9823214 18.2947768,11.7055357 C18.2947768,11.6966071 18.2947768,11.6921429 18.2947768,11.6832143 C18.2947768,11.6519643 18.2947768,11.6385714 18.2947768,11.5939286 L18.8706696,11.5939286 C19.4912054,11.5939286 19.9956696,11.0894643 19.9956696,10.4689286 C19.9956696,10.4644643 19.9956696,10.46 19.9956696,10.4510714 L19.9956696,7.28142857 C20.0045982,6.84392857 19.7367411,6.42875 19.3170982,6.24571429 Z M3.67424107,13.1251786 C2.88852679,13.1251786 2.25459821,12.49125 2.25459821,11.7055357 C2.25459821,10.9198214 2.88852679,10.2858929 3.67424107,10.2858929 C4.45995536,10.2858929 5.09388393,10.9198214 5.09388393,11.7055357 C5.09388393,12.4867857 4.45549107,13.1251786 3.67424107,13.1251786 Z M12.2769196,10.7189286 L5.76799107,10.7189286 C5.39299107,9.90196429 4.5715625,9.37964286 3.67424107,9.38410714 C2.77245536,9.37964286 1.95549107,9.8975 1.58049107,10.7189286 L1.12513393,10.7189286 C0.986741071,10.7189286 0.892991071,10.6117857 0.892991071,10.4733929 L0.892991071,8.17428571 L12.2769196,8.17428571 L12.2769196,10.7189286 Z M12.2769549,1.85285714 L12.2769549,7.28142857 L0.892991071,7.28142857 L0.892991071,1.85285714 C0.892991071,1.33053571 1.29924107,0.8975 1.8215625,0.8975 L11.3394196,0.8975 C11.8617411,0.901964286 12.2813839,1.33053571 12.2769549,1.84839286 L12.2769549,1.85285714 Z M13.1697768,3.30821429 L15.1608482,3.30821429 C15.5135268,3.30375 15.8438839,3.49571429 16.0090625,3.81267857 L16.9019196,5.54035714 L13.1697768,5.54035714 L13.1697768,3.30821429 L13.1697768,3.30821429 Z M15.9867411,13.1251786 C15.2010268,13.1251786 14.5670982,12.49125 14.5670982,11.7055357 C14.5670982,10.9198214 15.2010268,10.2858929 15.9867411,10.2858929 C16.7724554,10.2858929 17.4063839,10.9198214 17.4063839,11.7055357 C17.4063839,12.4867857 16.7724554,13.1251786 15.9867411,13.1251786 Z M19.1072768,10.4733929 C19.1072768,10.6117857 19.0135268,10.7189286 18.8751339,10.7189286 L18.0804911,10.7189286 C17.5403125,9.56267857 16.1653125,9.06267857 15.0090625,9.60285714 C14.5179911,9.83053571 14.1206696,10.2278571 13.8929911,10.7189286 L13.1697768,10.7189286 L13.1697768,6.43321429 L17.5447768,6.43321429 L18.9644196,7.05821429 C19.0537054,7.10285714 19.1117411,7.20107143 19.1072768,7.29928571 L19.1072768,10.4733929 Z" id="Shape"></path>
                </g>
            </g>
        </g>
    </g>
</svg>