<?xml version="1.0" encoding="UTF-8"?>
<svg width="24px" height="24px" viewBox="0 0 24 24" version="1.1" xmlns="http://www.w3.org/2000/svg" xmlns:xlink="http://www.w3.org/1999/xlink">
    <title>E781CDF4-7DE1-4158-87AE-F223634F7A81@1x</title>
    <g id="mobile" stroke="none" stroke-width="1" fill="none" fill-rule="evenodd">
        <g id="Homepage" transform="translate(-62.000000, -273.000000)">
            <g id="Group-4" transform="translate(62.000000, 273.000000)">
                <rect id="Rectangle" fill="#FFFFFF" x="0" y="0" width="24" height="24"></rect>
                <g id="user-3" transform="translate(4.000000, 2.000000)" fill="#F9686A" fill-rule="nonzero">
                    <path d="M8.21685789,9.63409422 C9.54040527,9.63409422 10.6863403,9.15939332 11.6229248,8.22280883 C12.5592041,7.28637695 13.0340576,6.14059449 13.0340576,4.81689453 C13.0340576,3.49365234 12.5593567,2.34771727 11.6227722,1.41098023 C10.6861877,0.474700937 9.5402527,0 8.21685789,0 C6.89315797,0 5.74737547,0.474700937 4.81094359,1.41113281 C3.87451172,2.34756469 3.3996582,3.49349977 3.3996582,4.81689453 C3.3996582,6.14059449 3.87451172,7.28652953 4.81094359,8.22296141 C5.74768066,9.1592407 6.8936157,9.63409422 8.21685789,9.63409422 Z M5.63980102,2.23983766 C6.35833742,1.52130125 7.20123289,1.17202758 8.21685789,1.17202758 C9.23233031,1.17202758 10.0753784,1.52130125 10.7940674,2.23983766 C11.5126038,2.9585266 11.86203,3.80157469 11.86203,4.81689453 C11.86203,5.83251953 11.5126038,6.67541504 10.7940674,7.39410398 C10.0753784,8.11279297 9.23233031,8.46206664 8.21685789,8.46206664 C7.20153809,8.46206664 6.35864258,8.11264039 5.63980102,7.39410398 C4.92111207,6.67556762 4.57168578,5.83251953 4.57168578,4.81689453 C4.57168578,3.80157469 4.92111207,2.9585266 5.63980102,2.23983766 Z" id="Shape"></path>
                    <path d="M16.6456604,15.3790283 C16.6186523,14.9893188 16.5640259,14.564209 16.4836121,14.1152954 C16.4024353,13.6630249 16.2979126,13.2354736 16.1727905,12.8446961 C16.043396,12.4407959 15.8677673,12.0419312 15.6503296,11.6596985 C15.4249573,11.26297 15.1600647,10.917511 14.8628235,10.6332398 C14.552002,10.3358459 14.1714477,10.0967407 13.7313843,9.92233277 C13.2928467,9.74884031 12.8068543,9.66094969 12.2869873,9.66094969 C12.0828247,9.66094969 11.885376,9.74472047 11.5040588,9.99298094 C11.2693787,10.1460266 10.994873,10.3230286 10.6884766,10.5187988 C10.4264832,10.68573 10.0715637,10.8421326 9.63317871,10.9837341 C9.20547484,11.1221313 8.77120973,11.1923218 8.34243773,11.1923218 C7.91397094,11.1923218 7.47970582,11.1221313 7.0516968,10.9837341 C6.61376953,10.8422852 6.2586975,10.6858826 5.99716187,10.5189514 C5.69366453,10.3250122 5.41900633,10.1480102 5.18081664,9.99282836 C4.79980469,9.74456789 4.60235594,9.66079711 4.39819336,9.66079711 C3.87817383,9.66079711 3.39233398,9.74884031 2.95394898,9.92248535 C2.51419066,10.0965881 2.13348391,10.3356934 1.82235719,10.6333923 C1.52511598,10.9178162 1.2602234,11.2631226 1.03500367,11.6596985 C0.817871094,12.0419312 0.642089844,12.4406433 0.512695312,12.8448486 C0.38772582,13.2356262 0.283203125,13.6630249 0.202026367,14.1152954 C0.121459961,14.5635986 0.0669860938,14.9888611 0.0399780469,15.3794861 C0.0134277344,15.7614136 0,16.158905 0,16.5605164 C0,17.6045227 0.331878672,18.449707 0.986328125,19.0730286 C1.63269043,19.6881104 2.48779297,20 3.52798461,20 L13.1581116,20 C14.197998,20 15.0531006,19.6881104 15.6996155,19.0730286 C16.3542175,18.4501648 16.6860962,17.6046753 16.6860962,16.5603638 C16.6860962,16.1573791 16.6723633,15.7598877 16.6456604,15.3790283 L16.6456604,15.3790283 Z M14.89151,18.223877 C14.4644165,18.6303711 13.8973999,18.8279724 13.157959,18.8279724 L3.52798461,18.8279724 C2.78839109,18.8279724 2.22137453,18.6303711 1.79443359,18.2240295 C1.37557984,17.8253174 1.17202758,17.2810364 1.17202758,16.5605164 C1.17202758,16.1857605 1.18438719,15.8157348 1.20910645,15.4605102 C1.23321531,15.1119995 1.28250121,14.7291565 1.35559082,14.3223572 C1.42776488,13.9205933 1.51962281,13.5435486 1.62887574,13.2022095 C1.73370359,12.8749084 1.87667848,12.5508118 2.05398559,12.238617 C2.22320555,11.9410705 2.41790773,11.685791 2.63275148,11.4801025 C2.83370973,11.2876892 3.08700563,11.1302185 3.38546754,11.0121155 C3.66149902,10.9028625 3.9717102,10.8430481 4.30847168,10.8340454 C4.34951781,10.8558655 4.42260742,10.897522 4.54101562,10.9747314 C4.78195191,11.1317444 5.05966187,11.3108826 5.36666871,11.506958 C5.71273805,11.7276001 6.15859984,11.9268799 6.69128418,12.0988464 C7.23587035,12.2749329 7.79129027,12.3643494 8.34259031,12.3643494 C8.89389039,12.3643494 9.44946289,12.2749329 9.99374391,12.098999 C10.526886,11.9267273 10.9725952,11.7276001 11.3191223,11.5066528 C11.6333008,11.3058472 11.9032288,11.131897 12.144165,10.9747314 C12.2625732,10.8976746 12.3356629,10.8558655 12.376709,10.8340454 C12.713623,10.8430481 13.0238342,10.9028625 13.3000183,11.0121155 C13.5983277,11.1302185 13.8516235,11.2878418 14.0525818,11.4801025 C14.2674255,11.6856384 14.4621277,11.940918 14.6313477,12.2387695 C14.8088074,12.5508118 14.9519348,12.875061 15.0566101,13.2020569 C15.1660156,13.5438538 15.2580261,13.9207459 15.3300476,14.3222046 C15.4029846,14.7297668 15.4524231,15.1127625 15.476532,15.4606629 L15.476532,15.460968 C15.5014038,15.8148193 15.513916,16.1846924 15.5140686,16.5605164 C15.513916,17.281189 15.3103637,17.8253174 14.89151,18.223877 L14.89151,18.223877 Z" id="Shape"></path>
                </g>
            </g>
        </g>
    </g>
</svg>